<svg id="vector" xmlns="http://www.w3.org/2000/svg" width="90" height="460" viewBox="0 0 90 460"><path fill="#385e99" stroke-width="1" d="M0 0L0 51L2 78C-1.11189 80.7192 0 86.1096 0 90L0 121L0 248L0 283C0 287.687 -1.14477 293.011 3 296L5 292L7 297L13 298L13 299L8 301L9 306C-5.16273 298.331 0 331.116 0 340L15 334L15 333C8.27777 329.937 0.868636 320.947 12.0046 316.908C15.8992 315.496 20.1103 317.428 24 318C26.5333 311.907 36.0741 298.182 26 295L28 299C22.8682 299.192 19.9769 293.906 26.0478 291.998C31.4092 290.313 39.0094 293.232 44 295C49.6142 284.208 62.4601 278.853 74 282C76.1762 278.002 79.5528 276.87 84 277L83 288L74 284C68.1984 295.175 55.6364 298.859 44 296L38 305L35 300L27 321C33.4276 316.147 56.7908 302.289 50 322L58 320C59.6661 328.766 64.0262 337.421 66.4429 346C67.306 349.064 70.0906 353.509 68.6713 356.722C67.0481 360.397 59.4034 361.818 56 363.281C45.5398 367.778 35.512 371.91 25 376.074C21.8718 377.313 15.4674 380.616 12.213 379.007C5.52066 375.699 3.01627 359.515 1 353L0 353L0 460L73 460L73 459L66 457L66 456L72 456L70.1096 441L76 419L90 423L90 404L86 404L90 400C90 391.389 93.2125 374.746 88.9722 367.174C83.3494 357.132 71.2081 354.651 71.0185 341C70.8136 326.249 82.6269 324.604 88.9722 314.61C91.2874 310.964 90 304.165 90 300L85 299L90 294L85.946 278.424L89.8704 266L90 236L89 236C81.5662 243.591 51.7146 236.526 45.2917 228.787C38.8204 220.989 53.1191 212.866 59 211.74C63.0567 210.963 66.8515 210.086 71 210C73.833 202.1 82.2625 204.023 86.9113 198.44C92.2834 191.987 90 178.754 90 171L87 178L77 176C79.2514 172.535 79.808 170.765 78 167C82.1016 166.689 83.9811 165.6 86 162L87 162L87 168L90 168L90 156C83.944 157.442 76.4207 157.982 71.0154 154.297C60.7707 147.312 56.3363 126.86 67.044 118.43C73.6337 113.242 82.417 115.402 90 116L90 98C88.5653 98.2537 87.3473 98.5111 85.956 98.9305C72.5204 102.981 88.6548 92.3278 89.3966 90.7222C91.2185 86.7791 90 80.2787 90 76L73 80C76.0669 74.6915 84.2187 72.8538 90 72C89.9981 54.7739 79.822 63.9678 68 65C70.1314 58.0952 79.7463 57.4337 86 56L90 32L89 32L75 47L80 51L66 45L72 46L70.1096 31L76 9L90 13L90 0L72.3758 1.60339L63.3248 15.9962L51.4352 31L43.8148 40.7477L33 36.3087L10.9961 23.5795L4.16358 16.8156L13 0L0 0z" id="path_0"/><path fill="#4d5c73" stroke-width="1" d="M13 0C10.2935 4.05972 3.45377 11.8267 3.62037 16.8156C3.80233 22.2645 20.1761 32.7833 25 32L25 31C20.4005 30.7264 5.32539 21.0167 5.52701 15.9105C5.76217 9.95493 13.527 6.12592 13 0z" id="path_1"/><path fill="#c39a68" stroke-width="1" d="M14 0L15 1L14 0z" id="path_2"/><path fill="#c29da6" stroke-width="1" d="M15 0L4 18L5 18L10 8C13.3183 11.9397 13.9757 14.2037 12 19C15.5232 16.7156 15.3669 4.15881 15 0z" id="path_3"/><path fill="#c39a68" stroke-width="1" d="M16 0L17 1L16 0z" id="path_4"/><path fill="#4d5c73" stroke-width="1" d="M17 0C13.5912 4.71582 10.9444 18.0005 16 22L14 20L14 19C16.8403 15.2502 16.2998 11.2314 13 8L13 7L17 0z" id="path_5"/><path fill="#385e99" stroke-width="1" d="M13 7L13 8C15.8704 11.9948 16.3261 14.6122 14 19L14 20L21 23L27 12C17.7467 12.7845 21.578 5.61835 26 2C19.4377 -1.14423 16.9713 1.79233 13 7z" id="path_6"/><path fill="#4d5c73" stroke-width="1" d="M23 0L23 1L24 3L24 4L30 7L30 8C25.7288 10.5375 22.0758 12.5702 21 6L20 6C20.4249 11.5692 22.8161 12.5625 28 13L31 4L30 4L31 7L30 7L23 0z" id="path_7"/><path fill="#c29da6" stroke-width="1" d="M25 0L25 1L33 5L33 4L25 0z" id="path_8"/><path fill="#4d5c73" stroke-width="1" d="M28 0L28 1C31.5478 3.04858 33.7889 3.87201 36 0L35 0L34 0L34 3L28 0z" id="path_9"/><path fill="#385e99" stroke-width="1" d="M30 0L35 2L30 0z" id="path_10"/><path fill="#c39a68" stroke-width="1" d="M36 0C33.7044 3.51489 25.6437 11.5352 30 15L30 14L28 13L33 10L32 7L35 7L34 4L37 4L39 1L36 0z" id="path_11"/><path fill="#4d5c73" stroke-width="1" d="M39 0L38 2L40 2L39 0z" id="path_12"/><path fill="#385e99" stroke-width="1" d="M40 0L29 18L30 18L42 0L40 0z" id="path_13"/><path fill="#4d5c73" stroke-width="1" d="M42 0L30 18L29 18L30 15L29 15L21 29C27.5449 26.8768 41.7711 6.82507 42 0z" id="path_14"/><path fill="#c29da6" stroke-width="1" d="M43 0L25 28L38 9L44 12C43.192 15.9112 43.3918 18.0048 47 20L45 11C41.6286 9.20309 41.2101 7.69867 42 4L60 15L60 14C54.8315 10.6199 43.1663 7.5979 45 0L43 0z" id="path_15"/><path fill="#c39a68" stroke-width="1" d="M45 0L44 2L45 0z" id="path_16"/><path fill="#4d5c73" stroke-width="1" d="M44 5L48 7L45 2L51 1C47.1937 -0.429016 45.1139 1.32977 44 5z" id="path_17"/><path fill="#385e99" stroke-width="1" d="M45 2C47.8697 7.83453 54.7851 10.8922 61 12L63 8C58.2098 7.03006 55.761 4.88742 55 0L45 2z" id="path_18"/><path fill="#c39a68" stroke-width="1" d="M55 0L55 3L56 3L55 0z" id="path_19"/><path fill="#c29da6" stroke-width="1" d="M56 0C56.3002 3.86435 57.0892 5.3483 61 6L61 5L56 0z" id="path_20"/><path fill="#c39a68" stroke-width="1" d="M57 0L57 3L58 3L57 0z" id="path_21"/><path fill="#4d5c73" stroke-width="1" d="M58 0C58.5146 2.97568 60.2767 5.86942 63 3L58 0z" id="path_22"/><path fill="#c29da6" stroke-width="1" d="M62 3C62 -0.90921 64.5083 3.34604 65 5C68.4866 -1.25027 57.1016 0.24881 62 3z" id="path_23"/><path fill="#c39a68" stroke-width="1" d="M64 0L65 1L64 0z" id="path_24"/><path fill="#4d5c73" stroke-width="1" d="M65 0C65.3891 4.5903 63.4346 6.30707 59 7L59 8L63 8L61 12L56 11L56 12L61 14L69 0L65 0z" id="path_25"/><path fill="#385e99" stroke-width="1" d="M66.6667 0.333344L67.3333 0.666656L66.6667 0.333344z" id="path_26"/><path fill="#c39a68" stroke-width="1" d="M69 0L70 1L69 0z" id="path_27"/><path fill="#c29da6" stroke-width="1" d="M70 0L58 21C62.3401 17.6312 70.5238 5.5712 70 0z" id="path_28"/><path fill="#c39a68" stroke-width="1" d="M71 0L72 1L71 0z" id="path_29"/><path fill="#4d5c73" stroke-width="1" d="M72 0L73 1L72 0z" id="path_30"/><path fill="#c29da6" stroke-width="1" d="M37 1L36 3L37 1z" id="path_31"/><path fill="#c39a68" stroke-width="1" d="M42.3333 1.66666L42.6667 2.33334L42.3333 1.66666M61 1L63 5L58 6C63.0786 8.05627 67.1079 3.03009 61 1z" id="path_32"/><path fill="#4d5c73" stroke-width="1" d="M71 1L72 2L71 1z" id="path_33"/><path fill="#c39a68" stroke-width="1" d="M13 2L14 3L13 2M30 2L31 3L30 2z" id="path_34"/><path fill="#6fa5d7" stroke-width="1" d="M37 2L38 3L37 2z" id="path_35"/><path fill="#4d5c73" stroke-width="1" d="M70 2L68 7L69 7L70 2z" id="path_36"/><path fill="#c39a68" stroke-width="1" d="M12 3L13 4L12 3M14 3L15 4L14 3M29 3L30 4L29 3z" id="path_37"/><path fill="#c29da6" stroke-width="1" d="M35 3L34 6L35 3z" id="path_38"/><path fill="#4d5c73" stroke-width="1" d="M37 3L38 4L37 3z" id="path_39"/><path fill="#c39a68" stroke-width="1" d="M41 3L42 4L41 3M43 3L44 4L43 3z" id="path_40"/><path fill="#4d5c73" stroke-width="1" d="M55.3333 3.66666L55.6667 4.33334L55.3333 3.66666z" id="path_41"/><path fill="#c39a68" stroke-width="1" d="M61 3L62 4L61 3M67.3333 3.66666L67.6667 4.33334L67.3333 3.66666M69 3L70 4L69 3z" id="path_42"/><path fill="#4d5c73" stroke-width="1" d="M21.6667 4.33334L22.3333 4.66666L21.6667 4.33334z" id="path_43"/><path fill="#c39a68" stroke-width="1" d="M23 4L24 5L23 4z" id="path_44"/><path fill="#c29da6" stroke-width="1" d="M28 5C15.83 4.08517 27.0408 17.5724 28 5z" id="path_45"/><path fill="#c39a68" stroke-width="1" d="M25.6667 4.33334L26.3333 4.66666L25.6667 4.33334z" id="path_46"/><path fill="#385e99" stroke-width="1" d="M29 4L31 7L29 4z" id="path_47"/><path fill="#4d5c73" stroke-width="1" d="M36 4L37 5L36 4z" id="path_48"/><path fill="#c39a68" stroke-width="1" d="M40 4L41 5L40 4M42 4L41 6L42 4M58.6667 4.33334L59.3333 4.66666L58.6667 4.33334z" id="path_49"/><path fill="#6fa5d7" stroke-width="1" d="M81 5L86 8C84.9996 4.96405 84.1372 4.50565 81 5z" id="path_50"/><path fill="#c39a68" stroke-width="1" d="M13 5L14 6L13 5z" id="path_51"/><path fill="#6fa5d7" stroke-width="1" d="M21 5L22 6L21 5z" id="path_52"/><path fill="#4d5c73" stroke-width="1" d="M35.3333 5.66666L35.6667 6.33334L35.3333 5.66666M42 5L40 9L57 18L57 17L42 7L48 10L48 9L42 5z" id="path_53"/><path fill="#c39a68" stroke-width="1" d="M45 5L46 6L45 5z" id="path_54"/><path fill="#4d5c73" stroke-width="1" d="M56 5L57 6L56 5z" id="path_55"/><path fill="#c29da6" stroke-width="1" d="M63 5L64 6L63 5z" id="path_56"/><path fill="#c39a68" stroke-width="1" d="M66 5L67 6L66 5M12 6L13 7L12 6M22 6L23 7L22 6z" id="path_57"/><path fill="#4d5c73" stroke-width="1" d="M22 7L23 10L27 9L27 7L22 7z" id="path_58"/><path fill="#c39a68" stroke-width="1" d="M26 6L27 7L26 6z" id="path_59"/><path fill="#c29da6" stroke-width="1" d="M33 6L34 7L33 6z" id="path_60"/><path fill="#c39a68" stroke-width="1" d="M44 6L45 7L44 6M46 6L47 7L46 6z" id="path_61"/><path fill="#4d5c73" stroke-width="1" d="M57 6L58 7L57 6z" id="path_62"/><path fill="#385e99" stroke-width="1" d="M24 7L24 9L26 9L24 7z" id="path_63"/><path fill="#c39a68" stroke-width="1" d="M28 7L29 8L28 7z" id="path_64"/><path fill="#385e99" stroke-width="1" d="M29 7L30 8L29 7z" id="path_65"/><path fill="#c29da6" stroke-width="1" d="M32.3333 7.66666L32.6667 8.33334L32.3333 7.66666z" id="path_66"/><path fill="#4d5c73" stroke-width="1" d="M34 7L33 10L34 7z" id="path_67"/><path fill="#385e99" stroke-width="1" d="M42 7L58 18C55.0568 12.2431 47.8907 9.14365 42 7z" id="path_68"/><path fill="#6fa5d7" stroke-width="1" d="M45 7L46 8L45 7z" id="path_69"/><path fill="#c39a68" stroke-width="1" d="M48 7L49 8L48 7z" id="path_70"/><path fill="#4d5c73" stroke-width="1" d="M49 7L50 8L49 7M67 7L68 8L67 7z" id="path_71"/><path fill="#c39a68" stroke-width="1" d="M10 8L13 13L14 13L10 8M22 8L23 9L22 8M37 8L38 9L37 8z" id="path_72"/><path fill="#6fa5d7" stroke-width="1" d="M50 8L51 9L50 8z" id="path_73"/><path fill="#4d5c73" stroke-width="1" d="M51 8L52 9L51 8z" id="path_74"/><path fill="#c39a68" stroke-width="1" d="M66 8L67 9L66 8M8 9L9 10L8 9M26 9L27 10L26 9z" id="path_75"/><path fill="#c29da6" stroke-width="1" d="M31 9L28 13L28 14L31 9z" id="path_76"/><path fill="#c39a68" stroke-width="1" d="M38.6667 9.33334L39.3333 9.66666L38.6667 9.33334M41 9L42 10L41 9z" id="path_77"/><path fill="#6fa5d7" stroke-width="1" d="M48 9L49 10L48 9z" id="path_78"/><path fill="#c39a68" stroke-width="1" d="M51 9L52 10L51 9z" id="path_79"/><path fill="#6fa5d7" stroke-width="1" d="M52 9L53 10L52 9z" id="path_80"/><path fill="#4d5c73" stroke-width="1" d="M53 9L54 10L53 9M66 9L67 10L66 9z" id="path_81"/><path fill="#6fa5d7" stroke-width="1" d="M76 9L70.044 31L72 46L66 45C68.8321 49.1379 75.1913 50.518 80 51L75 47C79.0521 38.0802 89.6552 37.6122 90 26L82 26L89 21L89 20L90 13L76 9M89.3333 9.66666L89.6667 10.3333L89.3333 9.66666z" id="path_82"/><path fill="#4d5c73" stroke-width="1" d="M10 10L7 17L11 19L8 16L8 15L11 11L12 11L12 18L13 18L12 10L10 10z" id="path_83"/><path fill="#c39a68" stroke-width="1" d="M21 10L22 11L21 10M27 10L28 11L27 10z" id="path_84"/><path fill="#4d5c73" stroke-width="1" d="M32 10L31 13L32 10M38 10L28 26C31.2146 23.4775 35.0809 13.6782 39.1782 13.4614C44.9877 13.1541 43.6547 23.9542 53 19C52.1236 28.3743 39.3571 37.4303 32 29C50.869 38.0137 33.1089 8.81522 32 29L27 27L39 36C44.7237 29.1275 52.8966 29.8708 55 19L46.1481 18.919L38 10z" id="path_85"/><path fill="#c39a68" stroke-width="1" d="M42 10L43 11L42 10z" id="path_86"/><path fill="#4d5c73" stroke-width="1" d="M49.6667 10.3333L50.3333 10.6667L49.6667 10.3333M54.6667 10.3333L55.3333 10.6667L54.6667 10.3333M65 10L63 17L64 17L65 10z" id="path_87"/><path fill="#385e99" stroke-width="1" d="M11 11L8 15L8 16L12 18L11 11z" id="path_88"/><path fill="#c39a68" stroke-width="1" d="M31 11L32 12L31 11M35 11L36 12L35 11M41 11L42 12L41 11z" id="path_89"/><path fill="#4d5c73" stroke-width="1" d="M51.6667 11.3333L52.3333 11.6667L51.6667 11.3333z" id="path_90"/><path fill="#c39a68" stroke-width="1" d="M62 11L63 12L62 11M64 11L65 12L64 11z" id="path_91"/><path fill="#385e99" stroke-width="1" d="M77 11C76.5584 13.9482 74.3951 17.9418 74.9823 20.8519C76.715 29.4395 85.6657 17.34 87 15L77 11z" id="path_92"/><path fill="#c39a68" stroke-width="1" d="M34 12L35 13L34 12M36 12L37 13L36 12z" id="path_93"/><path fill="#385e99" stroke-width="1" d="M28 28L32 29C33.9274 11.7543 49.2468 35.082 32 29C37.6075 38.8373 53.91 28.4225 53 19C43.7177 22.8236 46.115 14.4432 39.8711 12.8819C35.4145 11.7675 29.3934 24.8535 28 28z" id="path_94"/><path fill="#c39a68" stroke-width="1" d="M43.3333 12.6667L43.6667 13.3333L43.3333 12.6667M44 15L47 15L47 12L44 15z" id="path_95"/><path fill="#4d5c73" stroke-width="1" d="M53 12L53 13L59 18L53 12z" id="path_96"/><path fill="#c39a68" stroke-width="1" d="M57 12L58 13L57 12M63 12L62 16L63 16L63 12M8 13L9 14L8 13z" id="path_97"/><path fill="#4d5c73" stroke-width="1" d="M30.3333 13.6667L30.6667 14.3333L30.3333 13.6667z" id="path_98"/><path fill="#c29da6" stroke-width="1" d="M46 13L46 14L51 16L51 15L46 13z" id="path_99"/><path fill="#c39a68" stroke-width="1" d="M56 13L57 14L56 13M7 14L8 15L7 14z" id="path_100"/><path fill="#4d5c73" stroke-width="1" d="M26 14L21 23L17 22L17 23C21.9805 23.7374 25.8411 18.8514 26 14z" id="path_101"/><path fill="#c29da6" stroke-width="1" d="M27 14L27 17L29 16L29 15L27 14z" id="path_102"/><path fill="#4d5c73" stroke-width="1" d="M45 14L45 18L46 18C47.0139 17.1382 48.893 16.9352 47 18L47 19L51 18L51 17L45 14z" id="path_103"/><path fill="#c39a68" stroke-width="1" d="M60 14L61 17L60 14M26 15L26 20L25 20L25 18L24 18L25 21L26 21L26 15M32 15L33 16L32 15z" id="path_104"/><path fill="#6fa5d7" stroke-width="1" d="M44.3333 15.6667L44.6667 16.3333L44.3333 15.6667z" id="path_105"/><path fill="#c39a68" stroke-width="1" d="M48 15L49 16L48 15M51 15L51 19L52 19L51 15M5 16L7 18C9.04469 21.9076 12.584 24.6272 17 25L21 29L22 23L16 24L17 22L12 22L12 18C9.05014 18.9833 8.37829 19.4868 9 17L5 16z" id="path_106"/><path fill="#385e99" stroke-width="1" d="M46 16L49 18L46 16z" id="path_107"/><path fill="#c29da6" stroke-width="1" d="M52 16L57 19L57 18L52 16z" id="path_108"/><path fill="#6fa5d7" stroke-width="1" d="M53 16L54 17L53 16z" id="path_109"/><path fill="#385e99" stroke-width="1" d="M89 16L89 20L89 21C85.1401 21.1629 83.6679 22.563 82 26L90 26L89 16z" id="path_110"/><path fill="#c29da6" stroke-width="1" d="M7 17L8 18L7 17M25 17L25 20L26 20L25 17z" id="path_111"/><path fill="#c39a68" stroke-width="1" d="M59 17L60 18L59 17z" id="path_112"/><path fill="#4d5c73" stroke-width="1" d="M62 17L63 18L62 17z" id="path_113"/><path fill="#6fa5d7" stroke-width="1" d="M79 17L78 19L80 19L79 17z" id="path_114"/><path fill="#c29da6" stroke-width="1" d="M6 18L7 19L6 18M8.66667 18.3333L9.33333 18.6667L8.66667 18.3333z" id="path_115"/><path fill="#c39a68" stroke-width="1" d="M30 18L31 19L30 18M32 18L33 19L32 18M46 18L47 19L46 18z" id="path_116"/><path fill="#c29da6" stroke-width="1" d="M50 18L48 19L48 20L50 18z" id="path_117"/><path fill="#c39a68" stroke-width="1" d="M53 18L54 19L53 18M55 19L56 23L57 23L59 18L55 19z" id="path_118"/><path fill="#4d5c73" stroke-width="1" d="M61 18L62 19L61 18z" id="path_119"/><path fill="#c39a68" stroke-width="1" d="M47 19L48 20L47 19M60 19L59 21L60 19z" id="path_120"/><path fill="#c29da6" stroke-width="1" d="M23 20L21 25L25 20L23 20z" id="path_121"/><path fill="#4d5c73" stroke-width="1" d="M60 20L61 21L60 20z" id="path_122"/><path fill="#c29da6" stroke-width="1" d="M12 21L12 22L15 22L12 21z" id="path_123"/><path fill="#c39a68" stroke-width="1" d="M22 21L23 22L22 21M30 21L31 22L30 21z" id="path_124"/><path fill="#c29da6" stroke-width="1" d="M55 21L44 39L57 21L55 21z" id="path_125"/><path fill="#4d5c73" stroke-width="1" d="M58.6667 21.3333L59.3333 21.6667L58.6667 21.3333z" id="path_126"/><path fill="#c29da6" stroke-width="1" d="M10.6667 22.3333L11.3333 22.6667L10.6667 22.3333z" id="path_127"/><path fill="#385e99" stroke-width="1" d="M26 22L22 28L26 22z" id="path_128"/><path fill="#c39a68" stroke-width="1" d="M35.6667 22.3333L36.3333 22.6667L35.6667 22.3333z" id="path_129"/><path fill="#c29da6" stroke-width="1" d="M37.0502 23.1759C32.7869 22.745 32.9333 28.8865 37.0008 29.338C41.5526 29.8432 41.0164 23.5768 37.0502 23.1759z" id="path_130"/><path fill="#c39a68" stroke-width="1" d="M38 22L39 23L38 22M54 22L55 23L54 22z" id="path_131"/><path fill="#4d5c73" stroke-width="1" d="M57 22L58 23L57 22z" id="path_132"/><path fill="#c29da6" stroke-width="1" d="M16.6667 23.3333L17.3333 23.6667L16.6667 23.3333z" id="path_133"/><path fill="#c39a68" stroke-width="1" d="M23 23L24 24L23 23M27 23L28 24L27 23M39 23L40 24L39 23z" id="path_134"/><path fill="#4d5c73" stroke-width="1" d="M56 23L57 24L56 23z" id="path_135"/><path fill="#c29da6" stroke-width="1" d="M15 24L16 25L15 24z" id="path_136"/><path fill="#c39a68" stroke-width="1" d="M28 24L29 25L28 24z" id="path_137"/><path fill="#6fa5d7" stroke-width="1" d="M33 24L34 25L33 24z" id="path_138"/><path fill="#4d5c73" stroke-width="1" d="M35 24L36 28L37 28L36 25L37 25L39 28L35 24z" id="path_139"/><path fill="#c39a68" stroke-width="1" d="M38 24L39 25L38 24M40 24L41 25L40 24M54 24L55 25L54 24z" id="path_140"/><path fill="#4d5c73" stroke-width="1" d="M55 24L51 31L55 24z" id="path_141"/><path fill="#385e99" stroke-width="1" d="M73 24L72 33L79 26L73 24z" id="path_142"/><path fill="#c29da6" stroke-width="1" d="M16 25L17 26L16 25z" id="path_143"/><path fill="#385e99" stroke-width="1" d="M36 25L38 28L36 25z" id="path_144"/><path fill="#c39a68" stroke-width="1" d="M39 25L40 26L39 25M52 25L53 26L52 25M25 26L26 27L25 26M27 26L28 27L27 26z" id="path_145"/><path fill="#6fa5d7" stroke-width="1" d="M41 26L42 27L41 26z" id="path_146"/><path fill="#c39a68" stroke-width="1" d="M53 26L54 27L53 26M24 27L22 32L27 31C28.8285 33.3692 29.8854 32.9271 32 31L27 27L24 27M35 27L36 28L35 27M39 27L40 28L39 27z" id="path_147"/><path fill="#385e99" stroke-width="1" d="M80 27C68.4965 40.2227 82.5993 41.2704 88 29L80 27z" id="path_148"/><path fill="#c29da6" stroke-width="1" d="M18 28L22 31L18 28z" id="path_149"/><path fill="#c39a68" stroke-width="1" d="M36 28L36 29L39 29L36 28M50 28L51 29L50 28M18 29L19 30L18 29M35 29L36 30L35 29M39 29L40 30L39 29M49 29L50 30L49 29M51 29L52 30L51 29z" id="path_150"/><path fill="#c29da6" stroke-width="1" d="M29 30L30 31L29 30M23 31L24 32L23 31M26 31L27 32L26 31M30 31L31 32L30 31z" id="path_151"/><path fill="#4d5c73" stroke-width="1" d="M50 31L49 34L50 31z" id="path_152"/><path fill="#6fa5d7" stroke-width="1" d="M81 31L81 33L83 33L83 31L81 31z" id="path_153"/><path fill="#4d5c73" stroke-width="1" d="M26 32L27 33L26 32z" id="path_154"/><path fill="#c29da6" stroke-width="1" d="M30 33L36 35L38 39L39 39L34 35L33 32L30 33z" id="path_155"/><path fill="#c39a68" stroke-width="1" d="M41 32L39 34C38.1639 40.4016 43.0356 41.376 47 37L44 39L45 37L44 37L41 38L41 32z" id="path_156"/><path fill="#c29da6" stroke-width="1" d="M42 32L42 33L46 33L42 32z" id="path_157"/><path fill="#c39a68" stroke-width="1" d="M46 32L45 36L46 36L48 32L46 32M49 32L50 33L49 32z" id="path_158"/><path fill="#4d5c73" stroke-width="1" d="M27.6667 33.3333L28.3333 33.6667L27.6667 33.3333z" id="path_159"/><path fill="#c39a68" stroke-width="1" d="M34.3333 33.6667L34.6667 34.3333L34.3333 33.6667z" id="path_160"/><path fill="#c29da6" stroke-width="1" d="M40 33L40 35L42 33L40 33z" id="path_161"/><path fill="#4d5c73" stroke-width="1" d="M41 38L46 33L41 38M29 34L29 35L33 36L33 35L29 34z" id="path_162"/><path fill="#c39a68" stroke-width="1" d="M31 34L32 35L31 34M36 34L37 35L36 34z" id="path_163"/><path fill="#385e99" stroke-width="1" d="M42 37L45 34L42 37z" id="path_164"/><path fill="#c39a68" stroke-width="1" d="M48 34L49 35L48 34M35 35L37 38L35 35M37 35L38 36L37 35z" id="path_165"/><path fill="#4d5c73" stroke-width="1" d="M48 35L49 36L48 35M33.6667 36.3333L34.3333 36.6667L33.6667 36.3333M47.3333 36.6667L47.6667 37.3333L47.3333 36.6667M35 37L36 38L35 37M36.6667 38.3333L37.3333 38.6667L36.6667 38.3333M46 38L47 39L46 38M89 38L90 39L89 38M38 39L39 40L38 39M45 39L39 40L39 41C41.4402 41.5785 45.5862 42.5517 45 39M50 42L51 42L55 40L55 44L50 43C53.4402 46.8792 55.7177 42.6229 56 39L50 42z" id="path_166"/><path fill="#c29da6" stroke-width="1" d="M89 39L89 42L90 42L89 39M41 40L42 41L41 40M43.6667 40.3333L44.3333 40.6667L43.6667 40.3333z" id="path_167"/><path fill="#c39a68" stroke-width="1" d="M50 43L55 44L55 40L50 43z" id="path_168"/><path fill="#4d5c73" stroke-width="1" d="M88.3333 40.6667L88.6667 41.3333L88.3333 40.6667M89 42L86 56L76 58L76 59L88 56L89 42z" id="path_169"/><path fill="#c29da6" stroke-width="1" d="M88 45L88 56C82.5319 57.265 71.0049 58.2787 69 64L89 61L90 61L90 45L88 45z" id="path_170"/><path fill="#4d5c73" stroke-width="1" d="M59 55C57.9854 50.5551 59.5551 48.9854 64 50C60.2786 44.8205 54.0259 50.1066 59 55z" id="path_171"/><path fill="#c39a68" stroke-width="1" d="M60.1705 49.0602C57.0854 49.6385 57.5835 54.5483 60.8295 53.9398C63.9146 53.3615 63.4165 48.4517 60.1705 49.0602z" id="path_172"/><path fill="#4d5c73" stroke-width="1" d="M63.3333 52.6667L63.6667 53.3333L63.3333 52.6667M51 57L51 56L47 57L47 54L51 55C46.7729 52.1131 45.3651 57.8691 51 57z" id="path_173"/><path fill="#c39a68" stroke-width="1" d="M47 54L47 57L51 56L47 54z" id="path_174"/><path fill="#4d5c73" stroke-width="1" d="M61.6667 54.3333L62.3333 54.6667L61.6667 54.3333z" id="path_175"/><path fill="#c39a68" stroke-width="1" d="M89 56L90 57L89 56z" id="path_176"/><path fill="#4d5c73" stroke-width="1" d="M10 58L12 63L10 58z" id="path_177"/><path fill="#c29da6" stroke-width="1" d="M11 58L13 62L13 58L11 58z" id="path_178"/><path fill="#4d5c73" stroke-width="1" d="M13 58L13 62L14 62L13 58M71 59L71 60L75 60L71 59M86 59L86 60L89 61L86 59M70 60L71 61L70 60M83.6667 60.3333L84.3333 60.6667L83.6667 60.3333M68 61L69 62L68 61M79 61L79 62L83 62L79 61M89 61L90 62L89 61M60.6667 62.3333L61.3333 62.6667L60.6667 62.3333z" id="path_179"/><path fill="#c29da6" stroke-width="1" d="M55 66C59.402 68.9859 63.3489 67.2987 66 63L55 66z" id="path_180"/><path fill="#4d5c73" stroke-width="1" d="M63 62L63 63L66 63L63 62z" id="path_181"/><path fill="#6fa5d7" stroke-width="1" d="M68.3333 62.6667L68.6667 63.3333L68.3333 62.6667z" id="path_182"/><path fill="#c39a68" stroke-width="1" d="M75 62L76 63L75 62z" id="path_183"/><path fill="#4d5c73" stroke-width="1" d="M76 62L76 63L79 63L76 62M58 63L59 64L58 63M66 63L65 66L66 63M68 64L68 65L76 64L68 64M56.6667 64.3333L57.3333 64.6667L56.6667 64.3333z" id="path_184"/><path fill="#c39a68" stroke-width="1" d="M61.6667 64.3333L62.3333 64.6667L61.6667 64.3333z" id="path_185"/><path fill="#4d5c73" stroke-width="1" d="M55 65L56 66L55 65z" id="path_186"/><path fill="#c39a68" stroke-width="1" d="M59 65L60 66L59 65z" id="path_187"/><path fill="#4d5c73" stroke-width="1" d="M60.6667 65.3333L61.3333 65.6667L60.6667 65.3333M62 68L65 66L62 68M55 67L56 68L55 67z" id="path_188"/><path fill="#c39a68" stroke-width="1" d="M56 67L57 68L56 67z" id="path_189"/><path fill="#4d5c73" stroke-width="1" d="M57 68L57 69L61 69L57 68M23 76L21 72L26 73L24 76C31.1091 70.6617 15.4157 70.9812 23 76z" id="path_190"/><path fill="#c29da6" stroke-width="1" d="M21 72L23 76L24 76L26 73L21 72z" id="path_191"/><path fill="#4d5c73" stroke-width="1" d="M83 73L83 74L90 73L83 73z" id="path_192"/><path fill="#c29da6" stroke-width="1" d="M74 78L74 79C79.3181 78.757 86.8341 77.6255 90 73L74 78z" id="path_193"/><path fill="#4d5c73" stroke-width="1" d="M80.6667 74.3333L81.3333 74.6667L80.6667 74.3333M0 75L1 76L0 75M78.6667 75.3333L79.3333 75.6667L78.6667 75.3333M85 76L85 77L90 76L85 76z" id="path_194"/><path fill="#c29da6" stroke-width="1" d="M0 76L1 77L0 76z" id="path_195"/><path fill="#6fa5d7" stroke-width="1" d="M1 76L0 78L1 76M8 76L5 87L10 86L12 92L13 92L20 85L18 76L8 76z" id="path_196"/><path fill="#4d5c73" stroke-width="1" d="M15 76L16 77L15 76M18.3333 76.6667L18.6667 77.3333L18.3333 76.6667M36 76L39 80L40 77L36 76M75 76L75 77L78 77L75 76M1 77L2 78L1 77M11 77L12 78L11 77M12 79L15 77L12 79z" id="path_197"/><path fill="#c29da6" stroke-width="1" d="M37.6667 77.3333L38.3333 77.6667L37.6667 77.3333z" id="path_198"/><path fill="#4d5c73" stroke-width="1" d="M55 84L60 85L60 84L56 84L56 83L69 79C63.916 76.3289 58.3619 80.0782 55 84M73 77L73 80L74 80L75 77L73 77M82 77L82 78L85 78L82 77M8 78L8 81L9 81L8 78z" id="path_199"/><path fill="#6fa5d7" stroke-width="1" d="M38 78L39 79L38 78z" id="path_200"/><path fill="#4d5c73" stroke-width="1" d="M79 78L79 79L82 79L79 78M17 79L17 83L18 83L17 79z" id="path_201"/><path fill="#6fa5d7" stroke-width="1" d="M34 89C30.0024 100.763 16.7069 111.544 9.64198 122C7.4591 125.231 3.21235 128.968 2.74228 133C2.09926 138.516 8.9674 141.769 13 143.741C26.5094 150.347 37.5045 149.622 52 149C51.9975 126.581 52.2224 100.936 47 79L34 89z" id="path_202"/><path fill="#c29da6" stroke-width="1" d="M56 83L56 84C61.9605 84.7039 66.9023 84.9355 71 80C65.2757 78.3244 61.0034 80.0941 56 83z" id="path_203"/><path fill="#6fa5d7" stroke-width="1" d="M70 79L71 80L70 79M74.6667 79.3333L75.3333 79.6667L74.6667 79.3333z" id="path_204"/><path fill="#4d5c73" stroke-width="1" d="M76 79L76 80L79 80L76 79z" id="path_205"/><path fill="#c39a68" stroke-width="1" d="M14 80L14 82L16 80L14 80M66 80L67 81L66 80z" id="path_206"/><path fill="#4d5c73" stroke-width="1" d="M71 80L72 81L71 80M61 82L61 83L68 82L61 82M70 81L71 82L70 81M8 82L9 83L8 82M69 82L70 83L69 82M7 83L8 84L7 83M18 83L19 84L18 83z" id="path_207"/><path fill="#385e99" stroke-width="1" d="M44 83C36.4491 90.0439 25.0964 100.532 20.8356 110C18.9117 114.275 23.4847 118.554 20.2539 122.602C16.0956 127.811 8.56183 123.247 5.2338 131.001C1.66621 139.313 19.2922 146.299 25 144C26.6319 148.641 31.6874 148.197 36 149C34.6752 142.457 30.6238 140.021 25 144C33.0227 134.014 36.8291 152.958 47.6821 147.262C55.8546 142.972 34.3452 132.237 50 129L48.1373 105.09L42.1752 94.9992L44 83z" id="path_208"/><path fill="#4d5c73" stroke-width="1" d="M68 83L69 84L68 83M5.33333 84.6667L5.66667 85.3333L5.33333 84.6667z" id="path_209"/><path fill="#c39a68" stroke-width="1" d="M12 87L13 87L14 87L15 85L12 87z" id="path_210"/><path fill="#4d5c73" stroke-width="1" d="M63 84L63 85L68 85L63 84M19 85L20 86L19 85M4 86L5 87L4 86M9 86L10 87L9 86M4 88L4 89L8 87L4 88M10 87L11 88L10 87M14.3333 87.6667L14.6667 88.3333L14.3333 87.6667M32 88L32 93L33 93L34 89L32 88z" id="path_211"/><path fill="#c29da6" stroke-width="1" d="M4 89L4 92L8 92L8 89L4 89M32 89L32 92L34 92L34 89L32 89z" id="path_212"/><path fill="#4d5c73" stroke-width="1" d="M3.33333 90.6667L3.66667 91.3333L3.33333 90.6667M11.3333 90.6667L11.6667 91.3333L11.3333 90.6667M13 90L14 91L13 90z" id="path_213"/><path fill="#385e99" stroke-width="1" d="M45 90C42.625 94.5506 43.3183 97.6385 48 100L45 90z" id="path_214"/><path fill="#4d5c73" stroke-width="1" d="M4 92L4 93L8 93L4 92M89 92L83 94L83 95L90 93L89 92z" id="path_215"/><path fill="#c29da6" stroke-width="1" d="M89 93C84.9343 94.9949 80.8662 95.0111 80 100L90 97L89 93z" id="path_216"/><path fill="#4d5c73" stroke-width="1" d="M80.6667 95.3333L81.3333 95.6667L80.6667 95.3333M79 96L79 100L80 100L79 96M69.6667 97.3333L70.3333 97.6667L69.6667 97.3333z" id="path_217"/><path fill="#c29da6" stroke-width="1" d="M65 102C70.1544 102.426 73.5743 102.15 77 98C72.1921 96.9684 67.8214 97.6968 65 102z" id="path_218"/><path fill="#4d5c73" stroke-width="1" d="M75 97L75 98L78 99L75 97M87 97L87 98L90 98L87 97M67 98L68 99L67 98z" id="path_219"/><path fill="#6fa5d7" stroke-width="1" d="M68 98L69 99L68 98z" id="path_220"/><path fill="#4d5c73" stroke-width="1" d="M85.6667 98.3333L86.3333 98.6667L85.6667 98.3333M17 99C18.1195 101.608 19.3415 102.068 20 99L19 99L17 99z" id="path_221"/><path fill="#c29da6" stroke-width="1" d="M18.3333 99.6667L18.6667 100.333L18.3333 99.6667z" id="path_222"/><path fill="#4d5c73" stroke-width="1" d="M64 102L65 102L67 100C64.6872 98.8835 63.9877 99.6095 64 102M69 100L69 101L73 100L69 100z" id="path_223"/><path fill="#c39a68" stroke-width="1" d="M73 99L74 100L73 99z" id="path_224"/><path fill="#4d5c73" stroke-width="1" d="M76 99L75 101L77 101L76 99M83.6667 99.3333L84.3333 99.6667L83.6667 99.3333z" id="path_225"/><path fill="#6fa5d7" stroke-width="1" d="M64 100L65 101L64 100z" id="path_226"/><path fill="#4d5c73" stroke-width="1" d="M80 100L80 101L83 101L80 100M74 101L75 102L74 101z" id="path_227"/><path fill="#6fa5d7" stroke-width="1" d="M30 102L31 107L34 102L30 102z" id="path_228"/><path fill="#4d5c73" stroke-width="1" d="M65 102L65 103L69 103L65 102M70 102L70 103L74 103L70 102z" id="path_229"/><path fill="#385e99" stroke-width="1" d="M31.3333 103.667L31.6667 104.333L31.3333 103.667z" id="path_230"/><path fill="#6fa5d7" stroke-width="1" d="M35.0579 111.916C27.956 114.029 30.4924 126.342 37.9568 124.288C45.9993 122.075 44.2041 109.195 35.0579 111.916z" id="path_231"/><path fill="#385e99" stroke-width="1" d="M34.4344 114.068C29.9594 116.862 33.8196 124.687 38.7253 121.928C44.1931 118.853 39.6801 110.793 34.4344 114.068M12 123C18.228 124.64 21.2517 121.083 20 115L12 123z" id="path_232"/><path fill="#6fa5d7" stroke-width="1" d="M90 154C84.366 154.445 79.219 155.823 74.0008 152.772C64.5507 147.245 58.547 128.222 69.0548 120.703C75.2812 116.248 83.0449 118.701 90 119L90 116C84.6791 115.328 79.3734 114.498 74 115.301C56.24 117.954 57.7078 145.648 70.0432 154.297C74.7361 157.587 86.5374 159.341 90 154z" id="path_233"/><path fill="#385e99" stroke-width="1" d="M90 154L90 119C83.0601 118.452 74.2465 116.047 68.1335 120.703C59.2393 127.477 64.0237 146.695 72.0154 152.146C77.6376 155.981 83.7096 154.795 90 154z" id="path_234"/><path fill="#6fa5d7" stroke-width="1" d="M77 124L81 124L71 131L84 127C82.9181 123.358 79.8628 119.913 77 124M12.1582 132.047C7.6553 134.611 11.0584 141.565 15.571 138.777C19.6931 136.23 16.9561 129.315 12.1582 132.047z" id="path_235"/><path fill="#385e99" stroke-width="1" d="M50 139L50 131C43.1134 131.55 44.1358 137.257 50 139M11 138C20.1818 136.536 12.4644 128.818 11 138z" id="path_236"/><path fill="#6fa5d7" stroke-width="1" d="M34 133L38 138C38.1385 134.558 37.4025 133.593 34 133z" id="path_237"/><path fill="#385e99" stroke-width="1" d="M35 134L35 136L37 136L37 134L35 134z" id="path_238"/><path fill="#4d5c73" stroke-width="1" d="M49 155L49 156L53 156L49 155M62 154L63 155L62 154z" id="path_239"/><path fill="#6fa5d7" stroke-width="1" d="M50 155L50 160L52 160L52 155L50 155z" id="path_240"/><path fill="#4d5c73" stroke-width="1" d="M60 155L61 156L60 155z" id="path_241"/><path fill="#6fa5d7" stroke-width="1" d="M61.5787 156.082C59.1665 157.893 61.936 161.747 64.3719 159.918C66.6939 158.175 63.9702 154.286 61.5787 156.082z" id="path_242"/><path fill="#4d5c73" stroke-width="1" d="M65 156L66 157L65 156M48.3333 157.667L48.6667 158.333L48.3333 157.667z" id="path_243"/><path fill="#c39a68" stroke-width="1" d="M50 157L51 158L50 157z" id="path_244"/><path fill="#4d5c73" stroke-width="1" d="M53.3333 157.667L53.6667 158.333L53.3333 157.667M49 159L50 160L49 159M52 159L53 160L52 159M50.6667 160.333L51.3333 160.667L50.6667 160.333M60 160L61 161L60 160M65 160L66 161L65 160M61 161L61 162L64 162L61 161z" id="path_245"/><path fill="#6fa5d7" stroke-width="1" d="M86 162L78 167L77 176L87 178L90 168L86 162M56 169L56 170L60 168L56 169z" id="path_246"/><path fill="#4d5c73" stroke-width="1" d="M56 170L57 171L56 170M59 170L60 171L59 170M58 171L59 172L58 171z" id="path_247"/><path fill="#6fa5d7" stroke-width="1" d="M37 173L40 176L37 173M3 182C6.28525 189.733 3.78984 191.38 2 199L13 196L17 203L19 203C21.452 194.708 20.749 191.157 30 188L30 186L19 183L20 174L3 182M68 179L70 181L70 179L68 179M52 181L52 183L57 183L57 181L52 181z" id="path_248"/><path fill="#4d5c73" stroke-width="1" d="M89 191L88 197L89 197L89 191z" id="path_249"/><path fill="#6fa5d7" stroke-width="1" d="M69 192L69 195L72 194L72 193L69 192M34 193L34 195L36 195L36 193L34 193z" id="path_250"/><path fill="#c29da6" stroke-width="1" d="M89 195C84.1725 209.264 61.7713 207.946 51.2631 214.314C47.4737 216.61 46.1252 221.917 43 225C47.9011 234.963 87.6904 245.905 90 231L89 231C84.3986 237.694 73.9603 237.184 68 232L67 232L66 232L66 234L45 227L51 216L90 223C88.971 218.198 64.4364 216.023 59 216L59 214L90 217C87.95 210.823 78.3894 213 73 213C75.2566 208.516 80.9902 205.158 86 205L86 207L80 209L80 210L90 211L89 195z" id="path_251"/><path fill="#c39a68" stroke-width="1" d="M88 197L89 198L88 197z" id="path_252"/><path fill="#4d5c73" stroke-width="1" d="M87.3333 198.667L87.6667 199.333L87.3333 198.667M83 200L83 201L87 201L83 200M81.6667 201.333L82.3333 201.667L81.6667 201.333z" id="path_253"/><path fill="#c39a68" stroke-width="1" d="M85 201L86 202L85 201z" id="path_254"/><path fill="#4d5c73" stroke-width="1" d="M79.6667 202.333L80.3333 202.667L79.6667 202.333z" id="path_255"/><path fill="#6fa5d7" stroke-width="1" d="M43 204L44 207L46 207L47 203L43 204z" id="path_256"/><path fill="#4d5c73" stroke-width="1" d="M76 203L76 204L79 204L76 203M74.6667 204.333L75.3333 204.667L74.6667 204.333M73 213L90 214C87.5433 210.088 83.3834 209.623 79 210L79 209L85 208L85 204C80.3714 205.3 74.4412 208.247 73 213M89 204L89 209L90 209L89 204M72 205L71 210L72 210L74 205L72 205z" id="path_257"/><path fill="#385e99" stroke-width="1" d="M82 205L82 207L84 207L84 205L82 205z" id="path_258"/><path fill="#c39a68" stroke-width="1" d="M85.3333 205.667L85.6667 206.333L85.3333 205.667z" id="path_259"/><path fill="#4d5c73" stroke-width="1" d="M21 207L22 208L21 207z" id="path_260"/><path fill="#385e99" stroke-width="1" d="M89 207L90 208L89 207z" id="path_261"/><path fill="#4d5c73" stroke-width="1" d="M8 208L9 209L8 208z" id="path_262"/><path fill="#6fa5d7" stroke-width="1" d="M9 208L7 212L12 212L11 208L9 208z" id="path_263"/><path fill="#4d5c73" stroke-width="1" d="M19 208L20 209L19 208z" id="path_264"/><path fill="#6fa5d7" stroke-width="1" d="M20 215C28.3293 211.65 17.3179 204.929 20 215z" id="path_265"/><path fill="#4d5c73" stroke-width="1" d="M23 208L24 209L23 208M28 213L27 224L39 226C39.3552 221.331 41.1669 219.518 45 217L39 213L38 208L28 213z" id="path_266"/><path fill="#6fa5d7" stroke-width="1" d="M60.6667 208.333L61.3333 208.667L60.6667 208.333z" id="path_267"/><path fill="#4d5c73" stroke-width="1" d="M11 209L12 210L11 209z" id="path_268"/><path fill="#c39a68" stroke-width="1" d="M21 209L21 213L22 213L23 209L21 209M37 209L34 214L29 214L28 222L38 225L43 215L37 209z" id="path_269"/><path fill="#385e99" stroke-width="1" d="M74 212L83 212C79.7367 210.069 76.4053 208.439 74 212z" id="path_270"/><path fill="#6fa5d7" stroke-width="1" d="M79 209L80 210L79 209z" id="path_271"/><path fill="#4d5c73" stroke-width="1" d="M7 210L8 211L7 210M18 210L18 213L19 213L18 210M24 210L24 213L25 213L24 210M64 210L64 211L70 211L64 210z" id="path_272"/><path fill="#c39a68" stroke-width="1" d="M87.6667 210.333L88.3333 210.667L87.6667 210.333M8 211L9 212L8 211z" id="path_273"/><path fill="#4d5c73" stroke-width="1" d="M60 211L60 212L64 212L60 211z" id="path_274"/><path fill="#6fa5d7" stroke-width="1" d="M89 211L90 212L89 211z" id="path_275"/><path fill="#4d5c73" stroke-width="1" d="M7 212L8 213L7 212M54 212L54 213L58 213L54 212M8 213L8 214L11 214L8 213z" id="path_276"/><path fill="#c29da6" stroke-width="1" d="M29 213L30 214L29 213z" id="path_277"/><path fill="#4d5c73" stroke-width="1" d="M51.6667 213.333L52.3333 213.667L51.6667 213.333M59 214L59 215L67 217L67 216L65 214C67.0346 214.054 73.9644 216.338 69 217L69 218L90 220C88.2618 214.759 81.8361 215.1 77 215L77 216L89 218L89 219L75 218C74.0424 211.432 63.589 213.857 59 214M19 214L20 215L19 214M22 214L23 215L22 214M49 214L50 215L49 214z" id="path_278"/><path fill="#385e99" stroke-width="1" d="M65 214L72 217L65 214z" id="path_279"/><path fill="#4d5c73" stroke-width="1" d="M48 215L48 218L49 218L48 215z" id="path_280"/><path fill="#c39a68" stroke-width="1" d="M59 215L60 216L59 215M51 216L52 217L51 216z" id="path_281"/><path fill="#385e99" stroke-width="1" d="M75 217L75 218L89 219C85.0179 215.867 79.7624 215.605 75 217z" id="path_282"/><path fill="#4d5c73" stroke-width="1" d="M52 230L52 229L47 227C50.4738 218.72 53.6748 218.344 62 219C51.9171 213.639 40.4432 225.927 52 230z" id="path_283"/><path fill="#c39a68" stroke-width="1" d="M68 217L69 218L68 217z" id="path_284"/><path fill="#4d5c73" stroke-width="1" d="M47 218L48 219L47 218z" id="path_285"/><path fill="#385e99" stroke-width="1" d="M47 227C54.119 231.047 60.9497 232.494 69 231C72.0425 235.694 80.827 234.986 86 235L85 230C88.629 229.395 92.1492 225.138 86.8519 223.434C82.9024 222.163 78.7304 223.836 75 225C71.313 214.513 49.9895 216.654 47 227z" id="path_286"/><path fill="#4d5c73" stroke-width="1" d="M46 219L45 223L46 223L46 219M63 219L63 220L67 220L63 219M67 220L67 221L73 221L67 220M15 221L14 224L15 224L15 221z" id="path_287"/><path fill="#6fa5d7" stroke-width="1" d="M16 221L18 225L18 221L16 221z" id="path_288"/><path fill="#4d5c73" stroke-width="1" d="M73 221L73 222L75 225L76 225L87 223L73 221M18.3333 222.667L18.6667 223.333L18.3333 222.667z" id="path_289"/><path fill="#c29da6" stroke-width="1" d="M28 222L29 223L28 222z" id="path_290"/><path fill="#6fa5d7" stroke-width="1" d="M66 222L67 223L66 222z" id="path_291"/><path fill="#c29da6" stroke-width="1" d="M67 222L66 224L68 224L67 222z" id="path_292"/><path fill="#4d5c73" stroke-width="1" d="M68.3333 222.667L68.6667 223.333L68.3333 222.667z" id="path_293"/><path fill="#6fa5d7" stroke-width="1" d="M87 222L88 223L87 222z" id="path_294"/><path fill="#4d5c73" stroke-width="1" d="M44 223L43 225L44 223M53 223C52.9831 226.302 55.3264 226.127 56 223L55 223L53 225L53 223z" id="path_295"/><path fill="#6fa5d7" stroke-width="1" d="M54 223L55 224L54 223z" id="path_296"/><path fill="#4d5c73" stroke-width="1" d="M65 223L66 224L65 223z" id="path_297"/><path fill="#c29da6" stroke-width="1" d="M76 223L76 225L78 223L76 223z" id="path_298"/><path fill="#4d5c73" stroke-width="1" d="M88.6667 223.333L89.3333 223.667L88.6667 223.333z" id="path_299"/><path fill="#c39a68" stroke-width="1" d="M44 224L45 225L44 224z" id="path_300"/><path fill="#c29da6" stroke-width="1" d="M53.6667 224.333L54.3333 224.667L53.6667 224.333z" id="path_301"/><path fill="#6fa5d7" stroke-width="1" d="M66 224L67 225L66 224z" id="path_302"/><path fill="#4d5c73" stroke-width="1" d="M67 224L68 225L67 224z" id="path_303"/><path fill="#6fa5d7" stroke-width="1" d="M77 224L78 225L77 224z" id="path_304"/><path fill="#4d5c73" stroke-width="1" d="M42.3333 225.667L42.6667 226.333L42.3333 225.667z" id="path_305"/><path fill="#c39a68" stroke-width="1" d="M45 226L46 227L45 226z" id="path_306"/><path fill="#4d5c73" stroke-width="1" d="M43 227L44 228L43 227z" id="path_307"/><path fill="#c39a68" stroke-width="1" d="M46 227L47 228L46 227z" id="path_308"/><path fill="#4d5c73" stroke-width="1" d="M44 228L45 229L44 228M45 229L46 230L45 229M89 229L85 230L85 231L87 233L86 235L80 235L80 236C84.5021 235.854 89.4416 234.351 89 229M46.6667 230.333L47.3333 230.667L46.6667 230.333M53.6667 230.333L54.3333 230.667L53.6667 230.333M48.6667 231.333L49.3333 231.667L48.6667 231.333M55 231L55 232L59 232L55 231M66 231L66 232L70 234L66 231z" id="path_309"/><path fill="#c29da6" stroke-width="1" d="M85.6667 231.333L86.3333 231.667L85.6667 231.333z" id="path_310"/><path fill="#4d5c73" stroke-width="1" d="M50 232L50 233L56 234L56 233L50 232M59 232L59 233L66 234L59 232z" id="path_311"/><path fill="#6fa5d7" stroke-width="1" d="M85.6667 232.333L86.3333 232.667L85.6667 232.333z" id="path_312"/><path fill="#4d5c73" stroke-width="1" d="M57 234L57 235L63 236L57 234M71 234L71 235L78 235L71 234z" id="path_313"/><path fill="#6fa5d7" stroke-width="1" d="M63 235L64 236L63 235z" id="path_314"/><path fill="#c39a68" stroke-width="1" d="M77 235L77 236L80 236L77 235M86 235L87 236L86 235z" id="path_315"/><path fill="#4d5c73" stroke-width="1" d="M89 235L90 236L89 235M1 236L4 239L3 236L1 236M64 236L64 237L68 237L64 236M88 236L87 239L88 236z" id="path_316"/><path fill="#c29da6" stroke-width="1" d="M2 237L3 238L2 237z" id="path_317"/><path fill="#4d5c73" stroke-width="1" d="M68 237L68 238L85 239L68 237z" id="path_318"/><path fill="#6fa5d7" stroke-width="1" d="M17 287C24.9179 285.994 33.3419 285.089 41 282.792C45.5377 281.43 50.2471 279.547 54 276.61C59.5687 272.25 66.2346 265.658 65.8549 258C65.2487 245.772 46.225 234.592 35 239.005C25.3333 242.806 20.77 253.651 18.3781 263C16.2701 271.239 16.8282 278.675 17 287M86 238L87 239L86 238z" id="path_319"/><path fill="#385e99" stroke-width="1" d="M18 284C31.4719 283.422 45.6743 281.152 55.9846 271.816C60.237 267.965 64.9171 262.118 63.1806 256C59.1964 241.962 38.6349 235.188 28.4684 246.185C19.3571 256.041 18.2941 271.376 18 284z" id="path_320"/><path fill="#6fa5d7" stroke-width="1" d="M54 255L49 268C52.7099 268.14 54.2638 267.283 56 264L51 267L54 255z" id="path_321"/><path fill="#4d5c73" stroke-width="1" d="M89 269C85.1242 276.697 85.8254 281.22 89 289L90 289L89 269z" id="path_322"/><path fill="#c29da6" stroke-width="1" d="M89 271C87.7422 274.6 85.7235 279.158 89 282L89 287L90 287L89 271z" id="path_323"/><path fill="#4d5c73" stroke-width="1" d="M89 275L89 282L90 282L89 275M78 279L82 277L79 282L83 282L84 277L78 279z" id="path_324"/><path fill="#c39a68" stroke-width="1" d="M87 276L88 277L87 276z" id="path_325"/><path fill="#c29da6" stroke-width="1" d="M79 280L82 277L79 280z" id="path_326"/><path fill="#4d5c73" stroke-width="1" d="M75 278L74 282L70 281L70 282L73 282C70.5769 292.191 60.1443 295.108 51 297L51 298C60.2014 296.811 70.7391 293.585 74 284L83 288L83 287C77.4296 285.339 76.4862 283.17 75 278z" id="path_327"/><path fill="#c29da6" stroke-width="1" d="M76.3333 278.667L76.6667 279.333L76.3333 278.667z" id="path_328"/><path fill="#c39a68" stroke-width="1" d="M77 278L75 280L75 284L80 286L77 278z" id="path_329"/><path fill="#4d5c73" stroke-width="1" d="M66 280L66 281L69 281L66 280M44 295L36 292L36 293L50 297L50 296L45 296C47.5555 288.546 55.7382 284.096 63 282C55.7441 280.01 46.175 288.62 44 295z" id="path_330"/><path fill="#c39a68" stroke-width="1" d="M63.6667 281.333L64.3333 281.667L63.6667 281.333z" id="path_331"/><path fill="#c29da6" stroke-width="1" d="M56 284L56 285L71 283L65 291L65 292C69.5065 289.879 72.0107 286.903 73 282L56 284z" id="path_332"/><path fill="#c39a68" stroke-width="1" d="M67 281L68 282L67 281M69 281L70 282L69 281z" id="path_333"/><path fill="#c29da6" stroke-width="1" d="M75.3333 281.667L75.6667 282.333L75.3333 281.667M80 282L82 284L82 282L80 282z" id="path_334"/><path fill="#6fa5d7" stroke-width="1" d="M82 282L83 283L82 282z" id="path_335"/><path fill="#c39a68" stroke-width="1" d="M88 282L89 283L88 282M60 283C60.4403 285.202 62.2417 288.791 63 285L64 285C63.4312 287.787 61.7993 292.577 59 289L58 289C55.138 294.675 50.5809 294.035 45 293L45 294L58 296L67 291L67 290L67 289L64 284L71 284L60 283z" id="path_336"/><path fill="#c29da6" stroke-width="1" d="M76 283L77 284L76 283z" id="path_337"/><path fill="#4d5c73" stroke-width="1" d="M80 284L80 285L83 286L83 283L80 284M64 284L65 289L71 284L64 284z" id="path_338"/><path fill="#c39a68" stroke-width="1" d="M88 284L89 285L88 284M54 288L59 286C56.3872 284.502 54.6455 284.988 54 288z" id="path_339"/><path fill="#4d5c73" stroke-width="1" d="M59 292C62.8006 290.735 62.7681 288.688 62 285C58.2229 286.265 58.4308 288.334 59 292z" id="path_340"/><path fill="#c29da6" stroke-width="1" d="M63 285L63 289L64 289L63 285z" id="path_341"/><path fill="#385e99" stroke-width="1" d="M66 288L69 285L66 288z" id="path_342"/><path fill="#c39a68" stroke-width="1" d="M70 285L71 286L70 285z" id="path_343"/><path fill="#6fa5d7" stroke-width="1" d="M72 285L73 286L72 285z" id="path_344"/><path fill="#c29da6" stroke-width="1" d="M80 285L80 287L82 287L82 285L80 285M53 286L50 289C52.4254 288.905 53.6405 288.575 53 286M56 286L57 292L58 292L56 286z" id="path_345"/><path fill="#385e99" stroke-width="1" d="M60 286L61 290L60 286z" id="path_346"/><path fill="#6fa5d7" stroke-width="1" d="M82 286L83 287L82 286z" id="path_347"/><path fill="#4d5c73" stroke-width="1" d="M48 294L52 294L52 293L50 292L56 290L54 293L54 294L56 288L48 294z" id="path_348"/><path fill="#c39a68" stroke-width="1" d="M70 288L71 289L70 288M46 292L48 293L51 289L46 292M56 289L57 290L56 289M69 289L70 290L69 289z" id="path_349"/><path fill="#c29da6" stroke-width="1" d="M48.6667 290.333L49.3333 290.667L48.6667 290.333z" id="path_350"/><path fill="#385e99" stroke-width="1" d="M50 293C53.3717 293.579 55.0318 293.445 56 290L50 293z" id="path_351"/><path fill="#c39a68" stroke-width="1" d="M68 290L69 291L68 290z" id="path_352"/><path fill="#4d5c73" stroke-width="1" d="M26 291L26 292L30 292L26 291z" id="path_353"/><path fill="#c29da6" stroke-width="1" d="M47 291L48 294L47 291z" id="path_354"/><path fill="#c39a68" stroke-width="1" d="M67 291L68 292L67 291z" id="path_355"/><path fill="#6fa5d7" stroke-width="1" d="M5 292L3 296L0 295L0 304L9 306L8 301L13 299L13 298L7 297L5 292z" id="path_356"/><path fill="#4d5c73" stroke-width="1" d="M23 292C20.9445 296.776 22.5332 300.032 28 299L26 295C33.832 299.113 28.4103 306.787 26 313L27 313C30.6686 306.713 35.9182 295.727 25 294L27 299C23.5309 297.106 23.5701 295.562 25 292L23 292z" id="path_357"/><path fill="#c29da6" stroke-width="1" d="M27 299L25 294C39.0741 295.547 25.2099 314.213 24 321C9.19596 309.183 -0.337255 331.224 20 333L20 334C13.6432 334.939 3.37581 337.157 0 343L27 334L31 351L6 359L1 344L0 344L3 363L12 380L40 371C46.6381 364.334 60.0037 360.461 69 358L65 336L57 320L40 327C43.04 322.074 43.2421 318.917 40 314L50 315L50 316L46 320C49.1783 319.481 53.913 316.152 49.5509 313.028C41.7779 307.46 29.9923 317.588 27 324C24.5213 314.89 33.7158 308.847 34.1775 300C34.4065 295.612 30.8954 290.871 26.0633 292.623C21.2805 294.356 23.5377 297.936 27 299z" id="path_358"/><path fill="#4d5c73" stroke-width="1" d="M31 292L32 293L31 292M32 293L34 298L35 298L38 296L38 295L35 292L32 293z" id="path_359"/><path fill="#c39a68" stroke-width="1" d="M35 292L36 293L35 292z" id="path_360"/><path fill="#c29da6" stroke-width="1" d="M62.6667 292.333L63.3333 292.667L62.6667 292.333z" id="path_361"/><path fill="#c39a68" stroke-width="1" d="M27 293L28 294L27 293z" id="path_362"/><path fill="#c29da6" stroke-width="1" d="M34 293L34 294L40 295L34 293z" id="path_363"/><path fill="#c39a68" stroke-width="1" d="M38 293L39 294L38 293z" id="path_364"/><path fill="#c29da6" stroke-width="1" d="M60 293L61 294L60 293z" id="path_365"/><path fill="#c39a68" stroke-width="1" d="M40 294L34 299L41 302L42 302L40 294z" id="path_366"/><path fill="#c29da6" stroke-width="1" d="M45 294L49 296L49 295L45 294M58.6667 294.333L59.3333 294.667L58.6667 294.333z" id="path_367"/><path fill="#6fa5d7" stroke-width="1" d="M85 299L90 300L90 294L85 299z" id="path_368"/><path fill="#c29da6" stroke-width="1" d="M41 295L42 296L41 295M50 295L50 296L57 296L50 295M42 296L41 300L42 296z" id="path_369"/><path fill="#6fa5d7" stroke-width="1" d="M50 296L51 297L50 296z" id="path_370"/><path fill="#c39a68" stroke-width="1" d="M52 296L53 297L52 296z" id="path_371"/><path fill="#6fa5d7" stroke-width="1" d="M53 296L54 297L53 296z" id="path_372"/><path fill="#c29da6" stroke-width="1" d="M36 298L36 300L38 300L36 298z" id="path_373"/><path fill="#4d5c73" stroke-width="1" d="M43 298L42 302L43 302L43 298M35 299L36 300L35 299M36 300L39 303L39 299L36 300M34 300L33 306L34 306L34 300z" id="path_374"/><path fill="#c29da6" stroke-width="1" d="M40 300L39 305L40 305L40 300z" id="path_375"/><path fill="#c39a68" stroke-width="1" d="M39 302L40 303L39 302z" id="path_376"/><path fill="#4d5c73" stroke-width="1" d="M41 302L42 303L41 302z" id="path_377"/><path fill="#c39a68" stroke-width="1" d="M33 303L34 304L33 303z" id="path_378"/><path fill="#6fa5d7" stroke-width="1" d="M38.3333 303.667L38.6667 304.333L38.3333 303.667z" id="path_379"/><path fill="#4d5c73" stroke-width="1" d="M40 304L41 305L40 304M32 306L31 310L32 310L32 306M30 310L31 311L30 310M41 311L41 312L49 312L41 311M29.3333 311.667L29.6667 312.333L29.3333 311.667z" id="path_380"/><path fill="#6fa5d7" stroke-width="1" d="M44 311L44 312L47 312L44 311z" id="path_381"/><path fill="#4d5c73" stroke-width="1" d="M38.6667 312.333L39.3333 312.667L38.6667 312.333M50 312L51 313L50 312z" id="path_382"/><path fill="#6fa5d7" stroke-width="1" d="M26 313L27 314L26 313z" id="path_383"/><path fill="#4d5c73" stroke-width="1" d="M28.3333 313.667L28.6667 314.333L28.3333 313.667M36.6667 313.333L37.3333 313.667L36.6667 313.333M40 314C42.2723 318.547 42.7151 321.174 41 326L47 324L47 323L44 320L51 323L46 320L50 316C46.9064 312.844 44.1671 313.023 40 314M51.3333 313.667L51.6667 314.333L51.3333 313.667M25.3333 314.667L25.6667 315.333L25.3333 314.667M34.6667 314.333L35.3333 314.667L34.6667 314.333z" id="path_384"/><path fill="#385e99" stroke-width="1" d="M42 315L44 319L48 314L42 315z" id="path_385"/><path fill="#4d5c73" stroke-width="1" d="M27.3333 315.667L27.6667 316.333L27.3333 315.667M31 318L34 315L31 318M89 315L90 316L89 315M12 316L12 317L18 317L12 316M24.3333 316.667L24.6667 317.333L24.3333 316.667M27 329C43.6764 329.996 40.9373 307.186 29.804 322.996C28.4556 324.911 27.7026 326.8 27 329M52 316L51 319L52 316M87 316L88 317L87 316z" id="path_386"/><path fill="#6fa5d7" stroke-width="1" d="M90 366C82.578 352.096 65.0588 344.502 78.6806 327.004C81.9666 322.783 87.1873 320.386 90 316C64.1819 323.651 67.545 356.493 90 366z" id="path_387"/><path fill="#4d5c73" stroke-width="1" d="M9.66667 317.333L10.3333 317.667L9.66667 317.333M19.6667 317.333L20.3333 317.667L19.6667 317.333M26 317L26 324L27 324L26 317z" id="path_388"/><path fill="#385e99" stroke-width="1" d="M28 328L29 329C31.0919 328.123 44.026 321.547 38.3812 318.176C34.4039 315.801 29.3096 325.435 28 328z" id="path_389"/><path fill="#4d5c73" stroke-width="1" d="M85 317L86 318L85 317M8 318L6 328L7 328L8 318M21 318L24 321L21 318M30 318L31 319L30 318M83 318L84 319L83 318M79 326L90 319C85.3272 318.323 81.5865 322.496 79 326z" id="path_390"/><path fill="#c39a68" stroke-width="1" d="M8 319L9 320L8 319z" id="path_391"/><path fill="#4d5c73" stroke-width="1" d="M16 330L16 329C12.1197 327.425 7.71031 321.077 15.0154 320.546C19.816 320.197 25.0799 327.659 21 331L21 332L25 332C24.5969 329.273 24.1063 326.485 22.7215 324.044C16.0591 312.303 1.59426 326.195 16 330M29 319L30 320L29 319M50 319L51 320L50 319M82 319L83 320L82 319z" id="path_392"/><path fill="#385e99" stroke-width="1" d="M90 363L90 319C67.248 326.265 71.584 353.827 90 363M24 331C23.3631 328.32 22.7118 325.473 21.0054 323.228C14.9764 315.297 4.22403 326.365 17.9954 330.076C19.9928 330.614 21.9485 330.832 24 331z" id="path_393"/><path fill="#4d5c73" stroke-width="1" d="M28 320L29 321L28 320z" id="path_394"/><path fill="#385e99" stroke-width="1" d="M44 320C44.6916 323.228 46.1009 323.02 49 322L49 321L44 320z" id="path_395"/><path fill="#4d5c73" stroke-width="1" d="M53.6667 320.333L54.3333 320.667L53.6667 320.333M57.3333 320.667L57.6667 321.333L57.3333 320.667M80.6667 320.333L81.3333 320.667L80.6667 320.333M52 321L53 322L52 321M78 322L79 323L78 322M58 323L59 324L58 323M49 325L49 326C57.0774 325.584 61.4393 334.321 54 339C63.518 339.758 59.6978 323.135 49 325M77 324L78 325L77 324z" id="path_396"/><path fill="#c39a68" stroke-width="1" d="M40.3333 325.667L40.6667 326.333L40.3333 325.667z" id="path_397"/><path fill="#385e99" stroke-width="1" d="M34 332L34 334L35 335C41.6696 334.553 46.9454 340.821 52.9954 339.506C59.624 338.066 60.5332 327.855 53.7863 325.777C48.3065 324.089 39.1734 330.25 34 332z" id="path_398"/><path fill="#4d5c73" stroke-width="1" d="M59 325L60 330L61 330L59 325M76 325L77 326L76 325M46.6667 326.333L47.3333 326.667L46.6667 326.333M41 328L41 329L46 328L41 328M78 327L79 328L78 327M7 328L10 331L7 328M74 328L75 329L74 328M77 328L78 329L77 328M36 330L36 331L41 330L36 330M73 329L74 330L73 329M76.3333 329.667L76.6667 330.333L76.3333 329.667M17 330L17 331L20 331L17 330M44 330L45 334L47 334L46 330L47 333L44 330z" id="path_399"/><path fill="#6fa5d7" stroke-width="1" d="M45 330L46 331L45 330z" id="path_400"/><path fill="#4d5c73" stroke-width="1" d="M61 330L61 333L62 333L61 330M11.6667 331.333L12.3333 331.667L11.6667 331.333z" id="path_401"/><path fill="#c39a68" stroke-width="1" d="M28 331L29 332L28 331z" id="path_402"/><path fill="#4d5c73" stroke-width="1" d="M34.6667 331.333L35.3333 331.667L34.6667 331.333z" id="path_403"/><path fill="#c29da6" stroke-width="1" d="M45 331L47 333L47 331L45 331z" id="path_404"/><path fill="#4d5c73" stroke-width="1" d="M72.3333 331.667L72.6667 332.333L72.3333 331.667M75 331L76 332L75 331M14 332L14 335L19 334L19 333L14 332z" id="path_405"/><path fill="#c39a68" stroke-width="1" d="M26 332L27 333L26 332z" id="path_406"/><path fill="#4d5c73" stroke-width="1" d="M31 332L31 333L34 334L31 332z" id="path_407"/><path fill="#6fa5d7" stroke-width="1" d="M45 332L46 333L45 332z" id="path_408"/><path fill="#c39a68" stroke-width="1" d="M19 333L20 334L19 333z" id="path_409"/><path fill="#4d5c73" stroke-width="1" d="M62 333L65 336L65 335L62 333M74.3333 333.667L74.6667 334.333L74.3333 333.667M8 340L8 341L18 340L19 340L19 338L20 340L21 340L20 336C27.2678 336.561 29.5767 344.469 29 351C32.8253 347.518 27.7771 338.124 26 334L8 340z" id="path_410"/><path fill="#c39a68" stroke-width="1" d="M26 334L27 335L26 334z" id="path_411"/><path fill="#4d5c73" stroke-width="1" d="M34 334L35 335L34 334M37 334L38 335L37 334M71 334L71 337L72 337L71 334M11 335L11 336L14 336L11 335z" id="path_412"/><path fill="#c39a68" stroke-width="1" d="M30.3333 335.667L30.6667 336.333L30.3333 335.667z" id="path_413"/><path fill="#4d5c73" stroke-width="1" d="M43 335L44 336L43 335M8 336L8 337L11 337L8 336z" id="path_414"/><path fill="#385e99" stroke-width="1" d="M20 336L21 340L18 338C4.77533 342.302 -0.481851 343.804 7 358C13.0599 356.28 23.8313 354.723 28.3565 350.077C33.3012 345 25.1536 336.171 20 336z" id="path_415"/><path fill="#4d5c73" stroke-width="1" d="M31 336L34 349L38 347L31 336M44 336L45 337L44 336z" id="path_416"/><path fill="#c39a68" stroke-width="1" d="M60.3333 336.667L60.6667 337.333L60.3333 336.667z" id="path_417"/><path fill="#4d5c73" stroke-width="1" d="M65 336L64 342L65 342L65 336M6.66667 337.333L7.33333 337.667L6.66667 337.333M45 337L46 338L45 337M73 337L73 343L74 343L73 337M3 338L3 339L6 339L3 338z" id="path_418"/><path fill="#c29da6" stroke-width="1" d="M19.3333 338.667L19.6667 339.333L19.3333 338.667z" id="path_419"/><path fill="#4d5c73" stroke-width="1" d="M46 338L47 339L46 338M1.66667 339.333L2.33333 339.667L1.66667 339.333z" id="path_420"/><path fill="#385e99" stroke-width="1" d="M32 339L33 340L32 339z" id="path_421"/><path fill="#4d5c73" stroke-width="1" d="M47 339L48 340L47 339M0 340L1 341L0 340z" id="path_422"/><path fill="#c39a68" stroke-width="1" d="M44 340L45 341L44 340z" id="path_423"/><path fill="#4d5c73" stroke-width="1" d="M48 340L48 341L53 341L48 340M58 341L58 342L61 341L62 346L63 346L62 340L58 341M4 341L4 342L7 342L4 341z" id="path_424"/><path fill="#385e99" stroke-width="1" d="M54 344C51.7822 355.96 43.6682 348.855 36 352C37.1474 355.077 37.9182 360.969 40.7029 362.958C44.702 365.814 62.9193 358.209 64.1875 353.725C65.1834 350.204 62.0795 344.375 61 341L54 344z" id="path_425"/><path fill="#4d5c73" stroke-width="1" d="M2.66667 342.333L3.33333 342.667L2.66667 342.333M55.6667 342.333L56.3333 342.667L55.6667 342.333M65 342L65 345L66 345L65 342z" id="path_426"/><path fill="#c39a68" stroke-width="1" d="M0 343L1 344L0 343z" id="path_427"/><path fill="#4d5c73" stroke-width="1" d="M1 343L1 347L2 347L1 343z" id="path_428"/><path fill="#c39a68" stroke-width="1" d="M52 343L53 344L52 343z" id="path_429"/><path fill="#4d5c73" stroke-width="1" d="M53 343L53 345L55 343L53 343z" id="path_430"/><path fill="#385e99" stroke-width="1" d="M35.3333 345.667L35.6667 346.333L35.3333 345.667z" id="path_431"/><path fill="#4d5c73" stroke-width="1" d="M54.3333 345.667L54.6667 346.333L54.3333 345.667M71.3333 345.667L71.6667 346.333L71.3333 345.667M74.3333 345.667L74.6667 346.333L74.3333 345.667M5 349L6 349L7 349L9 347L5 349M22 347L22 348L25 349L25 348C23.0399 347.347 22.446 347 25 347L22 347z" id="path_432"/><path fill="#c39a68" stroke-width="1" d="M38 346L39 347L38 346M50.6667 346.333L51.3333 346.667L50.6667 346.333z" id="path_433"/><path fill="#4d5c73" stroke-width="1" d="M66.3333 346.667L66.6667 347.333L66.3333 346.667M2 347L3 352L4 352L2 347z" id="path_434"/><path fill="#c29da6" stroke-width="1" d="M6 347L8 349L8 347L6 347z" id="path_435"/><path fill="#6fa5d7" stroke-width="1" d="M8 347L9 348L8 347z" id="path_436"/><path fill="#c29da6" stroke-width="1" d="M23 347L24 348L23 347z" id="path_437"/><path fill="#6fa5d7" stroke-width="1" d="M24 347L25 348L24 347z" id="path_438"/><path fill="#4d5c73" stroke-width="1" d="M53 347L54 348L53 347M63 347L63 350L64 350L63 347M8 348L9 349L8 348z" id="path_439"/><path fill="#c39a68" stroke-width="1" d="M47 348L49 350L49 348L47 348z" id="path_440"/><path fill="#4d5c73" stroke-width="1" d="M52 348L53 349L52 348M72.3333 348.667L72.6667 349.333L72.3333 348.667M75 348L76 349L75 348z" id="path_441"/><path fill="#6fa5d7" stroke-width="1" d="M0 349L1 350L0 349z" id="path_442"/><path fill="#4d5c73" stroke-width="1" d="M40 349L40 350L43 350L40 349M51 349L48 353L51 349M67.3333 349.667L67.6667 350.333L67.3333 349.667M0 350L0 353L1 353L0 350M37 350L37 351L40 351L37 350M43 350L44 351L43 350M64.3333 350.667L64.6667 351.333L64.3333 350.667M73.3333 350.667L73.6667 351.333L73.3333 350.667M76 350L77 351L76 350M23 352L23 353L28 352L23 352z" id="path_443"/><path fill="#c39a68" stroke-width="1" d="M35 351L36 352L35 351z" id="path_444"/><path fill="#4d5c73" stroke-width="1" d="M36 351L37 352L36 351M44 351L45 352L44 351M58 351L58 352L60 354L58 353L58 354L60 355L58 351M68 351L68 355L69 355L68 351M4 352L4 355L5 355L4 352M35 352L36 353L35 352M45 352L46 353L45 352z" id="path_445"/><path fill="#6fa5d7" stroke-width="1" d="M58 352L59 353L58 352z" id="path_446"/><path fill="#c29da6" stroke-width="1" d="M59.3333 352.667L59.6667 353.333L59.3333 352.667z" id="path_447"/><path fill="#4d5c73" stroke-width="1" d="M74 352L75 353L74 352M77 352L78 353L77 352M1.33333 353.667L1.66667 354.333L1.33333 353.667M21.6667 353.333L22.3333 353.667L21.6667 353.333z" id="path_448"/><path fill="#c39a68" stroke-width="1" d="M31 353L32 354L31 353z" id="path_449"/><path fill="#4d5c73" stroke-width="1" d="M11 361L11 362L33 355L35 368L36 368L33 353L11 361M36.3333 353.667L36.6667 354.333L36.3333 353.667M46.6667 353.333L47.3333 353.667L46.6667 353.333M65 353L64 356L65 353M75 353L76 354L75 353M78 353L79 354L78 353M18.6667 354.333L19.3333 354.667L18.6667 354.333z" id="path_450"/><path fill="#6fa5d7" stroke-width="1" d="M20 354L21 355L20 354z" id="path_451"/><path fill="#c39a68" stroke-width="1" d="M34 354L35 355L34 354z" id="path_452"/><path fill="#4d5c73" stroke-width="1" d="M2 355L2 358L3 358L2 355M5 355L6 359L7 359L5 355M15 355L15 356L18 356L15 355z" id="path_453"/><path fill="#385e99" stroke-width="1" d="M9 363C9.75316 366.18 10.7173 372.177 13.5602 374.187C16.8027 376.479 32.9556 369.847 34.8789 366.502C36.612 363.487 33.7177 358.102 33 355L9 363z" id="path_454"/><path fill="#4d5c73" stroke-width="1" d="M37 355L37 359L38 359L37 355M44.3333 355.667L44.6667 356.333L44.3333 355.667z" id="path_455"/><path fill="#c29da6" stroke-width="1" d="M45.6667 355.333L46.3333 355.667L45.6667 355.333z" id="path_456"/><path fill="#4d5c73" stroke-width="1" d="M69 355L70 356L69 355M76 355L77 356L76 355M12 356L12 357L15 357L12 356z" id="path_457"/><path fill="#6fa5d7" stroke-width="1" d="M45.6667 356.333L46.3333 356.667L45.6667 356.333z" id="path_458"/><path fill="#4d5c73" stroke-width="1" d="M61 356L61 357L64 357L61 356z" id="path_459"/><path fill="#6fa5d7" stroke-width="1" d="M69 356L70 357L69 356z" id="path_460"/><path fill="#4d5c73" stroke-width="1" d="M77 356L78 357L77 356M8 357L8 358L11 358L8 357M59.6667 357.333L60.3333 357.667L59.6667 357.333M69 357L70 358L69 357M78 357L79 358L78 357M3.33333 358.667L3.66667 359.333L3.33333 358.667M57.6667 358.333L58.3333 358.667L57.6667 358.333M66 358L66 359L69 359L66 358M79 358L80 359L79 358z" id="path_461"/><path fill="#c39a68" stroke-width="1" d="M9 359L10 360L9 359z" id="path_462"/><path fill="#4d5c73" stroke-width="1" d="M38 359L38 362L39 362L38 359M55.6667 359.333L56.3333 359.667L55.6667 359.333M64.6667 359.333L65.3333 359.667L64.6667 359.333M80 359L81 360L80 359M84 359L85 360L84 359M2 360L2 363L3 363L2 360M30 360L31 361L30 360M53.6667 360.333L54.3333 360.667L53.6667 360.333M61.6667 360.333L62.3333 360.667L61.6667 360.333M81 360L82 361L81 360M85 360L86 361L85 360z" id="path_463"/><path fill="#6fa5d7" stroke-width="1" d="M30 361L31 362L30 361z" id="path_464"/><path fill="#4d5c73" stroke-width="1" d="M50 361L50 362L53 362L50 361M59.6667 361.333L60.3333 361.667L59.6667 361.333M82 361L83 362L82 361M86 361L87 362L86 361z" id="path_465"/><path fill="#c39a68" stroke-width="1" d="M7 362L8 363L7 362z" id="path_466"/><path fill="#4d5c73" stroke-width="1" d="M8 362L11 374L12 374L10 362L8 362M39 362L40 366L45 365L45 364L39 362M48.6667 362.333L49.3333 362.667L48.6667 362.333M56.6667 362.333L57.3333 362.667L56.6667 362.333M87.6667 362.333L88.3333 362.667L87.6667 362.333M3 363L3 364L6 368L7 368L3 363z" id="path_467"/><path fill="#c39a68" stroke-width="1" d="M5 363L6 364L5 363z" id="path_468"/><path fill="#4d5c73" stroke-width="1" d="M45 363L45 364L48 364L45 363M52 364L52 365L56 364L52 364M85 363L86 364L85 363M89 363L90 364L89 363z" id="path_469"/><path fill="#c39a68" stroke-width="1" d="M51 364L52 365L51 364z" id="path_470"/><path fill="#4d5c73" stroke-width="1" d="M86 364L87 365L86 364M49.6667 365.333L50.3333 365.667L49.6667 365.333z" id="path_471"/><path fill="#6fa5d7" stroke-width="1" d="M77 365L69 370L68 379L78 381C78.3465 376.511 79.954 374.839 84 373L84 372L78 371L77 365z" id="path_472"/><path fill="#c39a68" stroke-width="1" d="M6 366L7 367L6 366z" id="path_473"/><path fill="#4d5c73" stroke-width="1" d="M18 368L21 367L18 368M47.6667 366.333L48.3333 366.667L47.6667 366.333M89 366L90 367L89 366z" id="path_474"/><path fill="#c29da6" stroke-width="1" d="M19 367L20 368L19 367z" id="path_475"/><path fill="#6fa5d7" stroke-width="1" d="M20 367L19 369L20 367z" id="path_476"/><path fill="#4d5c73" stroke-width="1" d="M44.6667 367.333L45.3333 367.667L44.6667 367.333M20 368L21 369L20 368M32.6667 368.333L33.3333 368.667L32.6667 368.333M41 370L44 369L41 370M7 369L8 375L9 375L7 369M30.6667 369.333L31.3333 369.667L30.6667 369.333M28.6667 370.333L29.3333 370.667L28.6667 370.333M34 371L34 372L41 372L34 371z" id="path_477"/><path fill="#6fa5d7" stroke-width="1" d="M40 370L41 371L40 370z" id="path_478"/><path fill="#4d5c73" stroke-width="1" d="M25.6667 371.333L26.3333 371.667L25.6667 371.333M44 371L44 372C48.7795 372.321 51.605 373.802 54 378C54.7798 372.22 48.5414 371.11 44 371M20 373L20 374L24 373L20 373M31.6667 372.333L32.3333 372.667L31.6667 372.333M42 372L38 382L39 382L42 372z" id="path_479"/><path fill="#6fa5d7" stroke-width="1" d="M43 372L44 373L43 372z" id="path_480"/><path fill="#c29da6" stroke-width="1" d="M39 378C49.4603 372.427 52.9988 376.695 53 388C57.9244 377.027 45.8765 365.47 39 378z" id="path_481"/><path fill="#6fa5d7" stroke-width="1" d="M49 372L50 373L49 372z" id="path_482"/><path fill="#4d5c73" stroke-width="1" d="M29.6667 373.333L30.3333 373.667L29.6667 373.333M12 374L15 377L12 374M17 374L17 375L20 375L17 374M27.6667 374.333L28.3333 374.667L27.6667 374.333z" id="path_483"/><path fill="#c39a68" stroke-width="1" d="M43 374L41 377L43 374z" id="path_484"/><path fill="#4d5c73" stroke-width="1" d="M41 379L42 379L49 375C45.0739 373.532 42.7602 375.51 41 379z" id="path_485"/><path fill="#c39a68" stroke-width="1" d="M49 374L50 375L49 374z" id="path_486"/><path fill="#6fa5d7" stroke-width="1" d="M52 374L53 375L52 374z" id="path_487"/><path fill="#4d5c73" stroke-width="1" d="M9.33333 375.667L9.66667 376.333L9.33333 375.667M15.6667 375.333L16.3333 375.667L15.6667 375.333M22 376L22 377L27 376L22 376z" id="path_488"/><path fill="#385e99" stroke-width="1" d="M43 384L52 384C51.8675 372.794 39.8003 373.677 43 384z" id="path_489"/><path fill="#4d5c73" stroke-width="1" d="M50 375L51 376L50 375z" id="path_490"/><path fill="#c39a68" stroke-width="1" d="M12 376L13 377L12 376M39 376L40 377L39 376z" id="path_491"/><path fill="#4d5c73" stroke-width="1" d="M51 376L52 377L51 376M10.3333 377.667L10.6667 378.333L10.3333 377.667M19.6667 377.333L20.3333 377.667L19.6667 377.333z" id="path_492"/><path fill="#c39a68" stroke-width="1" d="M52 377L53 378L52 377z" id="path_493"/><path fill="#4d5c73" stroke-width="1" d="M16.6667 378.333L17.3333 378.667L16.6667 378.333z" id="path_494"/><path fill="#c39a68" stroke-width="1" d="M39 378L40 381L41 381L41 378L39 378z" id="path_495"/><path fill="#4d5c73" stroke-width="1" d="M52 378L52 384C48.308 381.459 46.692 381.459 43 384L42 380L41 380L48 390C45.1081 383.876 49.0684 381.402 51 388L52 388L52 378z" id="path_496"/><path fill="#6fa5d7" stroke-width="1" d="M54 378L55 379L54 378z" id="path_497"/><path fill="#4d5c73" stroke-width="1" d="M11 379L12 380L11 379M14.6667 379.333L15.3333 379.667L14.6667 379.333z" id="path_498"/><path fill="#c29da6" stroke-width="1" d="M39 379L44 388L39 379z" id="path_499"/><path fill="#4d5c73" stroke-width="1" d="M55 379L54 388L55 388L55 379M12.6667 380.333L13.3333 380.667L12.6667 380.333M30 385L43 389L40 383L38 385C35.0704 382.683 32.2942 381.576 30 385z" id="path_500"/><path fill="#c29da6" stroke-width="1" d="M45 383L45 384L50 388C51.0368 384.103 48.6734 382.45 45 383z" id="path_501"/><path fill="#c39a68" stroke-width="1" d="M54.3333 382.667L54.6667 383.333L54.3333 382.667z" id="path_502"/><path fill="#c29da6" stroke-width="1" d="M32 383C24.381 395.573 17.6985 404.728 36 410L36 409L23 403L32 383z" id="path_503"/><path fill="#c39a68" stroke-width="1" d="M33 383L36 385L36 384L33 383M41 383L42 384L41 383M47 383L45 386L47 383z" id="path_504"/><path fill="#c29da6" stroke-width="1" d="M34 384L35 385L34 384z" id="path_505"/><path fill="#4d5c73" stroke-width="1" d="M47 384L49 387L49 384L47 384z" id="path_506"/><path fill="#6fa5d7" stroke-width="1" d="M50 384L51 385L50 384M30 385L31 386L30 385z" id="path_507"/><path fill="#4d5c73" stroke-width="1" d="M32 388L36 388L34 385L32 388z" id="path_508"/><path fill="#c29da6" stroke-width="1" d="M35 385L35 386L42 390L35 385z" id="path_509"/><path fill="#385e99" stroke-width="1" d="M39 385L40 386L39 385z" id="path_510"/><path fill="#c39a68" stroke-width="1" d="M49 385L46 387L48 390L45 387L44 387L41 394L47 394L46 397L51 397L52 400L56 399L56 403L58 405L59 405L59 401L72 400L72 399L60 401L64 397L55 394L60 394L59 390L52 390L53 385L52 385L51 388L49 385z" id="path_511"/><path fill="#4d5c73" stroke-width="1" d="M29 386L28 389L29 389L29 386z" id="path_512"/><path fill="#c39a68" stroke-width="1" d="M32 386L33 387L32 386M36 386L39 389L36 386M38 386L39 387L38 386M41 386L42 387L41 386M43 386L44 387L43 386z" id="path_513"/><path fill="#c29da6" stroke-width="1" d="M46 386L48 388L48 386L46 386z" id="path_514"/><path fill="#4d5c73" stroke-width="1" d="M58 389L58 390L69 387L58 389z" id="path_515"/><path fill="#c39a68" stroke-width="1" d="M69.6667 386.333L70.3333 386.667L69.6667 386.333z" id="path_516"/><path fill="#4d5c73" stroke-width="1" d="M71 386L71 387L74 387L71 386z" id="path_517"/><path fill="#c39a68" stroke-width="1" d="M29 387L30 388L29 387M30 390L35 389L30 390M42 387L43 388L42 387z" id="path_518"/><path fill="#c29da6" stroke-width="1" d="M64 388L64 389C78.8773 387.163 79.9688 399.679 65 400C80.2018 406.365 83.3299 382.289 64 388z" id="path_519"/><path fill="#6fa5d7" stroke-width="1" d="M74 387L75 388L74 387z" id="path_520"/><path fill="#4d5c73" stroke-width="1" d="M75 387L75 388L78 389L75 387z" id="path_521"/><path fill="#c29da6" stroke-width="1" d="M31 389L31 390L37 389L31 389z" id="path_522"/><path fill="#4d5c73" stroke-width="1" d="M36 389L36 390L40 390L39 393L40 393L41 390L36 389z" id="path_523"/><path fill="#c39a68" stroke-width="1" d="M41 388L42 389L41 388z" id="path_524"/><path fill="#c29da6" stroke-width="1" d="M48 388L49 389L48 388z" id="path_525"/><path fill="#c39a68" stroke-width="1" d="M62 388L64 390L64 388L62 388z" id="path_526"/><path fill="#6fa5d7" stroke-width="1" d="M67 388L68 389L67 388z" id="path_527"/><path fill="#4d5c73" stroke-width="1" d="M60 391L60 392L66 396L67 396L65 390C68.1746 390.002 80.979 392.026 72.8472 396.817C70.0255 398.48 66.1079 397.472 63 398C75.4846 403.239 82.1631 387.602 69 388.395C65.8844 388.583 62.8863 389.924 60 391z" id="path_528"/><path fill="#6fa5d7" stroke-width="1" d="M72 388L73 389L72 388z" id="path_529"/><path fill="#c39a68" stroke-width="1" d="M76 388L77 389L76 388z" id="path_530"/><path fill="#4d5c73" stroke-width="1" d="M27 389L25 394L26 394L27 389z" id="path_531"/><path fill="#6fa5d7" stroke-width="1" d="M35 389L36 390L35 389z" id="path_532"/><path fill="#c29da6" stroke-width="1" d="M45 389L46 390L45 389M52 389L53 390L52 389z" id="path_533"/><path fill="#4d5c73" stroke-width="1" d="M53 389L54 390L53 389z" id="path_534"/><path fill="#c29da6" stroke-width="1" d="M59 390L59 391L63 390L59 390z" id="path_535"/><path fill="#4d5c73" stroke-width="1" d="M78 389L79 390L78 389M24 403C35.9346 409.345 42.7952 408.562 47 394L41 396L46 395C42.4884 400.717 39.7584 408.249 32 406L38 403L38 402C32.3153 403.888 28.9399 402.069 28 396L32 397L31 401L32 402L37 398L33 401L29 395L35 391C28.7406 388.581 24.9539 398.067 24 403z" id="path_536"/><path fill="#385e99" stroke-width="1" d="M29 395L33 401L40 390C35.2365 390.208 31.5891 390.738 29 395z" id="path_537"/><path fill="#4d5c73" stroke-width="1" d="M54 390L55 391L54 390M57 390L58 391L57 390z" id="path_538"/><path fill="#c39a68" stroke-width="1" d="M61 390L62 391L61 390z" id="path_539"/><path fill="#385e99" stroke-width="1" d="M65 390L66 398C78.423 397.888 76.6116 390.001 65 390z" id="path_540"/><path fill="#6fa5d7" stroke-width="1" d="M78 390L79 391L78 390z" id="path_541"/><path fill="#c39a68" stroke-width="1" d="M27 391L28 392L27 391z" id="path_542"/><path fill="#c29da6" stroke-width="1" d="M53 391L54 392L53 391z" id="path_543"/><path fill="#4d5c73" stroke-width="1" d="M55.6667 391.333L56.3333 391.667L55.6667 391.333z" id="path_544"/><path fill="#c29da6" stroke-width="1" d="M58 391L59 392L58 391z" id="path_545"/><path fill="#c39a68" stroke-width="1" d="M77.3333 391.667L77.6667 392.333L77.3333 391.667z" id="path_546"/><path fill="#4d5c73" stroke-width="1" d="M79 391L79 397L80 397L79 391z" id="path_547"/><path fill="#c29da6" stroke-width="1" d="M40 392L38 398L42 392L40 392M60 394L65 394L63 397C67.2943 394.158 62.9262 390.7 60 394z" id="path_548"/><path fill="#c39a68" stroke-width="1" d="M26 393L27 394L26 393M28 393L29 394L28 393M39 393L38 396L39 393M62 393L62 394L65 395L62 393z" id="path_549"/><path fill="#4d5c73" stroke-width="1" d="M24.3333 394.667L24.6667 395.333L24.3333 394.667z" id="path_550"/><path fill="#c39a68" stroke-width="1" d="M27 394L28 395L27 394z" id="path_551"/><path fill="#4d5c73" stroke-width="1" d="M38 394L39 395L38 394z" id="path_552"/><path fill="#385e99" stroke-width="1" d="M32 406C39.7077 409.469 43.3249 401.2 46 395L32 406z" id="path_553"/><path fill="#c29da6" stroke-width="1" d="M55.6667 394.333L56.3333 394.667L55.6667 394.333z" id="path_554"/><path fill="#4d5c73" stroke-width="1" d="M56 395L56 396L64 396L64 394L56 395M37.3333 395.667L37.6667 396.333L37.3333 395.667z" id="path_555"/><path fill="#c39a68" stroke-width="1" d="M40.3333 395.667L40.6667 396.333L40.3333 395.667M77 395L78 396L77 395z" id="path_556"/><path fill="#4d5c73" stroke-width="1" d="M23 396L24 397L23 396z" id="path_557"/><path fill="#c39a68" stroke-width="1" d="M26 396L27 397L26 396M28 396L28 400L32 402L28 396z" id="path_558"/><path fill="#c29da6" stroke-width="1" d="M29 396L32 399L29 396M57.6667 396.333L58.3333 396.667L57.6667 396.333M60.6667 396.333L61.3333 396.667L60.6667 396.333z" id="path_559"/><path fill="#6fa5d7" stroke-width="1" d="M65 396L66 397L65 396z" id="path_560"/><path fill="#4d5c73" stroke-width="1" d="M22 397L20 401L22 397z" id="path_561"/><path fill="#c39a68" stroke-width="1" d="M25 397L26 398L25 397z" id="path_562"/><path fill="#c29da6" stroke-width="1" d="M28 397L29 398L28 397z" id="path_563"/><path fill="#c39a68" stroke-width="1" d="M37 397L40 399L37 397z" id="path_564"/><path fill="#4d5c73" stroke-width="1" d="M40.3333 397.667L40.6667 398.333L40.3333 397.667z" id="path_565"/><path fill="#c29da6" stroke-width="1" d="M46 397L18 439C29.4319 429.753 41.7058 410.155 48 397L46 397z" id="path_566"/><path fill="#4d5c73" stroke-width="1" d="M44 408L51 397C46.1975 398.819 43.9532 402.951 44 408M78 397L76 399L76 400L78 397z" id="path_567"/><path fill="#385e99" stroke-width="1" d="M26 398L25 402L29 404L26 398z" id="path_568"/><path fill="#c39a68" stroke-width="1" d="M45 398L46 399L45 398z" id="path_569"/><path fill="#c29da6" stroke-width="1" d="M52 398L53 399L52 398z" id="path_570"/><path fill="#c39a68" stroke-width="1" d="M74 398L75 399L74 398M77 398L78 399L77 398M22 399L23 400L22 399z" id="path_571"/><path fill="#c29da6" stroke-width="1" d="M37 399C33.8622 401.844 31.8878 401.172 28 400C30.6736 402.995 37.1372 404.978 37 399z" id="path_572"/><path fill="#4d5c73" stroke-width="1" d="M39 399L38 401L40 401L39 399z" id="path_573"/><path fill="#c39a68" stroke-width="1" d="M46 399L47 400L46 399z" id="path_574"/><path fill="#385e99" stroke-width="1" d="M48 399L45 406L46 406L50 399L48 399z" id="path_575"/><path fill="#c29da6" stroke-width="1" d="M51 399L42 413L46 408C50.1407 409.92 55.2982 406.835 51 403L51 399z" id="path_576"/><path fill="#4d5c73" stroke-width="1" d="M53 399L52 409L53 409L54 406L55 406L55 409L56 409L53 401L55 403L56 403L53 399z" id="path_577"/><path fill="#c29da6" stroke-width="1" d="M54.6667 399.333L55.3333 399.667L54.6667 399.333M60 399L60 400L65 400L60 399z" id="path_578"/><path fill="#6fa5d7" stroke-width="1" d="M86 404L90 404L89 399L86 404z" id="path_579"/><path fill="#4d5c73" stroke-width="1" d="M17 400L6.77623 420L4.08565 428.536L18 441L19 441L5.90664 427.826L8.56636 420L19 400L17 400z" id="path_580"/><path fill="#c29da6" stroke-width="1" d="M19.3333 400.667L19.6667 401.333L19.3333 400.667z" id="path_581"/><path fill="#c39a68" stroke-width="1" d="M23 400L23 403L24 403L23 400M50 400L51 401L50 400z" id="path_582"/><path fill="#4d5c73" stroke-width="1" d="M60.6667 400.333L61.3333 400.667L60.6667 400.333z" id="path_583"/><path fill="#c39a68" stroke-width="1" d="M73.6667 400.333L74.3333 400.667L73.6667 400.333z" id="path_584"/><path fill="#4d5c73" stroke-width="1" d="M75 400L76 401L75 400z" id="path_585"/><path fill="#c39a68" stroke-width="1" d="M18 401L16 410L19 404L22 401L18 401M34.6667 401.333L35.3333 401.667L34.6667 401.333M37 401L38 402L37 401M51.3333 401.667L51.6667 402.333L51.3333 401.667z" id="path_586"/><path fill="#385e99" stroke-width="1" d="M53 401L56 404L53 401z" id="path_587"/><path fill="#c29da6" stroke-width="1" d="M56 401L57 402L56 401M59 401L59 402L71 408L71 407L59 401z" id="path_588"/><path fill="#4d5c73" stroke-width="1" d="M62 401L62 402L75 402L62 401z" id="path_589"/><path fill="#385e99" stroke-width="1" d="M87 401L87 403L89 403L89 401L87 401z" id="path_590"/><path fill="#c39a68" stroke-width="1" d="M36 402L37 403L36 402M49 402L50 403L49 402z" id="path_591"/><path fill="#c29da6" stroke-width="1" d="M57 402C56.0616 406.123 54.129 415.158 60.054 416.319C63.6939 417.032 67.0556 413.788 64 411L65 415L57 415L57 402z" id="path_592"/><path fill="#4d5c73" stroke-width="1" d="M59 402C58.5233 404.567 57.3563 419.223 63 413L60 410C68.6702 411.388 62.5545 418.129 55 414L63 418L60 423L59 423L45 415L52 411L52 410L46 409C42.559 417.72 54.1591 421.511 61 424C68.0754 413.597 71.3307 409.018 59 402M19 404L19 406L35 414L36 410L27 406L27 407L35 411L35 412L20 404L26 406L19 404z" id="path_593"/><path fill="#c39a68" stroke-width="1" d="M31 403L32 404L31 403M34 403L35 404L34 403M42 403L43 404L42 403M48 403L49 404L48 403M50 403L51 404L50 403z" id="path_594"/><path fill="#6fa5d7" stroke-width="1" d="M56 403L57 404L56 403z" id="path_595"/><path fill="#c39a68" stroke-width="1" d="M61 403L62 404L61 403z" id="path_596"/><path fill="#4d5c73" stroke-width="1" d="M65 403L66 404L65 403z" id="path_597"/><path fill="#385e99" stroke-width="1" d="M20 404C23.4937 407.897 29.7013 412.203 35 412L20 404M30 404L31 405L30 404z" id="path_598"/><path fill="#c39a68" stroke-width="1" d="M41 404L42 405L41 404z" id="path_599"/><path fill="#4d5c73" stroke-width="1" d="M50 404L48 408C50.6684 407.253 51.5945 406.419 50 404z" id="path_600"/><path fill="#385e99" stroke-width="1" d="M60 404L59 409L68 412L60 404z" id="path_601"/><path fill="#4d5c73" stroke-width="1" d="M66.6667 404.333L67.3333 404.667L66.6667 404.333z" id="path_602"/><path fill="#c29da6" stroke-width="1" d="M16 405L17 406L16 405z" id="path_603"/><path fill="#6fa5d7" stroke-width="1" d="M53 405L54 406L53 405z" id="path_604"/><path fill="#4d5c73" stroke-width="1" d="M68 405L68 406L71 407L68 405z" id="path_605"/><path fill="#6fa5d7" stroke-width="1" d="M42 406L43 407L42 406z" id="path_606"/><path fill="#385e99" stroke-width="1" d="M43 406L33 422L34 422C37.0673 417.733 44.2676 411.514 43 406z" id="path_607"/><path fill="#6fa5d7" stroke-width="1" d="M51 406L52 407L51 406z" id="path_608"/><path fill="#385e99" stroke-width="1" d="M54 406L45 415L59 423L60 423L63 418C55.2683 416.803 56.4268 411.768 54 406z" id="path_609"/><path fill="#6fa5d7" stroke-width="1" d="M65 406L66 407L65 406z" id="path_610"/><path fill="#c39a68" stroke-width="1" d="M69 406L70 407L69 406z" id="path_611"/><path fill="#c29da6" stroke-width="1" d="M19.6667 407.333L20.3333 407.667L19.6667 407.333z" id="path_612"/><path fill="#c39a68" stroke-width="1" d="M21 407L20 409L22 409L21 407M39 407L40 408L39 407M41 407L42 408L41 407z" id="path_613"/><path fill="#4d5c73" stroke-width="1" d="M42 407L43 408L42 407z" id="path_614"/><path fill="#c39a68" stroke-width="1" d="M47 407L48 408L47 407M67 407L68 408L67 407z" id="path_615"/><path fill="#4d5c73" stroke-width="1" d="M71 407L73 409L73 407L71 407z" id="path_616"/><path fill="#c29da6" stroke-width="1" d="M17 408L18 409L17 408z" id="path_617"/><path fill="#4d5c73" stroke-width="1" d="M13 431C20.7346 434.863 23.5796 431.23 27 424L26 424L21 433C12.3646 429.94 12.1232 409.679 24 411C12.1283 402.098 14.4801 426.245 13 431z" id="path_618"/><path fill="#c29da6" stroke-width="1" d="M22 408L33 415L33 414L22 408z" id="path_619"/><path fill="#6fa5d7" stroke-width="1" d="M38 408L39 409L38 408z" id="path_620"/><path fill="#4d5c73" stroke-width="1" d="M41 408L42 409L41 408z" id="path_621"/><path fill="#c39a68" stroke-width="1" d="M44 408L45 409L44 408M46 408L47 409L46 408z" id="path_622"/><path fill="#6fa5d7" stroke-width="1" d="M49 408L50 409L49 408z" id="path_623"/><path fill="#c39a68" stroke-width="1" d="M56 408L57 409L56 408M69 411L70 411L72 409C69.8603 407.882 69.4732 408.749 69 411z" id="path_624"/><path fill="#c29da6" stroke-width="1" d="M15 409L10 416C11.8657 420.969 14.0832 423.713 12 429C15.0133 426.827 16.3346 412.145 15 409z" id="path_625"/><path fill="#c39a68" stroke-width="1" d="M36 409L36 412L37 412L38 409L36 409z" id="path_626"/><path fill="#4d5c73" stroke-width="1" d="M40 409L36 415L40 409M43 409L44 410L43 409z" id="path_627"/><path fill="#c39a68" stroke-width="1" d="M47 409L48 410L47 409z" id="path_628"/><path fill="#6fa5d7" stroke-width="1" d="M51 409L52 410L51 409z" id="path_629"/><path fill="#c39a68" stroke-width="1" d="M55 409L55 414L56 414L55 409z" id="path_630"/><path fill="#c29da6" stroke-width="1" d="M70 409L62 425L63 425L72 409L70 409z" id="path_631"/><path fill="#6fa5d7" stroke-width="1" d="M72 409L73 410L72 409z" id="path_632"/><path fill="#c39a68" stroke-width="1" d="M14 410L15 411L14 410z" id="path_633"/><path fill="#385e99" stroke-width="1" d="M21 433L27 423C19.9166 421.554 19.0778 414.342 27 414C14.9221 400.932 9.28235 430.555 21 433z" id="path_634"/><path fill="#c39a68" stroke-width="1" d="M24 410L25 411L24 410z" id="path_635"/><path fill="#4d5c73" stroke-width="1" d="M42.3333 410.667L42.6667 411.333L42.3333 410.667z" id="path_636"/><path fill="#c39a68" stroke-width="1" d="M45 410L46 411L45 410z" id="path_637"/><path fill="#c29da6" stroke-width="1" d="M60 413L61 413L63 411C60.8603 409.882 60.4732 410.749 60 413z" id="path_638"/><path fill="#c39a68" stroke-width="1" d="M61 414L65 415L65 410L61 414M71 410L72 411L71 410z" id="path_639"/><path fill="#4d5c73" stroke-width="1" d="M72 410L44 452C52.3503 445.297 61.0758 431.332 66.3333 422C68.4042 418.324 72.2679 414.306 72 410M25 411L27 414C21.4888 413.212 19.698 417.056 21 422L22 422C21.0856 416.403 24.042 413.937 29 417L30 415L31 416L23 422L23 423C32.2081 422.291 32.8407 414.776 25 411z" id="path_640"/><path fill="#c39a68" stroke-width="1" d="M26 411L27 412L26 411M28 411L29 412L28 411M13 412L14 413L13 412M15 412L16 413L15 412M35 412L36 413L35 412M37 412L38 413L37 412z" id="path_641"/><path fill="#4d5c73" stroke-width="1" d="M41 412L34 422L33 422L34 418L33 418L22 440C27.6569 435.571 40.582 419.075 41 412z" id="path_642"/><path fill="#c39a68" stroke-width="1" d="M70 412L71 413L70 412M12 413L13 414L12 413M29 413L30 414L29 413M36 413L37 414L36 413M41 416L44 413L41 416M69 413L70 414L69 413M23 414L23 415L26 415L23 414M32 417L35 414L32 417z" id="path_643"/><path fill="#c29da6" stroke-width="1" d="M43 414C46.1022 419.655 54.1105 422.857 60 425L60 424L43 414z" id="path_644"/><path fill="#c39a68" stroke-width="1" d="M57.6667 414.333L58.3333 414.667L57.6667 414.333M67 414L68 415L67 414z" id="path_645"/><path fill="#6fa5d7" stroke-width="1" d="M82 414L81 418L85 419C85.4943 415.863 85.0359 415 82 414z" id="path_646"/><path fill="#c39a68" stroke-width="1" d="M11 415L12 416L11 415M13 415L14 416L13 415z" id="path_647"/><path fill="#c29da6" stroke-width="1" d="M22.6034 416.043C19.4171 418.419 23.2663 423.048 26.3966 420.778C29.5926 418.46 25.7182 413.72 22.6034 416.043z" id="path_648"/><path fill="#6fa5d7" stroke-width="1" d="M27 415L28 416L27 415z" id="path_649"/><path fill="#385e99" stroke-width="1" d="M29 415L29 418L31 417L31 416L29 415z" id="path_650"/><path fill="#c39a68" stroke-width="1" d="M35 415L36 416L35 415z" id="path_651"/><path fill="#c29da6" stroke-width="1" d="M40 415L39 418L40 415z" id="path_652"/><path fill="#4d5c73" stroke-width="1" d="M42 415L40 419L49 424L42 417L50 421L50 420L42 415z" id="path_653"/><path fill="#c39a68" stroke-width="1" d="M68 415L69 416L68 415M22 416L23 417L22 416z" id="path_654"/><path fill="#4d5c73" stroke-width="1" d="M23 420L24 420L24 417L26 420L27 417C23.9541 416.516 22.9268 416.823 23 420z" id="path_655"/><path fill="#c39a68" stroke-width="1" d="M26 416L27 417L26 416z" id="path_656"/><path fill="#4d5c73" stroke-width="1" d="M35 416L36 417L35 416z" id="path_657"/><path fill="#c39a68" stroke-width="1" d="M39 416L40 417L39 416M46 416L47 417L46 416M58.6667 416.333L59.3333 416.667L58.6667 416.333M63 416L64 417L63 416z" id="path_658"/><path fill="#385e99" stroke-width="1" d="M24 417L25 420L24 417z" id="path_659"/><path fill="#c39a68" stroke-width="1" d="M28.3333 417.667L28.6667 418.333L28.3333 417.667z" id="path_660"/><path fill="#4d5c73" stroke-width="1" d="M34 417L35 418L34 417z" id="path_661"/><path fill="#c39a68" stroke-width="1" d="M38 417L37 418L41 420L38 417z" id="path_662"/><path fill="#385e99" stroke-width="1" d="M42 417L58 428L42 417z" id="path_663"/><path fill="#c39a68" stroke-width="1" d="M45 417L46 418L45 417M65 417L66 418L65 417M9 418L12 420L9 418M66 418L67 419L66 418z" id="path_664"/><path fill="#c29da6" stroke-width="1" d="M9 419L6 425L7 425L9 419z" id="path_665"/><path fill="#c39a68" stroke-width="1" d="M22 419L23 420L22 419M26 419L27 420L26 419M32 419L33 420L32 419z" id="path_666"/><path fill="#c29da6" stroke-width="1" d="M37 419L24 439C29.0154 436.223 37.8438 424.816 37 419z" id="path_667"/><path fill="#6fa5d7" stroke-width="1" d="M48 419L49 420L48 419M76 419L70.044 441L72 456L66 456L66 457L79 460L79 459C73.015 453.96 89.7487 444.464 90 436L82 436C83.4021 433.578 85.1772 430.024 88 432L89 431L87 430L90 423L76 419M89.3333 419.667L89.6667 420.333L89.3333 419.667z" id="path_668"/><path fill="#4d5c73" stroke-width="1" d="M10 420L7 427C10.5027 428.238 12.1009 428.332 14 425L11 428L10 428L11 421L13 424L10 420z" id="path_669"/><path fill="#c39a68" stroke-width="1" d="M29 420L30 421L29 420M36 420L37 421L36 420z" id="path_670"/><path fill="#4d5c73" stroke-width="1" d="M38 420L27 439L39 446C45.2408 439.461 52.9273 439.718 55 429L50 431L54 430L39 445C36.4146 443.243 30.387 440.732 29.7546 437.334C29.2022 434.365 36.4097 422.995 39.777 423.631C42.1484 424.079 43.6469 429.517 46 431L44 423L38 420z" id="path_671"/><path fill="#c29da6" stroke-width="1" d="M40 420L40 421L45 423L45 422L40 420z" id="path_672"/><path fill="#c39a68" stroke-width="1" d="M42 420L43 421L42 420M50 420L51 421L50 420M9 421L10 422L9 421z" id="path_673"/><path fill="#385e99" stroke-width="1" d="M11 421L10 428L11 428L11 421z" id="path_674"/><path fill="#6fa5d7" stroke-width="1" d="M22 421L23 422L22 421z" id="path_675"/><path fill="#c39a68" stroke-width="1" d="M26 421L27 422L26 421M31 421L32 422L31 421M37 421L38 422L37 421M41 421L42 422L41 421M44 421L45 422L44 421z" id="path_676"/><path fill="#4d5c73" stroke-width="1" d="M51 421L51 422L58 428L52 425L52 426L60 427L60 426L51 421z" id="path_677"/><path fill="#c39a68" stroke-width="1" d="M52 421L53 422L52 421M62 421L63 422L62 421M64 421L65 422L64 421M28 422L29 423L28 422z" id="path_678"/><path fill="#385e99" stroke-width="1" d="M39 445C44.4975 438.77 51.0214 439.348 54 430C50.8941 430.459 47.2242 431.808 44.5718 429.443C42.8156 427.877 42 422.449 39.0262 422.921C35.3765 423.501 28.513 434.331 29.4576 437.826C30.4358 441.445 35.9861 443.504 39 445z" id="path_679"/><path fill="#c39a68" stroke-width="1" d="M43 422L44 423L43 422M45 422L44 425L47 425L45 422z" id="path_680"/><path fill="#6fa5d7" stroke-width="1" d="M54 422L55 423L54 422z" id="path_681"/><path fill="#c39a68" stroke-width="1" d="M57 422L58 423L57 422z" id="path_682"/><path fill="#385e99" stroke-width="1" d="M77 422C76.3721 424.652 73.9787 429.046 75.2377 431.681C78.4716 438.451 85.7335 427.763 87 425L77 422z" id="path_683"/><path fill="#c39a68" stroke-width="1" d="M7 423L7 425L9 423L7 423M27.3333 423.667L27.6667 424.333L27.3333 423.667z" id="path_684"/><path fill="#c29da6" stroke-width="1" d="M46 423L46 424L56 429L56 428L46 423z" id="path_685"/><path fill="#c39a68" stroke-width="1" d="M56 423L57 424L56 423M62.6667 423.333L63.3333 423.667L62.6667 423.333M5 424L6 430L17 435L18 438L19 438L21 434L8 429L5 424z" id="path_686"/><path fill="#6fa5d7" stroke-width="1" d="M13 424L14 425L13 424z" id="path_687"/><path fill="#385e99" stroke-width="1" d="M31 424L28 429L31 424z" id="path_688"/><path fill="#c39a68" stroke-width="1" d="M35 424L36 425L35 424z" id="path_689"/><path fill="#c29da6" stroke-width="1" d="M43 424C43.568 427.582 44.5083 428.943 48 430L48 429L43 424z" id="path_690"/><path fill="#4d5c73" stroke-width="1" d="M45 424C45.659 427.952 47.1092 428.886 51 428L51 427L45 424z" id="path_691"/><path fill="#c39a68" stroke-width="1" d="M49 424L50 425L49 424z" id="path_692"/><path fill="#4d5c73" stroke-width="1" d="M50 424L51 425L50 424z" id="path_693"/><path fill="#c39a68" stroke-width="1" d="M60 424L55 429L56 433L57 433L58 430L61 430L61 429L59 430L59 429L63 425L60 424M26 425L27 426L26 425M28.3333 425.667L28.6667 426.333L28.3333 425.667M32 425L33 426L32 425z" id="path_694"/><path fill="#6fa5d7" stroke-width="1" d="M44.3333 425.667L44.6667 426.333L44.3333 425.667z" id="path_695"/><path fill="#c39a68" stroke-width="1" d="M48 425L49 426L48 425z" id="path_696"/><path fill="#6fa5d7" stroke-width="1" d="M51 425L52 426L51 425z" id="path_697"/><path fill="#c29da6" stroke-width="1" d="M4.33333 426.667L4.66667 427.333L4.33333 426.667z" id="path_698"/><path fill="#385e99" stroke-width="1" d="M46 426L49 428L46 426z" id="path_699"/><path fill="#c39a68" stroke-width="1" d="M50 426L51 427L50 426z" id="path_700"/><path fill="#6fa5d7" stroke-width="1" d="M53 426L54 427L53 426z" id="path_701"/><path fill="#c29da6" stroke-width="1" d="M62 426L63 427L62 426z" id="path_702"/><path fill="#385e99" stroke-width="1" d="M89 426L89 431L88 432L87 430L82 436C89.3457 438.092 91.6657 432.353 89 426z" id="path_703"/><path fill="#c39a68" stroke-width="1" d="M31 427L32 428L31 427M44 427L45 428L44 427M51.3333 427.667L51.6667 428.333L51.3333 427.667M54 427L55 428L54 427z" id="path_704"/><path fill="#c29da6" stroke-width="1" d="M61 427L62 428L61 427z" id="path_705"/><path fill="#6fa5d7" stroke-width="1" d="M79 427L80 430L79 427z" id="path_706"/><path fill="#c29da6" stroke-width="1" d="M5 428L6 429L5 428M8.66667 428.333L9.33333 428.667L8.66667 428.333z" id="path_707"/><path fill="#c39a68" stroke-width="1" d="M13 428L14 429L13 428M24 428L25 429L24 428z" id="path_708"/><path fill="#6fa5d7" stroke-width="1" d="M30 428L31 429L30 428z" id="path_709"/><path fill="#c29da6" stroke-width="1" d="M50 428L49 430L51 430L50 428M59 428L59 430L61 428L59 428M7 429L8 430L7 429z" id="path_710"/><path fill="#c39a68" stroke-width="1" d="M26 429L27 430L26 429M48 429L46 430L46 431L48 429z" id="path_711"/><path fill="#c29da6" stroke-width="1" d="M8 430L9 431L8 430z" id="path_712"/><path fill="#c39a68" stroke-width="1" d="M23 430L22 432L24 432L23 430M25 430L26 431L25 430z" id="path_713"/><path fill="#385e99" stroke-width="1" d="M27 430L22 438L27 430z" id="path_714"/><path fill="#c39a68" stroke-width="1" d="M29 430L30 431L29 430M31 430L32 431L31 430z" id="path_715"/><path fill="#6fa5d7" stroke-width="1" d="M49 430L50 431L49 430z" id="path_716"/><path fill="#c29da6" stroke-width="1" d="M58 430L59 431L58 430M9 431L12 433L9 431z" id="path_717"/><path fill="#c39a68" stroke-width="1" d="M30 431L31 432L30 431z" id="path_718"/><path fill="#4d5c73" stroke-width="1" d="M36 431L37 432L36 431M47.6667 431.333L48.3333 431.667L47.6667 431.333z" id="path_719"/><path fill="#c29da6" stroke-width="1" d="M55 431L44 449L57 431L55 431M14 432L15 433L14 432z" id="path_720"/><path fill="#c39a68" stroke-width="1" d="M28 432L29 433L28 432z" id="path_721"/><path fill="#4d5c73" stroke-width="1" d="M34 432C28.3952 442.732 45.0061 442.836 41 433L40 433C41.7324 441.145 34.1761 439.741 34 432z" id="path_722"/><path fill="#c39a68" stroke-width="1" d="M35.6667 432.333L36.3333 432.667L35.6667 432.333z" id="path_723"/><path fill="#c29da6" stroke-width="1" d="M37 433.176C32.5181 432.73 32.976 438.843 37 439.418C41.6035 440.077 41.0044 433.574 37 433.176z" id="path_724"/><path fill="#4d5c73" stroke-width="1" d="M38 432L39 433L38 432z" id="path_725"/><path fill="#c39a68" stroke-width="1" d="M54 432L55 433L54 432z" id="path_726"/><path fill="#c29da6" stroke-width="1" d="M16.6667 433.333L17.3333 433.667L16.6667 433.333z" id="path_727"/><path fill="#c39a68" stroke-width="1" d="M21 433L22 434L21 433M23 433L24 434L23 433M27 433L28 434L27 433M39 433L40 434L39 433M22 434L23 435L22 434M28 434L29 435L28 434z" id="path_728"/><path fill="#4d5c73" stroke-width="1" d="M35 434C35.6388 437.649 37.1419 438.587 40 436L35 434z" id="path_729"/><path fill="#c39a68" stroke-width="1" d="M37 434L38 435L37 434M40 434L41 435L40 434z" id="path_730"/><path fill="#385e99" stroke-width="1" d="M73 434L72 444L79 436L73 434z" id="path_731"/><path fill="#c29da6" stroke-width="1" d="M16 435L17 436L16 435z" id="path_732"/><path fill="#c39a68" stroke-width="1" d="M21.3333 435.667L21.6667 436.333L21.3333 435.667M26 435L27 436L26 435M39 435L40 436L39 435M52 435L53 436L52 435M54 435L55 436L54 435M27 436L28 437L27 436z" id="path_733"/><path fill="#385e99" stroke-width="1" d="M36.6667 436.333L37.3333 436.667L36.6667 436.333z" id="path_734"/><path fill="#6fa5d7" stroke-width="1" d="M41 436L42 437L41 436z" id="path_735"/><path fill="#c39a68" stroke-width="1" d="M53 436L54 437L53 436M20 437L18 440L21 442L35 445L36 448L44 450L44 451L42 451L42 452L46 449L40 445L30 442C27.7258 438.592 25.7169 438.622 22 440L20 437M39 437L40 438L39 437M41 437L42 438L41 437M51 437L52 438L51 437z" id="path_736"/><path fill="#385e99" stroke-width="1" d="M80 437C78.1742 439.252 74.1569 442.728 74.2029 445.852C74.3378 455.002 86.8787 441.949 88 439L80 437z" id="path_737"/><path fill="#c39a68" stroke-width="1" d="M36 438L37 439L36 438M38 438L39 439L38 438M50 438L51 439L50 438M35 439L36 440L35 439M51 439L52 440L51 439z" id="path_738"/><path fill="#6fa5d7" stroke-width="1" d="M19 440L20 441L19 440z" id="path_739"/><path fill="#c29da6" stroke-width="1" d="M20.6667 440.333L21.3333 440.667L20.6667 440.333M29 440L30 441L29 440z" id="path_740"/><path fill="#4d5c73" stroke-width="1" d="M20 441L21 442L20 441z" id="path_741"/><path fill="#c29da6" stroke-width="1" d="M22 441L23 442L22 441z" id="path_742"/><path fill="#4d5c73" stroke-width="1" d="M24 441L21 442L21 443L24 441z" id="path_743"/><path fill="#c29da6" stroke-width="1" d="M26 441L28 443L26 441M30 441L31 442L30 441z" id="path_744"/><path fill="#c39a68" stroke-width="1" d="M50 441L51 442L50 441z" id="path_745"/><path fill="#6fa5d7" stroke-width="1" d="M81 441L81 443L83 443L83 441L81 441z" id="path_746"/><path fill="#4d5c73" stroke-width="1" d="M26 442L27 443L26 442z" id="path_747"/><path fill="#c39a68" stroke-width="1" d="M42 442L42 443L45 446L48 442L42 442z" id="path_748"/><path fill="#c29da6" stroke-width="1" d="M43 442L43 443L46 443L43 442z" id="path_749"/><path fill="#c39a68" stroke-width="1" d="M49 442L50 443L49 442z" id="path_750"/><path fill="#385e99" stroke-width="1" d="M89 442C83.215 449.571 67.3228 459.944 87 460L89 442z" id="path_751"/><path fill="#4d5c73" stroke-width="1" d="M27 443L27 444L31 445L31 444L27 443z" id="path_752"/><path fill="#c29da6" stroke-width="1" d="M29.6667 443.333L30.3333 443.667L29.6667 443.333z" id="path_753"/><path fill="#6fa5d7" stroke-width="1" d="M40 443L41 444L40 443z" id="path_754"/><path fill="#c29da6" stroke-width="1" d="M40 446L41 446L43 444L40 446z" id="path_755"/><path fill="#6fa5d7" stroke-width="1" d="M36 444L37 445L36 444z" id="path_756"/><path fill="#c39a68" stroke-width="1" d="M41 444L42 445L41 444z" id="path_757"/><path fill="#4d5c73" stroke-width="1" d="M42 444L44 449L46 444L45 444L42 447L42 444z" id="path_758"/><path fill="#385e99" stroke-width="1" d="M42 447L45 444L42 447z" id="path_759"/><path fill="#c39a68" stroke-width="1" d="M48 444L49 445L48 444z" id="path_760"/><path fill="#4d5c73" stroke-width="1" d="M31.6667 445.333L32.3333 445.667L31.6667 445.333z" id="path_761"/><path fill="#c29da6" stroke-width="1" d="M34 445L35 446L34 445z" id="path_762"/><path fill="#4d5c73" stroke-width="1" d="M33 446L36 448L33 446z" id="path_763"/><path fill="#c39a68" stroke-width="1" d="M46.3333 446.667L46.6667 447.333L46.3333 446.667z" id="path_764"/><path fill="#6fa5d7" stroke-width="1" d="M77 446L78 447L77 446z" id="path_765"/><path fill="#c29da6" stroke-width="1" d="M37 447L37 448L44 451L44 450L37 447z" id="path_766"/><path fill="#c39a68" stroke-width="1" d="M44 447L45 448L44 447z" id="path_767"/><path fill="#4d5c73" stroke-width="1" d="M36.6667 448.333L37.3333 448.667L36.6667 448.333M89 448L89 455L90 455L89 448M38 449L41 451L41 450L38 449z" id="path_768"/><path fill="#c39a68" stroke-width="1" d="M39 449L40 450L39 449z" id="path_769"/><path fill="#4d5c73" stroke-width="1" d="M50 452L51 452L55 450L54 455L51 453C50.4571 456.27 54.645 455.778 55.4398 452.94C56.6944 448.46 51.5225 449.244 50 452z" id="path_770"/><path fill="#c39a68" stroke-width="1" d="M51 455L54 455L55 450C51.5975 450.593 50.8615 451.558 51 455z" id="path_771"/><path fill="#c29da6" stroke-width="1" d="M89.3333 450.667L89.6667 451.333L89.3333 450.667z" id="path_772"/><path fill="#4d5c73" stroke-width="1" d="M41 451L42 452L41 451M87 455L87 460L88 460L87 455z" id="path_773"/><path fill="#c39a68" stroke-width="1" d="M88 455L89 456L88 455z" id="path_774"/><path fill="#c29da6" stroke-width="1" d="M89 455C87.8781 457.66 87.6063 458.334 90 460L89 455z" id="path_775"/><path fill="#4d5c73" stroke-width="1" d="M57 460L60 459L57 460z" id="path_776"/><path fill="#c39a68" stroke-width="1" d="M58 459L58 460L63 460L58 459z" id="path_777"/><path fill="#4d5c73" stroke-width="1" d="M62 458L64 460L64 458L62 458z" id="path_778"/></svg>