<svg id="vector" xmlns="http://www.w3.org/2000/svg" width="90" height="460" viewBox="0 0 90 460"><path fill="#c9f3f5" stroke-width="1" d="M0 0L0 254L8 256L8 257L0 256C0 262.89 -3.3466 281.047 4 284L4 285L0 285C0 292.822 -4.09876 318.014 5 320L5 321L0 321L1.02778 341.397L13 344L44 345L43 341C56.0892 349.234 75.1782 344 90 344C90 332.856 87.3898 329.885 76 332L76 326L77 326L77 329L90 331L90 314L77 316L78 312L88.9722 311.258L90 296L90 254L90 55L89 55C85.3905 62.6175 82.4835 69.4502 84 78C78.7516 75.106 79.2202 68.0602 81.4028 63C83.6183 57.8635 88.4656 53.4532 89.6968 48C92.9834 33.4417 90 14.9414 90 0L41 0L40 13L39 13L39 0L0 0z" id="path_0"/><path fill="#c69d37" stroke-width="1" d="M39 0L39 13L40 13L41 0L39 0M55 18L64 15L64 11L55 18M9 12C10.6442 16.6383 15.3535 18.4861 20 19L9 12M34 16.5332C13.9437 20.9295 19.2536 52.8822 40 48.4822C60.3037 44.1761 54.507 12.0381 34 16.5332z" id="path_1"/><path fill="#c9f3f5" stroke-width="1" d="M30 23L27 29L28 29L30 23M36 29L34 32L36 29z" id="path_2"/><path fill="#c69d37" stroke-width="1" d="M58 30L58 31L72 31L72 29L58 30M2 32L15 32C11.0849 30.3418 5.63968 29.6201 2 32z" id="path_3"/><path fill="#c9f3f5" stroke-width="1" d="M41 30L42 31L41 30M26 31L27 38L28 38L26 31M33 34C34.3844 37.7676 36.044 38.6953 40 39L40 35L37 38L33 34M44.3333 35.6667L44.6667 36.3333L44.3333 35.6667M28 39L32 43L28 39M43 40L44 41L43 40M42 42L43 43L42 42M34 43L34 44L38 44L34 43z" id="path_4"/><path fill="#c69d37" stroke-width="1" d="M56 44L67 50L67 49L56 44M19 47L12 55C15.864 53.9116 19.8937 51.4509 19 47M89 50C84.8863 55.2382 72.6507 74.2332 84 78L89 50M36 52L37 65L38 65L36 52z" id="path_5"/><path fill="#5c9b37" stroke-width="1" d="M0 254L8 257L8 256L0 254z" id="path_6"/><path fill="#c69d37" stroke-width="1" d="M2.66667 254.333L3.33333 254.667L2.66667 254.333M5.66667 255.333L6.33333 255.667L5.66667 255.333M3 256L4 257L3 256z" id="path_7"/><path fill="#5c9b37" stroke-width="1" d="M8 257L8 258L20 265C16.9233 260.755 13.2888 257.72 8 257z" id="path_8"/><path fill="#c69d37" stroke-width="1" d="M10 258L11 259L10 258M12 258L13 259L12 258M17 261L18 262L17 261M18 262L19 263L18 262M19 263L20 264L19 263M20 265L21 266L20 265z" id="path_9"/><path fill="#5c9b37" stroke-width="1" d="M20 266L22 269L20 266z" id="path_10"/><path fill="#c69d37" stroke-width="1" d="M22 268L22 272L28 272L28 271L22 268z" id="path_11"/><path fill="#5c9b37" stroke-width="1" d="M22 270L23 271L22 270M23 271L39 273L39 272L23 271z" id="path_12"/><path fill="#c69d37" stroke-width="1" d="M39.3333 272.667L39.6667 273.333L39.3333 272.667z" id="path_13"/><path fill="#5c9b37" stroke-width="1" d="M40 273L40 274L48 278L48 277L40 273z" id="path_14"/><path fill="#c69d37" stroke-width="1" d="M43 273L44 274L43 273M41 274L42 275L41 274M43 275L44 276L43 275M45 275L46 276L45 275M47 278L48 279L47 278z" id="path_15"/><path fill="#5c9b37" stroke-width="1" d="M48.3333 279.667L48.6667 280.333L48.3333 279.667z" id="path_16"/><path fill="#c69d37" stroke-width="1" d="M49.3333 280.667L49.6667 281.333L49.3333 280.667z" id="path_17"/><path fill="#5c9b37" stroke-width="1" d="M50.3333 281.667L50.6667 282.333L50.3333 281.667z" id="path_18"/><path fill="#c69d37" stroke-width="1" d="M51 282L50 284L52 284L51 282M0 283L4 285L4 284L0 283z" id="path_19"/><path fill="#5c9b37" stroke-width="1" d="M51 284L52 285L51 284z" id="path_20"/><path fill="#c69d37" stroke-width="1" d="M4 285L4 286L15 296L16 296C13.6969 290.598 9.80835 286.394 4 285M52 286L54 289L52 286z" id="path_21"/><path fill="#5c9b37" stroke-width="1" d="M52 288L66 293L66 292L52 288z" id="path_22"/><path fill="#c69d37" stroke-width="1" d="M58 289L59 290L58 289M52 290L52 291L55 291L52 290M61 290L62 291L61 290M58 291L59 292L58 291M61 292L62 293L61 292M66 292L67 293L66 292z" id="path_23"/><path fill="#5c9b37" stroke-width="1" d="M67 293L67 294L73 297L67 293z" id="path_24"/><path fill="#c69d37" stroke-width="1" d="M69 293L70 294L69 293M71 294L72 295L71 294M71 296L72 297L71 296M73 296L76 300L76 297L73 296M16 297L16 300L19 299C22.0828 302.528 28.6457 300.736 33 301.093C38.9959 301.585 43.3151 304.415 47 309L48 309C42.4594 296.681 26.8589 300.388 16 297z" id="path_25"/><path fill="#5c9b37" stroke-width="1" d="M74 297L75 298L74 297M16 298L17 299L16 298M75 298L76 299L75 298M17.6667 299.333L18.3333 299.667L17.6667 299.333M76 300L77 301L76 300M77.3333 301.667L77.6667 302.333L77.3333 301.667z" id="path_26"/><path fill="#c69d37" stroke-width="1" d="M78 302L79 311L80 311L78 302M78 312L79 313L78 312M87 314L90 314L89 312L87 314z" id="path_27"/><path fill="#5c9b37" stroke-width="1" d="M89 312L90 313L89 312z" id="path_28"/><path fill="#c69d37" stroke-width="1" d="M47 314C50.8767 316.535 55.5325 314.872 60 315.551C66.5053 316.54 71.0444 319.92 75 325C76.7265 313.177 54.0642 313.166 47 314z" id="path_29"/><path fill="#5c9b37" stroke-width="1" d="M77 314L77 315L87 314L77 314z" id="path_30"/><path fill="#c69d37" stroke-width="1" d="M82 314L83 315L82 314z" id="path_31"/><path fill="#5c9b37" stroke-width="1" d="M47.6667 315.333L48.3333 315.667L47.6667 315.333M60 315L60 316L63 316L60 315z" id="path_32"/><path fill="#1a4c3f" stroke-width="1" d="M77 315L78 316L77 315z" id="path_33"/><path fill="#c69d37" stroke-width="1" d="M0 319L0 320L5 321L5 320L0 319z" id="path_34"/><path fill="#5c9b37" stroke-width="1" d="M0 320L1 321L0 320z" id="path_35"/><path fill="#c69d37" stroke-width="1" d="M6 321L6 322L25.1736 335.998L43 341L25.7145 334.088L6 321z" id="path_36"/><path fill="#5c9b37" stroke-width="1" d="M8 322L9 323L8 322z" id="path_37"/><path fill="#c69d37" stroke-width="1" d="M76 326L76 331L78 332L90 333L76 326z" id="path_38"/><path fill="#5c9b37" stroke-width="1" d="M77 330L76 332L78 332L77 330M24 336L25 337L24 336M35 336L36 337L35 336z" id="path_39"/><path fill="#c69d37" stroke-width="1" d="M43 341L45 344C31.4315 347.23 13.4506 345.239 0 342C0.978446 346.566 6.19622 344.694 10 345.222C18.8533 346.452 28.044 347 37 347C40.2283 347 44.2887 347.97 46 345C59.2516 350.615 76.1302 345.519 90 345L90 344C73.7958 344 58.1082 347.555 43 341z" id="path_40"/><path fill="#5c9b37" stroke-width="1" d="M44 343L45 344L44 343M45 344L46 345L45 344z" id="path_41"/><path fill="#29b0c4" stroke-width="1" d="M0 345C0 351.544 -3.13217 369.113 1.02778 374.258C3.07574 376.791 8.99968 376.443 12 377C12.9574 372.568 7.31078 361.369 10.4915 358.85C18.6614 352.381 28.8396 373.827 33.3758 376.86C38.0126 379.959 45.6926 378.998 51 379C67.5053 379.005 78.2265 379.827 88 365L85 364C91.9114 360.282 90 352.954 90 346C59.8964 348.376 29.9621 350.562 0 345z" id="path_42"/><path fill="#5c9b37" stroke-width="1" d="M2 345L2 346L90 346L90 345C75.235 345.186 60.4778 349.518 46 345C36.7301 352.023 13.235 345.001 2 345z" id="path_43"/><path fill="#c9f3f5" stroke-width="1" d="M26 348L27 349L26 348z" id="path_44"/><path fill="#1a4c3f" stroke-width="1" d="M48 348L49 349L48 348M9 361C21.8493 357.352 35.6456 381.085 34 392C37.1172 389.276 35.8784 384.69 35 381L76 381L76 393L57 391.109L36 393C33.7998 400.433 27.2252 402.423 25 394L24 394C23.9913 397.028 24.0434 406.668 19 405L18 405L20 418L21 418L32 402C41.7168 402.068 54.3886 388.718 64 396C74.0979 396.302 83.9676 404.505 87 414C78.6895 411.778 71.6949 409.902 63 409.996C57.3309 410.057 53.6568 413.566 49 409L48 409L49 413L36 417L36 418L90 417L90 400L82 401L84 398L80 399C79.0595 391.558 78.3076 384.072 81.5679 377C84.062 371.59 89.0709 368.026 90 362L85 364L88 365C84.7236 368.587 82.0128 373.665 77.8156 376.235C69.8396 381.12 42.3716 381.793 34.2091 376.846C29.6683 374.094 27.4695 367.864 23.8156 364.104C20.4099 360.6 11.5741 353.706 9 361z" id="path_45"/><path fill="#5c9b37" stroke-width="1" d="M8 360C11.9189 375.614 18.1482 388.313 17 405L0 389C0 394.406 -2.24518 406.29 2 410L1 413L4 418C-2.05688 420.01 0.190066 428.718 0 434L12 433L0 453L0 454L5 454C1.99199 446.087 6.18153 443.414 12 439L16.5887 458.972L33 460L35 437L32 434L34 435L33 433L34 433C43.9741 439.473 46.4961 452.04 54.8781 458.682C58.3766 461.454 71.169 461.24 74 458L72 459L72 458L69 448L64 443L67 445L57 440L57 433L45.7145 426.181L25 422L25 421L49 413L48 409L49 409C52.5452 414.394 56.5108 410.784 61.7145 410.328C69.9874 409.603 77.2687 411.117 85 414C83.9948 410.984 83.1789 409.295 86 410C81.7645 402.79 72.8976 394.883 64 396C56.791 387.75 39.9685 401.471 32 402L21 418L20 418L18 405L19 405L20 407C23.9288 402.992 23.9964 399.409 24 394L25 394C27.0054 406.477 38.8537 396.26 34 392C37.4583 378.161 21.371 359.948 8 360M22 362L23 363L22 362M23 363L24 364L23 363z" id="path_46"/><path fill="#c9f3f5" stroke-width="1" d="M89 366L80 381L90 383L89 366z" id="path_47"/><path fill="#5c9b37" stroke-width="1" d="M87 368L88 369L87 368z" id="path_48"/><path fill="#c69d37" stroke-width="1" d="M86 369L87 370L86 369z" id="path_49"/><path fill="#5c9b37" stroke-width="1" d="M85 370L86 371L85 370M84 371L85 372L84 371M83 373L84 374L83 373M82 374L83 375L82 374z" id="path_50"/><path fill="#1a4c3f" stroke-width="1" d="M0 375C1.86686 380.309 10.0667 379.788 15 380L13 376L0 375z" id="path_51"/><path fill="#29b0c4" stroke-width="1" d="M82 375L83 376L82 375M0 378C0.11597 387.82 7.68353 392.967 17 393C16.4293 379.709 11.6594 380.166 0 378z" id="path_52"/><path fill="#5c9b37" stroke-width="1" d="M80 378L81 379L80 378z" id="path_53"/><path fill="#29b0c4" stroke-width="1" d="M35 381C35.6231 384.356 35.0125 390.929 37.6034 393.358C42.219 397.685 51.9501 391.756 57 391.228C63.2817 390.571 69.4713 393.694 76 393L76 381L35 381z" id="path_54"/><path fill="#c69d37" stroke-width="1" d="M80 381L80 398L90 399C90 389.417 91.8361 381.542 80 381z" id="path_55"/><path fill="#5c9b37" stroke-width="1" d="M79 384L80 385L79 384z" id="path_56"/><path fill="#1a4c3f" stroke-width="1" d="M0 385C1.05242 391.522 11.9484 400.441 17 405L18 392C10.1832 393.834 6.22782 389.002 0 385M24.3333 390.667L24.6667 391.333L24.3333 390.667M9 391L10 392L9 391z" id="path_57"/><path fill="#5c9b37" stroke-width="1" d="M79 395L80 396L79 395z" id="path_58"/><path fill="#c69d37" stroke-width="1" d="M52 398L52 400L54 398L52 398z" id="path_59"/><path fill="#5c9b37" stroke-width="1" d="M80 398L81 399L80 398M82 401L90 400C86.7854 398.506 84.615 398.622 82 401M34 399L35 400L34 399z" id="path_60"/><path fill="#1a4c3f" stroke-width="1" d="M8 401L9 402L8 401M10 404L12 406L10 404z" id="path_61"/><path fill="#c69d37" stroke-width="1" d="M5.66667 405.333L6.33333 405.667L5.66667 405.333z" id="path_62"/><path fill="#1a4c3f" stroke-width="1" d="M12 407L13 413L15 414L16 414L12 407z" id="path_63"/><path fill="#c69d37" stroke-width="1" d="M84 409L84 411L86 411L84 409z" id="path_64"/><path fill="#1a4c3f" stroke-width="1" d="M0 410L0 419L4 418L2 410L0 410z" id="path_65"/><path fill="#c9f3f5" stroke-width="1" d="M84 411L87 414L84 411z" id="path_66"/><path fill="#5c9b37" stroke-width="1" d="M86 411L87 412L86 411z" id="path_67"/><path fill="#c69d37" stroke-width="1" d="M84 412L85 413L84 412z" id="path_68"/><path fill="#1a4c3f" stroke-width="1" d="M16 415L18 423L19 423L16 415z" id="path_69"/><path fill="#5c9b37" stroke-width="1" d="M64 417L64 418L76 418L64 417z" id="path_70"/><path fill="#c69d37" stroke-width="1" d="M76 417L76 418L80 418L76 417z" id="path_71"/><path fill="#c9f3f5" stroke-width="1" d="M32 418L32 420C51.5118 421.701 69.0139 441.779 74 460L90 460L90 417L32 418z" id="path_72"/><path fill="#c69d37" stroke-width="1" d="M31 418L30 420L32 420L31 418z" id="path_73"/><path fill="#1a4c3f" stroke-width="1" d="M25 421L25 422C38.0563 422.001 45.4744 427.062 56 434C50.9087 423.12 36.0863 418.972 25 421z" id="path_74"/><path fill="#5c9b37" stroke-width="1" d="M33.6667 420.333L34.3333 420.667L33.6667 420.333z" id="path_75"/><path fill="#c69d37" stroke-width="1" d="M35.6667 420.333L36.3333 420.667L35.6667 420.333z" id="path_76"/><path fill="#5c9b37" stroke-width="1" d="M37.6667 421.333L38.3333 421.667L37.6667 421.333z" id="path_77"/><path fill="#c69d37" stroke-width="1" d="M39 421L40 422L39 421z" id="path_78"/><path fill="#5c9b37" stroke-width="1" d="M43 422L44 423L43 422M44 423L45 424L44 423z" id="path_79"/><path fill="#c69d37" stroke-width="1" d="M45.6667 423.333L46.3333 423.667L45.6667 423.333M47.3333 424.667L47.6667 425.333L47.3333 424.667z" id="path_80"/><path fill="#1a4c3f" stroke-width="1" d="M30.6667 425.333L31.3333 425.667L30.6667 425.333z" id="path_81"/><path fill="#5c9b37" stroke-width="1" d="M50 426L51 427L50 426M51 427L52 428L51 427z" id="path_82"/><path fill="#c69d37" stroke-width="1" d="M0.333333 428.667L0.666667 429.333L0.333333 428.667M52 428L53 429L52 428M53 429L54 430L53 429z" id="path_83"/><path fill="#1a4c3f" stroke-width="1" d="M30 430L31 434L32 434L30 430z" id="path_84"/><path fill="#5c9b37" stroke-width="1" d="M54 430L56 432L54 430z" id="path_85"/><path fill="#c69d37" stroke-width="1" d="M55 430L56 431L55 430z" id="path_86"/><path fill="#c9f3f5" stroke-width="1" d="M3 432L0 438L3 432z" id="path_87"/><path fill="#c69d37" stroke-width="1" d="M1 433L2 434L1 433M4 433L5 434L4 433z" id="path_88"/><path fill="#1a4c3f" stroke-width="1" d="M0 447L12 433C2.8723 433.755 0.00670725 438.325 0 447z" id="path_89"/><path fill="#c69d37" stroke-width="1" d="M33.6667 433.333L34.3333 433.667L33.6667 433.333z" id="path_90"/><path fill="#1a4c3f" stroke-width="1" d="M32 434L33 438L34 438L32 434z" id="path_91"/><path fill="#c9f3f5" stroke-width="1" d="M34 434L33 460L55 460C50.8669 450.77 44.1727 437.487 34 434z" id="path_92"/><path fill="#c69d37" stroke-width="1" d="M36 434L37 435L36 434z" id="path_93"/><path fill="#1a4c3f" stroke-width="1" d="M56 434L57 440L64 443L56 434z" id="path_94"/><path fill="#c69d37" stroke-width="1" d="M58 434L59 435L58 434M3 435L4 436L3 435M38 435L39 436L38 435M59 435L61 438L59 435M2 436L3 437L2 436M34 436L35 437L34 436M39 436L40 437L39 436M1 437L2 438L1 437z" id="path_95"/><path fill="#5c9b37" stroke-width="1" d="M59 437L60 438L59 437z" id="path_96"/><path fill="#1a4c3f" stroke-width="1" d="M34.3333 438.667L34.6667 439.333L34.3333 438.667z" id="path_97"/><path fill="#c69d37" stroke-width="1" d="M35.3333 438.667L35.6667 439.333L35.3333 438.667M62 438L63 439L62 438M11 439C5.53298 443.212 1.28225 446.752 5 454L0 454L0 460C5.90064 457.96 14.6129 444.854 11 439M41 439L42 440L41 439z" id="path_98"/><path fill="#5c9b37" stroke-width="1" d="M62 439L63 440L62 439z" id="path_99"/><path fill="#c69d37" stroke-width="1" d="M14 440L15 441L14 440M42 440L43 441L42 440z" id="path_100"/><path fill="#5c9b37" stroke-width="1" d="M63 440L64 441L63 440z" id="path_101"/><path fill="#c69d37" stroke-width="1" d="M35.3333 441.667L35.6667 442.333L35.3333 441.667M43 441L44 442L43 441z" id="path_102"/><path fill="#1a4c3f" stroke-width="1" d="M34 442L35 443L34 442z" id="path_103"/><path fill="#c69d37" stroke-width="1" d="M44 442L45 443L44 442z" id="path_104"/><path fill="#c9f3f5" stroke-width="1" d="M12 443L3 460L15 460L12 443z" id="path_105"/><path fill="#c69d37" stroke-width="1" d="M23 443L23 447L24 447L23 443z" id="path_106"/><path fill="#1a4c3f" stroke-width="1" d="M64 443L68 448L64 443z" id="path_107"/><path fill="#c69d37" stroke-width="1" d="M45 444L46 445L45 444z" id="path_108"/><path fill="#1a4c3f" stroke-width="1" d="M34 445L34 448L35 448L34 445z" id="path_109"/><path fill="#c69d37" stroke-width="1" d="M46 445L47 446L46 445M67 445L68 446L67 445M56 447L57 448L56 447M68 447L69 448L68 447z" id="path_110"/><path fill="#1a4c3f" stroke-width="1" d="M34 449L35 450L34 449z" id="path_111"/><path fill="#c69d37" stroke-width="1" d="M68 449L69 450L68 449z" id="path_112"/><path fill="#1a4c3f" stroke-width="1" d="M0 450L0 453L2 453L2 450L0 450z" id="path_113"/><path fill="#c69d37" stroke-width="1" d="M13 450L13 454L14 454L13 450M30 450L31 451L30 450M50 450L51 451L50 450z" id="path_114"/><path fill="#1a4c3f" stroke-width="1" d="M68 450L72 455L68 450z" id="path_115"/><path fill="#c69d37" stroke-width="1" d="M70 450L71 451L70 450z" id="path_116"/><path fill="#1a4c3f" stroke-width="1" d="M27 451L27 454L28 454L27 451z" id="path_117"/><path fill="#5c9b37" stroke-width="1" d="M71 452L72 453L71 452z" id="path_118"/><path fill="#c69d37" stroke-width="1" d="M34 454L35 455L34 454M72 455L73 456L72 455M33 456L34 457L33 456z" id="path_119"/><path fill="#1a4c3f" stroke-width="1" d="M72.3333 457.667L72.6667 458.333L72.3333 457.667z" id="path_120"/><path fill="#c69d37" stroke-width="1" d="M73 457L74 458L73 457M54 458L55 459L54 458M15 459L16 460L15 459z" id="path_121"/></svg>