<svg id="vector" xmlns="http://www.w3.org/2000/svg" width="90" height="460" viewBox="0 0 90 460"><path fill="#d6dde1" stroke-width="1" d="M0 0L0 83C0 96.3223 -2.49702 109.934 6 121L0 120L0 344L1 344L9 328L7 328L19 306L21 306C22.8076 310.776 34.4523 324.147 30 328L38 345L33 345L45 365L33 362L30 369C22.1747 363.742 19.0213 364.096 11 369L9 364C-3.25117 368.579 0 378.361 0 390L0 460L42 460L38 441C34.0128 440.826 16.4932 433.639 27.2284 429.693C32.4007 427.792 39.195 430.985 45 429.226C47.2932 428.531 50.3124 426.548 52.7708 427.417C59.2722 429.717 52.7768 436.133 50 438C52.8182 446.331 60.0581 456.924 47 459L47 460L90 460L90 211L72 222C77.3188 216.447 83.537 213.458 84 205L86 205L86 209L90 209L90 89L83 90C91.4986 79.2821 90 69.0876 90 56L90 0L0 0z" id="path_0"/><path fill="#aaacb3" stroke-width="1" d="M43 3L43 4L46 4L43 3z" id="path_1"/><path fill="#8b9aa3" stroke-width="1" d="M41 4L42 5L41 4z" id="path_2"/><path fill="#655259" stroke-width="1" d="M42.1474 4.7616C36.5779 7.01422 40.2816 15.4792 45.8943 13.3773C52.1069 11.0508 48.0455 2.37604 42.1474 4.7616z" id="path_3"/><path fill="#8b9aa3" stroke-width="1" d="M47 4L48 5L47 4M48 5L49 6L48 5z" id="path_4"/><path fill="#aaacb3" stroke-width="1" d="M49 6L50 7L49 6M38 7L38 10L39 10L38 7z" id="path_5"/><path fill="#8b9aa3" stroke-width="1" d="M49 7L50 8L49 7M49 10L50 11L49 10M39 11L40 12L39 11z" id="path_6"/><path fill="#aaacb3" stroke-width="1" d="M49 11L50 12L49 11M39 12L40 13L39 12M48 12L49 13L48 12M37 13L38 14L37 13z" id="path_7"/><path fill="#d54544" stroke-width="1" d="M30 22L53 23C49.6673 11.7881 33.5394 9.50278 30 22z" id="path_8"/><path fill="#aaacb3" stroke-width="1" d="M47 13L48 14L47 13M35 14L36 15L35 14M48 14L49 15L48 14M49 15L50 16L49 15M50 16L51 17L50 16M31 17L32 18L31 17M30 18L31 19L30 18z" id="path_9"/><path fill="#8b9aa3" stroke-width="1" d="M51 18L52 19L51 18z" id="path_10"/><path fill="#aaacb3" stroke-width="1" d="M52 19L53 20L52 19z" id="path_11"/><path fill="#8b9aa3" stroke-width="1" d="M29 20L30 21L29 20M52 20L53 21L52 20z" id="path_12"/><path fill="#aaacb3" stroke-width="1" d="M28 21L29 22L28 21z" id="path_13"/><path fill="#655259" stroke-width="1" d="M29 21C27.7408 23.5057 24.9819 27.623 27.0432 30.3966C29.0525 33.1002 35.0982 31.9879 38 32.0008C46.0838 32.0366 55.6376 34.2369 53 23L29 21z" id="path_14"/><path fill="#8b9aa3" stroke-width="1" d="M28 22L29 23L28 22z" id="path_15"/><path fill="#aaacb3" stroke-width="1" d="M53.3333 22.6667L53.6667 23.3333L53.3333 22.6667z" id="path_16"/><path fill="#8b9aa3" stroke-width="1" d="M27 23L28 24L27 23M53 24L54 25L53 24M26 25L27 26L26 25z" id="path_17"/><path fill="#aaacb3" stroke-width="1" d="M25 27L25 30L26 30L25 27M54 27L54 31L55 31L54 27M26 31L27 32L26 31z" id="path_18"/><path fill="#8b9aa3" stroke-width="1" d="M53 31L54 32L53 31z" id="path_19"/><path fill="#aaacb3" stroke-width="1" d="M29 32L30 33L29 32M40.6667 32.3333L41.3333 32.6667L40.6667 32.3333z" id="path_20"/><path fill="#8b9aa3" stroke-width="1" d="M42 32L42 33L46 33L42 32M47 32L47 33L50 33L47 32z" id="path_21"/><path fill="#aaacb3" stroke-width="1" d="M50 32L51 33L50 32z" id="path_22"/><path fill="#8b9aa3" stroke-width="1" d="M33 34L35 37L33 34z" id="path_23"/><path fill="#655259" stroke-width="1" d="M34 34L34 36L36 36L34 34z" id="path_24"/><path fill="#8b9aa3" stroke-width="1" d="M35 34L36 35L35 34z" id="path_25"/><path fill="#aaacb3" stroke-width="1" d="M43 34L44 35L43 34z" id="path_26"/><path fill="#655259" stroke-width="1" d="M42 35L42 37L44 37L44 35L42 35z" id="path_27"/><path fill="#8b9aa3" stroke-width="1" d="M44.3333 35.6667L44.6667 36.3333L44.3333 35.6667z" id="path_28"/><path fill="#aaacb3" stroke-width="1" d="M43 37L44 38L43 37M34 38L35 39L34 38z" id="path_29"/><path fill="#8b9aa3" stroke-width="1" d="M35.6667 38.3333L36.3333 38.6667L35.6667 38.3333z" id="path_30"/><path fill="#aaacb3" stroke-width="1" d="M37 38L38 39L37 38M30.6667 39.3333L31.3333 39.6667L30.6667 39.3333z" id="path_31"/><path fill="#d54544" stroke-width="1" d="M26 43C31.1754 43.4084 36.8917 45.6413 38 39C33.5509 39.0919 28.5688 38.992 26 43z" id="path_32"/><path fill="#aaacb3" stroke-width="1" d="M24 40L24 41L27 41L24 40z" id="path_33"/><path fill="#8b9aa3" stroke-width="1" d="M24 41L26 43L24 41z" id="path_34"/><path fill="#655259" stroke-width="1" d="M25 41L26 42L25 41z" id="path_35"/><path fill="#aaacb3" stroke-width="1" d="M38 41L39 42L38 41z" id="path_36"/><path fill="#8b9aa3" stroke-width="1" d="M44 42L42 45L44 42z" id="path_37"/><path fill="#aaacb3" stroke-width="1" d="M28 43L28 44L31 44L28 43z" id="path_38"/><path fill="#8b9aa3" stroke-width="1" d="M37 43L38 44L37 43z" id="path_39"/><path fill="#655259" stroke-width="1" d="M44 43L39 46L39 47L44 43z" id="path_40"/><path fill="#aaacb3" stroke-width="1" d="M44 44L45 45L44 44M39 45L40 46L39 45z" id="path_41"/><path fill="#8b9aa3" stroke-width="1" d="M40 45L41 46L40 45z" id="path_42"/><path fill="#aaacb3" stroke-width="1" d="M43 45L44 46L43 45M51 45L51 46L55 47L55 46L51 45z" id="path_43"/><path fill="#8b9aa3" stroke-width="1" d="M69 45L69 49L70 49L69 45z" id="path_44"/><path fill="#655259" stroke-width="1" d="M70 45L71 46L70 45z" id="path_45"/><path fill="#8b9aa3" stroke-width="1" d="M41 46L42 47L41 46z" id="path_46"/><path fill="#aaacb3" stroke-width="1" d="M49 46L50 47L49 46z" id="path_47"/><path fill="#d54544" stroke-width="1" d="M38 59C38.3724 63.7191 37.9216 72.661 41.1397 76.3966C44.1169 79.8527 52.794 77.9311 54.3812 73.8665C56.4184 68.6494 51.1244 64.0638 50.9514 59.1042C50.8293 55.6034 58.3746 50.5799 53.3966 47.071C50.0168 44.6886 42.747 49.4395 39 49.8009C35.5387 50.1348 28.5194 46.824 25.8981 49.6427C19.0742 56.9808 34.2462 58.9975 38 59z" id="path_48"/><path fill="#aaacb3" stroke-width="1" d="M47 47L48 48L47 47z" id="path_49"/><path fill="#655259" stroke-width="1" d="M70 47L58 61L74 50L74 49L70 47z" id="path_50"/><path fill="#aaacb3" stroke-width="1" d="M25 48L26 49L25 48z" id="path_51"/><path fill="#8b9aa3" stroke-width="1" d="M29 48L30 49L29 48z" id="path_52"/><path fill="#aaacb3" stroke-width="1" d="M30 48L31 49L30 48M44 48L45 49L44 48M55 48L55 53L56 53L55 48M72 48L73 49L72 48z" id="path_53"/><path fill="#8b9aa3" stroke-width="1" d="M73 48L74 49L73 48M4 49L4 52L6 49L4 49z" id="path_54"/><path fill="#aaacb3" stroke-width="1" d="M33 49L33 50L39 50L33 49M40.6667 49.3333L41.3333 49.6667L40.6667 49.3333z" id="path_55"/><path fill="#8b9aa3" stroke-width="1" d="M74 49L75 50L74 49z" id="path_56"/><path fill="#aaacb3" stroke-width="1" d="M24 50L25 51L24 50z" id="path_57"/><path fill="#8b9aa3" stroke-width="1" d="M68 50L69 51L68 50z" id="path_58"/><path fill="#aaacb3" stroke-width="1" d="M70.6667 50.3333L71.3333 50.6667L70.6667 50.3333z" id="path_59"/><path fill="#655259" stroke-width="1" d="M5 51L1 54L1 55L19 63L19 62L5 51z" id="path_60"/><path fill="#8b9aa3" stroke-width="1" d="M24 51L25 52L24 51M67 51L68 52L67 51z" id="path_61"/><path fill="#aaacb3" stroke-width="1" d="M69 51L70 52L69 51M4 52L5 53L4 52z" id="path_62"/><path fill="#8b9aa3" stroke-width="1" d="M66 52L67 53L66 52M68 52L69 53L68 52M1.66667 53.3333L2.33333 53.6667L1.66667 53.3333M6 53L7 54L6 53M24 53L25 54L24 53M65 53L66 54L65 53M67 53L68 54L67 53M3.66667 54.3333L4.33333 54.6667L3.66667 54.3333z" id="path_63"/><path fill="#aaacb3" stroke-width="1" d="M5 54L6 55L5 54z" id="path_64"/><path fill="#8b9aa3" stroke-width="1" d="M7 54L8 55L7 54z" id="path_65"/><path fill="#aaacb3" stroke-width="1" d="M24.3333 54.6667L24.6667 55.3333L24.3333 54.6667M54 54L55 55L54 54z" id="path_66"/><path fill="#8b9aa3" stroke-width="1" d="M64 54L65 55L64 54M66 54L67 55L66 54z" id="path_67"/><path fill="#aaacb3" stroke-width="1" d="M6 55L7 56L6 55z" id="path_68"/><path fill="#8b9aa3" stroke-width="1" d="M8 55L9 56L8 55z" id="path_69"/><path fill="#aaacb3" stroke-width="1" d="M52 55L53 56L52 55z" id="path_70"/><path fill="#8b9aa3" stroke-width="1" d="M63 55L64 56L63 55M65 55L66 56L65 55z" id="path_71"/><path fill="#aaacb3" stroke-width="1" d="M7 56L8 57L7 56M10 56L11 57L10 56z" id="path_72"/><path fill="#8b9aa3" stroke-width="1" d="M25 56L26 57L25 56z" id="path_73"/><path fill="#aaacb3" stroke-width="1" d="M50 56L51 57L50 56z" id="path_74"/><path fill="#8b9aa3" stroke-width="1" d="M62 56L63 57L62 56M64 56L65 57L64 56z" id="path_75"/><path fill="#aaacb3" stroke-width="1" d="M8 57L9 58L8 57z" id="path_76"/><path fill="#8b9aa3" stroke-width="1" d="M11 57L12 58L11 57z" id="path_77"/><path fill="#aaacb3" stroke-width="1" d="M26 57L27 58L26 57M60 57L61 58L60 57z" id="path_78"/><path fill="#8b9aa3" stroke-width="1" d="M63 57L64 58L63 57M10 58L11 59L10 58z" id="path_79"/><path fill="#aaacb3" stroke-width="1" d="M28 58L29 59L28 58M50 58L51 59L50 58M59 58L60 59L59 58M62 58L63 59L62 58M11 59L12 60L11 59z" id="path_80"/><path fill="#8b9aa3" stroke-width="1" d="M14 59L15 60L14 59z" id="path_81"/><path fill="#aaacb3" stroke-width="1" d="M32 59L32 60L38 60L32 59z" id="path_82"/><path fill="#8b9aa3" stroke-width="1" d="M50 59L51 60L50 59M58 59L59 60L58 59z" id="path_83"/><path fill="#aaacb3" stroke-width="1" d="M61 59L62 60L61 59z" id="path_84"/><path fill="#8b9aa3" stroke-width="1" d="M13 60L14 61L13 60M16 60L17 61L16 60M59 60L60 61L59 60M15 61L16 62L15 61M18 61L19 62L18 61z" id="path_85"/><path fill="#aaacb3" stroke-width="1" d="M19.3333 61.6667L19.6667 62.3333L19.3333 61.6667M51 61L52 62L51 61M58 61L59 62L58 61z" id="path_86"/><path fill="#8b9aa3" stroke-width="1" d="M17 62L18 63L17 62M38.3333 63.6667L38.6667 64.3333L38.3333 63.6667z" id="path_87"/><path fill="#aaacb3" stroke-width="1" d="M52 63L53 64L52 63z" id="path_88"/><path fill="#8b9aa3" stroke-width="1" d="M31 64L33 67L31 64z" id="path_89"/><path fill="#655259" stroke-width="1" d="M32 64L32 66L34 66L34 64L32 64z" id="path_90"/><path fill="#aaacb3" stroke-width="1" d="M38 65L38 68L39 68L38 65M53 66L54 67L53 66M54 68L55 69L54 68z" id="path_91"/><path fill="#655259" stroke-width="1" d="M30 71L30 73L32 73L32 71L30 71z" id="path_92"/><path fill="#aaacb3" stroke-width="1" d="M32 71L33 72L32 71M55 71L56 72L55 71z" id="path_93"/><path fill="#8b9aa3" stroke-width="1" d="M32 72L33 73L32 72z" id="path_94"/><path fill="#aaacb3" stroke-width="1" d="M39.3333 72.6667L39.6667 73.3333L39.3333 72.6667z" id="path_95"/><path fill="#8b9aa3" stroke-width="1" d="M55.3333 72.6667L55.6667 73.3333L55.3333 72.6667M30.6667 73.3333L31.3333 73.6667L30.6667 73.3333z" id="path_96"/><path fill="#aaacb3" stroke-width="1" d="M55 74L56 75L55 74M54 75L55 76L54 75z" id="path_97"/><path fill="#8b9aa3" stroke-width="1" d="M40 76L41 77L40 76z" id="path_98"/><path fill="#aaacb3" stroke-width="1" d="M53 76L54 77L53 76M50 77L51 78L50 77z" id="path_99"/><path fill="#8b9aa3" stroke-width="1" d="M31 78L32 81L33 81L31 78z" id="path_100"/><path fill="#aaacb3" stroke-width="1" d="M42 78L42 79L47 79L42 78z" id="path_101"/><path fill="#655259" stroke-width="1" d="M30 79L30 81L32 81L32 79L30 79z" id="path_102"/><path fill="#aaacb3" stroke-width="1" d="M31 81L32 82L31 81M89 81L89 85L90 85L89 81z" id="path_103"/><path fill="#8b9aa3" stroke-width="1" d="M89 82L90 83L89 82M88 83L84 90C87.9515 88.7189 90.6669 87.1165 88 83M33 85L34 86L33 85z" id="path_104"/><path fill="#655259" stroke-width="1" d="M34 85L33 86L33 87L34 88L35 88L36 87L36 86L34 85z" id="path_105"/><path fill="#aaacb3" stroke-width="1" d="M35 85L36 86L35 85M86 85L87 86L86 85M85.3333 86.6667L85.6667 87.3333L85.3333 86.6667M87.6667 86.3333L88.3333 86.6667L87.6667 86.3333M33 87L34 88L33 87M35 87L36 88L35 87M84 88L85 89L84 88M89 88L90 89L89 88M83 89L84 90L83 89M85 89L85 90L88 90L85 89M0 113L2 115L0 113z" id="path_106"/><path fill="#8b9aa3" stroke-width="1" d="M0 114L0 120L4 120L0 114z" id="path_107"/><path fill="#aaacb3" stroke-width="1" d="M2 116L3 117L2 116M3 117L4 118L3 117M1 119L6 121L1 119M89 128L90 129L89 128z" id="path_108"/><path fill="#655259" stroke-width="1" d="M88 129L88 131L90 131L90 129L88 129z" id="path_109"/><path fill="#aaacb3" stroke-width="1" d="M89 131L90 132L89 131M82.3333 142.667L82.6667 143.333L82.3333 142.667z" id="path_110"/><path fill="#655259" stroke-width="1" d="M83 142L83 144L85 144L85 142L83 142z" id="path_111"/><path fill="#aaacb3" stroke-width="1" d="M85.3333 142.667L85.6667 143.333L85.3333 142.667z" id="path_112"/><path fill="#8b9aa3" stroke-width="1" d="M83.6667 144.333L84.3333 144.667L83.6667 144.333M86 156L87 157L86 156z" id="path_113"/><path fill="#655259" stroke-width="1" d="M87 156L88 159L87 156z" id="path_114"/><path fill="#aaacb3" stroke-width="1" d="M88 156L89 157L88 156z" id="path_115"/><path fill="#8b9aa3" stroke-width="1" d="M88 157L89 158L88 157M86 158L87 159L86 158z" id="path_116"/><path fill="#aaacb3" stroke-width="1" d="M88 158L89 159L88 158M41 164L41 165L44 165L41 164z" id="path_117"/><path fill="#8b9aa3" stroke-width="1" d="M76.6667 164.333L77.3333 164.667L76.6667 164.333z" id="path_118"/><path fill="#655259" stroke-width="1" d="M39.4375 166.032C34.818 169.19 39.8813 177.159 44.7716 174.083C50.6765 170.369 44.8485 162.332 39.4375 166.032z" id="path_119"/><path fill="#8b9aa3" stroke-width="1" d="M45 165L46 166L45 165z" id="path_120"/><path fill="#aaacb3" stroke-width="1" d="M75.3333 165.667L75.6667 166.333L75.3333 165.667z" id="path_121"/><path fill="#655259" stroke-width="1" d="M76 165L76 167L78 167L78 165L76 165z" id="path_122"/><path fill="#aaacb3" stroke-width="1" d="M78 165L79 166L78 165z" id="path_123"/><path fill="#8b9aa3" stroke-width="1" d="M37 167L38 168L37 167M47 167L48 168L47 167M37 171L38 172L37 171M47.3333 171.667L47.6667 172.333L47.3333 171.667z" id="path_124"/><path fill="#aaacb3" stroke-width="1" d="M37 172L38 173L37 172z" id="path_125"/><path fill="#8b9aa3" stroke-width="1" d="M38 173L39 174L38 173z" id="path_126"/><path fill="#d54544" stroke-width="1" d="M40 175L36 184C40.0074 185.001 53.0674 183.71 56.338 180.926C60.1355 177.693 51.2575 173.752 49 173.52C45.9276 173.205 43.0737 174.955 40 175z" id="path_127"/><path fill="#aaacb3" stroke-width="1" d="M50 173L51 174L50 173M39 174L40 175L39 174z" id="path_128"/><path fill="#8b9aa3" stroke-width="1" d="M52 174L53 175L52 174z" id="path_129"/><path fill="#aaacb3" stroke-width="1" d="M53 174L54 175L53 174z" id="path_130"/><path fill="#8b9aa3" stroke-width="1" d="M54 175L55 176L54 175z" id="path_131"/><path fill="#aaacb3" stroke-width="1" d="M55 175L56 176L55 175M56 176L57 177L56 176M58 176L59 177L58 176z" id="path_132"/><path fill="#8b9aa3" stroke-width="1" d="M38 177L39 178L38 177M57 177L58 178L57 177z" id="path_133"/><path fill="#aaacb3" stroke-width="1" d="M37 178L38 179L37 178z" id="path_134"/><path fill="#8b9aa3" stroke-width="1" d="M58 178L60 180L58 178z" id="path_135"/><path fill="#655259" stroke-width="1" d="M58 179C53.7737 182.892 41.6975 184.86 36 184C36.002 186.615 35.2499 191.126 37.6034 192.971C40.6228 195.339 46.745 193.086 50 192.269C58.2123 190.208 69.921 188.001 58 179z" id="path_136"/><path fill="#aaacb3" stroke-width="1" d="M36.3333 180.667L36.6667 181.333L36.3333 180.667M60 180L61 181L60 180z" id="path_137"/><path fill="#8b9aa3" stroke-width="1" d="M61 181L62 182L61 181z" id="path_138"/><path fill="#aaacb3" stroke-width="1" d="M62 182L63 183L62 182M63 184L64 185L63 184z" id="path_139"/><path fill="#8b9aa3" stroke-width="1" d="M63 185L64 186L63 185z" id="path_140"/><path fill="#aaacb3" stroke-width="1" d="M35 187L36 188L35 187z" id="path_141"/><path fill="#8b9aa3" stroke-width="1" d="M35.3333 188.667L35.6667 189.333L35.3333 188.667M63 189L64 190L63 189z" id="path_142"/><path fill="#aaacb3" stroke-width="1" d="M35.3333 190.667L35.6667 191.333L35.3333 190.667z" id="path_143"/><path fill="#8b9aa3" stroke-width="1" d="M60.6667 190.333L61.3333 190.667L60.6667 190.333M52.6667 191.333L53.3333 191.667L52.6667 191.333z" id="path_144"/><path fill="#aaacb3" stroke-width="1" d="M54 191L55 192L54 191z" id="path_145"/><path fill="#8b9aa3" stroke-width="1" d="M49 192L50 193L49 192z" id="path_146"/><path fill="#aaacb3" stroke-width="1" d="M50 192L51 193L50 192z" id="path_147"/><path fill="#8b9aa3" stroke-width="1" d="M55 192L54 194L55 192z" id="path_148"/><path fill="#aaacb3" stroke-width="1" d="M36 193L37 194L36 193z" id="path_149"/><path fill="#8b9aa3" stroke-width="1" d="M44.6667 193.333L45.3333 193.667L44.6667 193.333z" id="path_150"/><path fill="#aaacb3" stroke-width="1" d="M46.6667 193.333L47.3333 193.667L46.6667 193.333z" id="path_151"/><path fill="#655259" stroke-width="1" d="M55 193L55 195L57 195L57 193L55 193M46 194L46 196L48 196L48 194L46 194z" id="path_152"/><path fill="#aaacb3" stroke-width="1" d="M54 194L55 195L54 194M45 195L46 196L45 195z" id="path_153"/><path fill="#8b9aa3" stroke-width="1" d="M46.6667 196.333L47.3333 196.667L46.6667 196.333z" id="path_154"/><path fill="#655259" stroke-width="1" d="M55 197L56 198L55 197z" id="path_155"/><path fill="#d54544" stroke-width="1" d="M67 200C55.5506 192.133 53.4343 206.528 67 200z" id="path_156"/><path fill="#aaacb3" stroke-width="1" d="M59 197L59 198L62 198L59 197M54.3333 198.667L54.6667 199.333L54.3333 198.667M65 198L65 199L68 199L65 198z" id="path_157"/><path fill="#655259" stroke-width="1" d="M67 199L66 201L67 199z" id="path_158"/><path fill="#8b9aa3" stroke-width="1" d="M68 199L67 201L68 199z" id="path_159"/><path fill="#aaacb3" stroke-width="1" d="M68 200L69 201L68 200M45 201L46 202L45 201z" id="path_160"/><path fill="#655259" stroke-width="1" d="M46 201L52 205L52 204L46 201M55 201L56 202L55 201z" id="path_161"/><path fill="#aaacb3" stroke-width="1" d="M64 201L64 202L67 202L64 201z" id="path_162"/><path fill="#8b9aa3" stroke-width="1" d="M47 202L48 203L47 202z" id="path_163"/><path fill="#aaacb3" stroke-width="1" d="M55 202L55 203L61 203L55 202M46 203L47 204L46 203z" id="path_164"/><path fill="#8b9aa3" stroke-width="1" d="M48 203L49 204L48 203z" id="path_165"/><path fill="#aaacb3" stroke-width="1" d="M49 203L50 204L49 203M47 204L48 205L47 204M20 205L21 206L20 205z" id="path_166"/><path fill="#8b9aa3" stroke-width="1" d="M21 205L18 211L21 210L21 205z" id="path_167"/><path fill="#aaacb3" stroke-width="1" d="M37 205L38 206L37 205z" id="path_168"/><path fill="#d54544" stroke-width="1" d="M42 216C40.9016 219.37 39.6014 222.655 38.439 226C35.9514 233.16 41.5137 241.222 49.7215 236.643C55.6113 233.356 50.9529 224.955 54.0278 220.317C56.4725 216.63 62.3928 218.128 65.2539 214.581C66.6833 212.809 67.2539 209.646 65.2539 208.032C63.5521 206.658 60.9256 207.293 58.9992 207.666C52.2006 208.982 44.1123 204.401 38.3179 206.068C32.0033 207.884 39.0843 214.976 42 216z" id="path_169"/><path fill="#8b9aa3" stroke-width="1" d="M39 205L40 206L39 205z" id="path_170"/><path fill="#aaacb3" stroke-width="1" d="M49 205L50 206L49 205z" id="path_171"/><path fill="#8b9aa3" stroke-width="1" d="M50 205L51 206L50 205z" id="path_172"/><path fill="#aaacb3" stroke-width="1" d="M51 205L52 206L51 205M84 205L85 206L84 205z" id="path_173"/><path fill="#8b9aa3" stroke-width="1" d="M85 205L84 212L90 210L90 209L85 210L85 205z" id="path_174"/><path fill="#655259" stroke-width="1" d="M21 206C20.7823 212.944 27.2568 218.021 33 221L21 206z" id="path_175"/><path fill="#aaacb3" stroke-width="1" d="M42 206L43 207L42 206M62 206L63 207L62 206z" id="path_176"/><path fill="#8b9aa3" stroke-width="1" d="M63 206L64 207L63 206z" id="path_177"/><path fill="#aaacb3" stroke-width="1" d="M64.6667 206.333L65.3333 206.667L64.6667 206.333z" id="path_178"/><path fill="#655259" stroke-width="1" d="M85 206L87 210L85 206z" id="path_179"/><path fill="#aaacb3" stroke-width="1" d="M35 207L35 213L36 213L35 207M45.6667 207.333L46.3333 207.667L45.6667 207.333M58 207L59 208L58 207z" id="path_180"/><path fill="#8b9aa3" stroke-width="1" d="M59 207L60 208L59 207z" id="path_181"/><path fill="#aaacb3" stroke-width="1" d="M49.6667 208.333L50.3333 208.667L49.6667 208.333M53 208L53 209L56 209L53 208M66 208L67 209L66 208M16 209L18 211L16 209z" id="path_182"/><path fill="#655259" stroke-width="1" d="M17.6667 209.333L18.3333 209.667L17.6667 209.333M88 209L89 210L88 209z" id="path_183"/><path fill="#8b9aa3" stroke-width="1" d="M22 210L23 211L22 210z" id="path_184"/><path fill="#aaacb3" stroke-width="1" d="M83 210L84 211L83 210z" id="path_185"/><path fill="#655259" stroke-width="1" d="M84 210L85 211L84 210z" id="path_186"/><path fill="#aaacb3" stroke-width="1" d="M89 210L90 211L89 210M21 211L22 212L21 211M23 211L24 212L23 211z" id="path_187"/><path fill="#655259" stroke-width="1" d="M83 211L73 220L73 221C77.3265 219.529 83.1063 216.025 83 211z" id="path_188"/><path fill="#8b9aa3" stroke-width="1" d="M22 212L23 213L22 212z" id="path_189"/><path fill="#aaacb3" stroke-width="1" d="M24 212L25 213L24 212z" id="path_190"/><path fill="#8b9aa3" stroke-width="1" d="M82 212L83 213L82 212M23 213L24 214L23 213z" id="path_191"/><path fill="#aaacb3" stroke-width="1" d="M25 213L26 214L25 213z" id="path_192"/><path fill="#8b9aa3" stroke-width="1" d="M36 213L37 214L36 213z" id="path_193"/><path fill="#aaacb3" stroke-width="1" d="M66.3333 213.667L66.6667 214.333L66.3333 213.667z" id="path_194"/><path fill="#8b9aa3" stroke-width="1" d="M81 213L82 214L81 213z" id="path_195"/><path fill="#aaacb3" stroke-width="1" d="M83 213L84 214L83 213z" id="path_196"/><path fill="#8b9aa3" stroke-width="1" d="M24 214L25 215L24 214z" id="path_197"/><path fill="#aaacb3" stroke-width="1" d="M26 214L27 215L26 214M37 214L38 215L37 214z" id="path_198"/><path fill="#8b9aa3" stroke-width="1" d="M80 214L81 215L80 214M82 214L83 215L82 214M25 215L26 216L25 215M27 215L28 216L27 215z" id="path_199"/><path fill="#aaacb3" stroke-width="1" d="M39 215L40 216L39 215M65 215L66 216L65 215z" id="path_200"/><path fill="#8b9aa3" stroke-width="1" d="M79 215L80 216L79 215M81 215L82 216L81 215M26 216L27 217L26 216M28 216L29 217L28 216z" id="path_201"/><path fill="#aaacb3" stroke-width="1" d="M41.3333 216.667L41.6667 217.333L41.3333 216.667z" id="path_202"/><path fill="#8b9aa3" stroke-width="1" d="M63 216L64 217L63 216M78 216L79 217L78 216M80 216L81 217L80 216M27 217L28 218L27 217z" id="path_203"/><path fill="#aaacb3" stroke-width="1" d="M30 217L31 218L30 217M60.6667 217.333L61.3333 217.667L60.6667 217.333M79 217L80 218L79 217M28 218L29 219L28 218z" id="path_204"/><path fill="#8b9aa3" stroke-width="1" d="M31 218L32 219L31 218z" id="path_205"/><path fill="#aaacb3" stroke-width="1" d="M54.6667 218.333L55.3333 218.667L54.6667 218.333M78 218L79 219L78 218M29 219L30 220L29 219z" id="path_206"/><path fill="#8b9aa3" stroke-width="1" d="M32 219L33 220L32 219z" id="path_207"/><path fill="#aaacb3" stroke-width="1" d="M40.3333 219.667L40.6667 220.333L40.3333 219.667M53 219L53 227L54 227L53 219z" id="path_208"/><path fill="#8b9aa3" stroke-width="1" d="M74 219L75 220L74 219M31 220L32 221L31 220M33 220L32 222L33 220z" id="path_209"/><path fill="#aaacb3" stroke-width="1" d="M72.3333 220.667L72.6667 221.333L72.3333 220.667z" id="path_210"/><path fill="#8b9aa3" stroke-width="1" d="M75 220L76 221L75 220z" id="path_211"/><path fill="#aaacb3" stroke-width="1" d="M33 221L34 222L33 221z" id="path_212"/><path fill="#8b9aa3" stroke-width="1" d="M73 221L74 222L73 221z" id="path_213"/><path fill="#aaacb3" stroke-width="1" d="M57 222L58 223L57 222z" id="path_214"/><path fill="#8b9aa3" stroke-width="1" d="M58 222L60 224L58 222z" id="path_215"/><path fill="#aaacb3" stroke-width="1" d="M39 223L40 224L39 223z" id="path_216"/><path fill="#655259" stroke-width="1" d="M57 223L59 225L59 223L57 223z" id="path_217"/><path fill="#8b9aa3" stroke-width="1" d="M57 224L58 225L57 224z" id="path_218"/><path fill="#aaacb3" stroke-width="1" d="M59 224L60 225L59 224M38 225L39 226L38 225M58 225L59 226L58 225M37 228L38 229L37 228z" id="path_219"/><path fill="#8b9aa3" stroke-width="1" d="M59.6667 229.333L60.3333 229.667L59.6667 229.333z" id="path_220"/><path fill="#655259" stroke-width="1" d="M59 230L59 232L61 232L61 230L59 230z" id="path_221"/><path fill="#aaacb3" stroke-width="1" d="M61.3333 230.667L61.6667 231.333L61.3333 230.667M36 231L36 234L37 234L36 231M60 232L61 233L60 232z" id="path_222"/><path fill="#8b9aa3" stroke-width="1" d="M52 233L53 234L52 233z" id="path_223"/><path fill="#aaacb3" stroke-width="1" d="M52.3333 234.667L52.6667 235.333L52.3333 234.667z" id="path_224"/><path fill="#8b9aa3" stroke-width="1" d="M38 235L39 236L38 235z" id="path_225"/><path fill="#aaacb3" stroke-width="1" d="M40 236L41 237L40 236M51 236L52 237L51 236M44.6667 237.333L45.3333 237.667L44.6667 237.333z" id="path_226"/><path fill="#8b9aa3" stroke-width="1" d="M48 237L49 238L48 237z" id="path_227"/><path fill="#aaacb3" stroke-width="1" d="M49 237L50 238L49 237M59 237L60 238L59 237z" id="path_228"/><path fill="#655259" stroke-width="1" d="M60 237L60 239L62 239L62 237L60 237z" id="path_229"/><path fill="#8b9aa3" stroke-width="1" d="M59 238L60 239L59 238M60.6667 239.333L61.3333 239.667L60.6667 239.333z" id="path_230"/><path fill="#aaacb3" stroke-width="1" d="M58 244L59 245L58 244z" id="path_231"/><path fill="#8b9aa3" stroke-width="1" d="M57 245L58 246L57 245z" id="path_232"/><path fill="#655259" stroke-width="1" d="M57 247L60 245L57 247z" id="path_233"/><path fill="#8b9aa3" stroke-width="1" d="M58 247L59 248L58 247z" id="path_234"/><path fill="#aaacb3" stroke-width="1" d="M21 252L20 253L22 254L22 255L20 255L20 256C21.5566 258.636 20.4809 259.461 18 261L18 263L19 264L21 264L24 252L22 254L21 252z" id="path_235"/><path fill="#8b9aa3" stroke-width="1" d="M22 252L23 253L22 252z" id="path_236"/><path fill="#d6dde1" stroke-width="1" d="M22 253L23 254L22 253z" id="path_237"/><path fill="#8b9aa3" stroke-width="1" d="M24 253L25 254L24 253M20 254L21 255L20 254z" id="path_238"/><path fill="#d6dde1" stroke-width="1" d="M21 254L22 255L21 254M23.3333 254.667L23.6667 255.333L23.3333 254.667z" id="path_239"/><path fill="#8b9aa3" stroke-width="1" d="M21 256L22 257L21 256M23 256L24 257L23 256z" id="path_240"/><path fill="#aaacb3" stroke-width="1" d="M25 259L23 262L27 261L25 259M35 260L41 263C39.3799 260.059 38.3142 259.501 35 260z" id="path_241"/><path fill="#8b9aa3" stroke-width="1" d="M19 260L20 261L19 260M22 260L22 263L23 263L24 260L22 260M25 260L26 261L25 260z" id="path_242"/><path fill="#aaacb3" stroke-width="1" d="M5 261C5.70584 265.403 8.18934 267.177 11 263L7 263L7 262L9 262L5 261z" id="path_243"/><path fill="#d6dde1" stroke-width="1" d="M20 261L21 262L20 261z" id="path_244"/><path fill="#8b9aa3" stroke-width="1" d="M26.3333 261.667L26.6667 262.333L26.3333 261.667M35 261L36 262L35 261z" id="path_245"/><path fill="#d6dde1" stroke-width="1" d="M36 261C36.6624 264.15 38.3376 264.15 39 261L38 261L36 261M7.66667 262.333L8.33333 262.667L7.66667 262.333z" id="path_246"/><path fill="#8b9aa3" stroke-width="1" d="M9 262L10 263L9 262z" id="path_247"/><path fill="#aaacb3" stroke-width="1" d="M25.3333 262.667L25.6667 263.333L25.3333 262.667M34.6667 262.333L35.3333 262.667L34.6667 262.333z" id="path_248"/><path fill="#8b9aa3" stroke-width="1" d="M37 262L38 263L37 262z" id="path_249"/><path fill="#d6dde1" stroke-width="1" d="M6 263L7 264L6 263z" id="path_250"/><path fill="#aaacb3" stroke-width="1" d="M13 263L14 264L13 263z" id="path_251"/><path fill="#8b9aa3" stroke-width="1" d="M14 263L14 268L15 268L14 263z" id="path_252"/><path fill="#aaacb3" stroke-width="1" d="M15 263L14 267L17 266L17 263L15 263M22.6667 263.333L23.3333 263.667L22.6667 263.333M28 264L30 267L28 270L18 268L17 268L18 276L15 276L14 273L12 273L12 278L11 279C2.89172 277.759 9.53882 287.287 11 280L16 278L14 281L18 281L16 276C18.9826 275.63 18.8629 273.916 19 271L23 272L22 277L23 277L24 274L30 276L28 279L31 280L33 276L28 274C29.3844 270.637 30.3201 269.365 34 269C32.6394 265.646 31.7217 263.937 28 264z" id="path_253"/><path fill="#8b9aa3" stroke-width="1" d="M35 263L36 264L35 263M39 263L40 264L39 263M10 264L11 265L10 264z" id="path_254"/><path fill="#d6dde1" stroke-width="1" d="M14.3333 264.667L14.6667 265.333L14.3333 264.667z" id="path_255"/><path fill="#8b9aa3" stroke-width="1" d="M16 264L17 265L16 264M22.3333 264.667L22.6667 265.333L22.3333 264.667z" id="path_256"/><path fill="#aaacb3" stroke-width="1" d="M34 266L40 265L34 266z" id="path_257"/><path fill="#8b9aa3" stroke-width="1" d="M7 265L8 266L7 265M11 265L12 266L11 265z" id="path_258"/><path fill="#aaacb3" stroke-width="1" d="M12 265C11.4176 267.191 11.4936 273.463 14 269L12 270L12 269L12 265z" id="path_259"/><path fill="#d6dde1" stroke-width="1" d="M30 265L31 266L30 265z" id="path_260"/><path fill="#8b9aa3" stroke-width="1" d="M33 265L34 266L33 265z" id="path_261"/><path fill="#aaacb3" stroke-width="1" d="M19 268L19 269L26 268L19 268z" id="path_262"/><path fill="#8b9aa3" stroke-width="1" d="M31 266L32 267L31 266z" id="path_263"/><path fill="#aaacb3" stroke-width="1" d="M15.3333 267.667L15.6667 268.333L15.3333 267.667z" id="path_264"/><path fill="#8b9aa3" stroke-width="1" d="M16 268L17 269L16 268z" id="path_265"/><path fill="#d6dde1" stroke-width="1" d="M21 268L22 271L21 268M23 270L27 269L23 270z" id="path_266"/><path fill="#8b9aa3" stroke-width="1" d="M26 268L27 269L26 268M18.6667 269.333L19.3333 269.667L18.6667 269.333M22 269L23 270L22 269M27 269L28 270L27 269M31 269L31 270L34 270L34 269L31 269z" id="path_267"/><path fill="#d6dde1" stroke-width="1" d="M32 269L33 270L32 269z" id="path_268"/><path fill="#aaacb3" stroke-width="1" d="M31 270L32 271L31 270z" id="path_269"/><path fill="#d6dde1" stroke-width="1" d="M19 271L19 274L22 273L22 272L19 271M26 271L25 273L27 273L26 271z" id="path_270"/><path fill="#8b9aa3" stroke-width="1" d="M22 272L23 273L22 272z" id="path_271"/><path fill="#aaacb3" stroke-width="1" d="M31 274L34 274L33 272L31 274M20.3333 273.667L20.6667 274.333L20.3333 273.667z" id="path_272"/><path fill="#8b9aa3" stroke-width="1" d="M21 273L22 274L21 273M19 274L22 277L19 274z" id="path_273"/><path fill="#d6dde1" stroke-width="1" d="M21.3333 274.667L21.6667 275.333L21.3333 274.667M24 274L24 276L26 274L24 274z" id="path_274"/><path fill="#8b9aa3" stroke-width="1" d="M26 274L23 278L26 274M33 274L34 275L33 274z" id="path_275"/><path fill="#d6dde1" stroke-width="1" d="M12 275L12 276L15 277L12 275z" id="path_276"/><path fill="#8b9aa3" stroke-width="1" d="M17 275L18 276L17 275M30 275L31 277L32 277L33 275L30 275M16 276L17 277L16 276z" id="path_277"/><path fill="#aaacb3" stroke-width="1" d="M20 276L21 277L20 276M25 276L26 277L25 276M33 277C36.0239 281.47 42.8804 283.535 40 276L33 277M86 276L87 277L86 276z" id="path_278"/><path fill="#8b9aa3" stroke-width="1" d="M13 277L14 278L13 277z" id="path_279"/><path fill="#d6dde1" stroke-width="1" d="M30 277L31 278L30 277z" id="path_280"/><path fill="#8b9aa3" stroke-width="1" d="M85 277L86 278L85 277z" id="path_281"/><path fill="#655259" stroke-width="1" d="M85 279L88 279L87 277L85 279z" id="path_282"/><path fill="#8b9aa3" stroke-width="1" d="M87 277L88 278L87 277z" id="path_283"/><path fill="#d6dde1" stroke-width="1" d="M15.3333 278.667L15.6667 279.333L15.3333 278.667z" id="path_284"/><path fill="#aaacb3" stroke-width="1" d="M23 278L24 279L23 278z" id="path_285"/><path fill="#8b9aa3" stroke-width="1" d="M36 278L37 279L36 278z" id="path_286"/><path fill="#d6dde1" stroke-width="1" d="M37 281L38 281C38.6534 279.04 39 278.446 39 281C40.442 278.24 37.6961 277.689 37 281z" id="path_287"/><path fill="#8b9aa3" stroke-width="1" d="M7 279L8 280L7 279M14 279L15 280L14 279M17 279L18 280L17 279M23 279L21 280L20 280L23 282L23 287L24 287L23 279M38 279L39 280L38 279z" id="path_288"/><path fill="#aaacb3" stroke-width="1" d="M86 279L87 280L86 279z" id="path_289"/><path fill="#d6dde1" stroke-width="1" d="M7.33333 280.667L7.66667 281.333L7.33333 280.667M9 280L8 283L9 280z" id="path_290"/><path fill="#aaacb3" stroke-width="1" d="M19.3333 280.667L19.6667 281.333L19.3333 280.667M21 280L22 281L21 280M24 283L25 283L28 282L24 283z" id="path_291"/><path fill="#8b9aa3" stroke-width="1" d="M26 280L27 281L26 280M10 281L11 282L10 281z" id="path_292"/><path fill="#d6dde1" stroke-width="1" d="M21 281L22 282L21 281M25 281L26 282L25 281z" id="path_293"/><path fill="#8b9aa3" stroke-width="1" d="M9 282L10 283L9 282z" id="path_294"/><path fill="#aaacb3" stroke-width="1" d="M20 282L21 283L20 282z" id="path_295"/><path fill="#8b9aa3" stroke-width="1" d="M25.6667 282.333L26.3333 282.667L25.6667 282.333z" id="path_296"/><path fill="#aaacb3" stroke-width="1" d="M21 290L24 290L27 288C24.1093 286.234 22.6528 287.189 21 290M89 287L90 288L89 287z" id="path_297"/><path fill="#d6dde1" stroke-width="1" d="M23 288L23 289L25 289L25 290L22 289L22 290L26 288L23 288z" id="path_298"/><path fill="#8b9aa3" stroke-width="1" d="M26 288L24 291L24 292L26 288z" id="path_299"/><path fill="#655259" stroke-width="1" d="M89.3333 288.667L89.6667 289.333L89.3333 288.667z" id="path_300"/><path fill="#8b9aa3" stroke-width="1" d="M24 289L25 290L24 289z" id="path_301"/><path fill="#aaacb3" stroke-width="1" d="M27 289L28 290L27 289z" id="path_302"/><path fill="#8b9aa3" stroke-width="1" d="M22 290L23 291L22 290z" id="path_303"/><path fill="#aaacb3" stroke-width="1" d="M25 290L26 291L25 290M22.6667 291.333L23.3333 291.667L22.6667 291.333M79 297L79 301L80 301L79 297z" id="path_304"/><path fill="#655259" stroke-width="1" d="M78 298L78 300L80 300L80 298L78 298z" id="path_305"/><path fill="#aaacb3" stroke-width="1" d="M19 306L17 310L20 309L19 312L20 312L23 310L23 309L21 307L19 306M87 306L88 307L87 306z" id="path_306"/><path fill="#8b9aa3" stroke-width="1" d="M19 307L21 309L21 307L19 307z" id="path_307"/><path fill="#655259" stroke-width="1" d="M86 307L86 309L88 309L88 307L86 307z" id="path_308"/><path fill="#8b9aa3" stroke-width="1" d="M88.3333 307.667L88.6667 308.333L88.3333 307.667M18 309L16 316C13.5632 315.972 13.6973 316.556 14 319L7 328L10 327L10 332C5.38718 332.567 1.49309 342.784 0 347L1 348L4 347L0 358L4 359L4 363L0 361L0 365L0 366L9 363L11 368C20.0774 364.221 21.6196 364.019 30 369C32.1168 360.992 37.5224 362.621 44 365L33 349L32 343L37 344L33 341L34 338L32 338L29 327L33 327L22 309L20 312L19 312L20 309L18 309z" id="path_309"/><path fill="#aaacb3" stroke-width="1" d="M86.6667 309.333L87.3333 309.667L86.6667 309.333M16 311L17 312L16 311M23 311L24 312L23 311M15 312L16 313L15 312M22 312L23 313L22 312M24.3333 312.667L24.6667 313.333L24.3333 312.667M16 313L16 314L18 316L19 316L21 314L21 313L16 313M14 314L16 316L16 314L14 314z" id="path_310"/><path fill="#d6dde1" stroke-width="1" d="M19 317L22 314L19 317z" id="path_311"/><path fill="#aaacb3" stroke-width="1" d="M23 314L24 315L23 314M25 314L26 315L25 314M13 316L14 317L13 316M16 316L18 318L16 316M21 316L23 318L23 316L21 316M12 317L12 319L14 319L12 317M14 317L15 318L14 317M27 317L28 318L27 317M19 318L20 319L19 318M21 318L22 319L21 318M23 318L24 319L23 318M26.3333 318.667L26.6667 319.333L26.3333 318.667M11.3333 319.667L11.6667 320.333L11.3333 319.667M28.3333 319.667L28.6667 320.333L28.3333 319.667M16 320L18 322L16 320M10 321L11 322L10 321M29 321L30 322L29 321M9 322L10 323L9 322M12 328L11 323L15 326L18 324C14.0219 322.127 7.45155 322.818 12 328M30.3333 322.667L30.6667 323.333L30.3333 322.667z" id="path_312"/><path fill="#d6dde1" stroke-width="1" d="M12 324L12 325L15 326L15 323L12 324z" id="path_313"/><path fill="#aaacb3" stroke-width="1" d="M8 324L9 325L8 324M27 324L28 325L27 324M29 324L31 326L29 324M31 324L32 325L31 324M12 325L13 326L12 325M7 326L8 327L7 326M8 327L10 329L10 327L8 327M27 327L28 328L27 327M29 329L33 328L29 329M17 328L18 329L17 328M10 329L12 331L10 329M25 329L26 330L25 329z" id="path_314"/><path fill="#d6dde1" stroke-width="1" d="M26 329L25 332L28 332L26 329z" id="path_315"/><path fill="#aaacb3" stroke-width="1" d="M27 329L25 332L25 333L30 335L27 329M30.3333 329.667L30.6667 330.333L30.3333 329.667M8 330L10 332L10 330L8 330M13 330L14 331L13 330M31.3333 331.667L31.6667 332.333L31.3333 331.667M7 332L8 333L7 332M6 333L7 334L6 333M10 333L11 334L10 333M7.66667 334.333L8.33333 334.667L7.66667 334.333M15 334L16 335L15 334M26.6667 334.333L27.3333 334.667L26.6667 334.333M32 334L33 335L32 334M5 335L5 337L7 335L5 335M10 335L11 336L10 335M24.6667 335.333L25.3333 335.667L24.6667 335.333M31.3333 335.667L31.6667 336.333L31.3333 335.667M7 336L8 337L7 336z" id="path_316"/><path fill="#d6dde1" stroke-width="1" d="M7 337L7 338L10 339L10 336L7 337z" id="path_317"/><path fill="#aaacb3" stroke-width="1" d="M26 336L27 337L26 336M33 336L32 338L34 338L33 336M4 337L5 338L4 337M10.3333 337.667L10.6667 338.333L10.3333 337.667M17 337L18 338L17 337M20.3333 337.667L20.6667 338.333L20.3333 337.667M28.3333 337.667L28.6667 338.333L28.3333 337.667M7 338L8 339L7 338M22 338L21 343L18 343L18 344L26 344L26 343L22 343L25 339L24 341L26 340L27 344C27.4875 340.41 25.226 338.956 22 338M34 338L33 341L34 338M3 339L4 340L3 339M5 339L4 341L5 339M11 339L12 340L11 339z" id="path_318"/><path fill="#8b9aa3" stroke-width="1" d="M23.6667 339.333L24.3333 339.667L23.6667 339.333z" id="path_319"/><path fill="#aaacb3" stroke-width="1" d="M2.33333 340.667L2.66667 341.333L2.33333 340.667M8 340L9 341L8 340M12 340L13 341L12 340M19 340L20 341L19 340z" id="path_320"/><path fill="#d6dde1" stroke-width="1" d="M23 340L22 343L25 341L23 340z" id="path_321"/><path fill="#aaacb3" stroke-width="1" d="M35.3333 340.667L35.6667 341.333L35.3333 340.667M11 341L12 342L11 341M1 342L2 343L1 342M3 342L4 343L3 342M8 342L9 343L8 342M36 342L37 343L36 342M29 343L30 344L29 343M32 343L38 345L38 344L32 343M0.333333 344.667L0.666667 345.333L0.333333 344.667M2 344L3 345L2 344M20.6667 345.333L21.3333 345.667L20.6667 345.333M23 345L24 346L23 345M1 346L2 347L1 346M29.6667 346.333L30.3333 346.667L29.6667 346.333M33 346L34 347L33 346M0 347L1 348L0 347M2.66667 347.333L3.33333 347.667L2.66667 347.333M34 347L33 349L35 349L34 347z" id="path_322"/><path fill="#d6dde1" stroke-width="1" d="M0 348L0 354L1 354L4 348L0 348z" id="path_323"/><path fill="#aaacb3" stroke-width="1" d="M13 348L14 349L13 348M31 348L32 349L31 348M3 349L4 350L3 349M8.66667 349.333L9.33333 349.667L8.66667 349.333M20 349L21 350L20 349M35 349L36 350L35 349M4 350L5 353L6 353L7 350L6 350L4 350M11 350L10 353L11 354L14 353L14 352L11 353L11 350z" id="path_324"/><path fill="#d6dde1" stroke-width="1" d="M12 350L11 353L14 351L12 350z" id="path_325"/><path fill="#aaacb3" stroke-width="1" d="M16 350L15 354L16 354L16 350M32 350L33 351L32 350z" id="path_326"/><path fill="#d6dde1" stroke-width="1" d="M33 350L32 351L35 353L33 350z" id="path_327"/><path fill="#aaacb3" stroke-width="1" d="M34 350L35 351L34 350M36 350L37 351L36 350M2 351L3 352L2 351M35.3333 351.667L35.6667 352.333L35.3333 351.667M1 352L2 353L1 352M8 352L9 353L8 352M30 352L31 353L30 352M32 352L33 353L32 352M37.3333 352.667L37.6667 353.333L37.3333 352.667M3 353L3 356L6 356L3 353M17 353L18 354L17 353M33 353L34 356L37 355L37 354L33 353M0 354L1 355L0 354M7 354L8 355L7 354M30 354L31 355L30 354z" id="path_328"/><path fill="#8b9aa3" stroke-width="1" d="M34 354L35 355L34 354z" id="path_329"/><path fill="#aaacb3" stroke-width="1" d="M38 354L39 355L38 354M1 355L2 356L1 355M9 355L10 356L9 355M37.3333 355.667L37.6667 356.333L37.3333 355.667M0 356L1 357L0 356M11 356L12 357L11 356M29 356L27 362L24 361L24 362L27 363L26 366L30 366L27 362L29 362L28 358L30 360L31 359L29 356M31 356L32 357L31 356M39 356L40 357L39 356M3 357L6 360L3 357M38 357L39 358L38 357M40.3333 357.667L40.6667 358.333L40.3333 357.667M0 358L1 359L0 358z" id="path_330"/><path fill="#d6dde1" stroke-width="1" d="M1 358L0 361L3 361L1 358z" id="path_331"/><path fill="#aaacb3" stroke-width="1" d="M2 358L3 359L2 358M3 359L4 360L3 359z" id="path_332"/><path fill="#d6dde1" stroke-width="1" d="M25 359L24 360L27 362L25 359z" id="path_333"/><path fill="#aaacb3" stroke-width="1" d="M41 360L42 361L41 360M1 361L1 362L4 363L1 361M42 361L43 362L42 361M9 362L10 363L9 362M19 362L20 363L19 362M32 362L33 363L32 362M34.6667 362.333L35.3333 362.667L34.6667 362.333M8 363L9 364L8 363M17 363L18 364L17 363M20 363L20 364L23 364L20 363M31.3333 363.667L31.6667 364.333L31.3333 363.667M37 363L37 364L41 364L37 363M43 363L44 364L43 363M0.666667 364.333L1.33333 364.667L0.666667 364.333M6.66667 364.333L7.33333 364.667L6.66667 364.333M9.33333 364.667L9.66667 365.333L9.33333 364.667M18 364L19 365L18 364M24 364L25 365L24 364z" id="path_334"/><path fill="#8b9aa3" stroke-width="1" d="M27 364L28 365L27 364z" id="path_335"/><path fill="#aaacb3" stroke-width="1" d="M41.6667 364.333L42.3333 364.667L41.6667 364.333M44 364L45 365L44 364M3 365L3 366L6 366L3 365M11 365L12 366L11 365M13 365L14 366L13 365M16 365L17 366L16 365M0.666667 366.333L1.33333 366.667L0.666667 366.333M14.6667 366.333L15.3333 366.667L14.6667 366.333M30.3333 366.667L30.6667 367.333L30.3333 366.667M10 367L11 368L10 367M12.6667 367.333L13.3333 367.667L12.6667 367.333M27 367L28 368L27 367M11 368L12 369L11 368M28 368L29 369L28 368M68 368L69 369L68 368M43 384L43 385L46 385L43 384z" id="path_336"/><path fill="#8b9aa3" stroke-width="1" d="M41 385L42 386L41 385z" id="path_337"/><path fill="#655259" stroke-width="1" d="M42.1474 385.762C36.5513 388.025 40.3735 396.297 45.8943 394.353C52.1445 392.151 48.0442 383.377 42.1474 385.762z" id="path_338"/><path fill="#8b9aa3" stroke-width="1" d="M47 385L48 386L47 385z" id="path_339"/><path fill="#aaacb3" stroke-width="1" d="M39 386L40 387L39 386z" id="path_340"/><path fill="#8b9aa3" stroke-width="1" d="M48 386L49 387L48 386z" id="path_341"/><path fill="#aaacb3" stroke-width="1" d="M49 387L50 388L49 387M38 388L38 391L39 391L38 388z" id="path_342"/><path fill="#8b9aa3" stroke-width="1" d="M49 388L50 389L49 388M49 391L50 392L49 391M39 392L40 393L39 392z" id="path_343"/><path fill="#aaacb3" stroke-width="1" d="M49 392L50 393L49 392M39 393L40 394L39 393M48 393L49 394L48 393z" id="path_344"/><path fill="#8b9aa3" stroke-width="1" d="M37 394L38 395L37 394z" id="path_345"/><path fill="#d54544" stroke-width="1" d="M30 403L53 404C50.5783 392.007 33.3892 391.033 30 403z" id="path_346"/><path fill="#aaacb3" stroke-width="1" d="M47 394L48 395L47 394M35 395L36 396L35 395M48 395L49 396L48 395M49 396L50 397L49 396M50 397L51 398L50 397M31 398L32 399L31 398M30 399L31 400L30 399z" id="path_347"/><path fill="#8b9aa3" stroke-width="1" d="M29 401L30 402L29 401z" id="path_348"/><path fill="#aaacb3" stroke-width="1" d="M28 402L29 403L28 402z" id="path_349"/><path fill="#655259" stroke-width="1" d="M29 402C27.7408 404.506 24.9819 408.623 27.0432 411.397C29.5571 414.779 49.1763 414.604 52.3958 411.976C57.6751 407.666 50.4727 404.237 46.9961 403.835C44.9943 403.604 43.0124 403.227 41 403.09C36.8891 402.808 33.0418 402.962 29 402z" id="path_350"/><path fill="#8b9aa3" stroke-width="1" d="M28 403L29 404L28 403z" id="path_351"/><path fill="#aaacb3" stroke-width="1" d="M53 403L53 406L54 406L53 403z" id="path_352"/><path fill="#8b9aa3" stroke-width="1" d="M27 404L28 405L27 404M26 406L27 407L26 406z" id="path_353"/><path fill="#aaacb3" stroke-width="1" d="M54 407L54 412L55 412L54 407M25.3333 409.667L25.6667 410.333L25.3333 409.667M26 412L27 413L26 412z" id="path_354"/><path fill="#8b9aa3" stroke-width="1" d="M53 412L54 413L53 412z" id="path_355"/><path fill="#aaacb3" stroke-width="1" d="M29 413L30 414L29 413M40.6667 413.333L41.3333 413.667L40.6667 413.333z" id="path_356"/><path fill="#8b9aa3" stroke-width="1" d="M42.6667 413.333L43.3333 413.667L42.6667 413.333M46 413L46 414L50 414L46 413z" id="path_357"/><path fill="#aaacb3" stroke-width="1" d="M50.6667 413.333L51.3333 413.667L50.6667 413.333z" id="path_358"/><path fill="#8b9aa3" stroke-width="1" d="M33 415L35 418L33 415z" id="path_359"/><path fill="#655259" stroke-width="1" d="M34 415L34 417L36 417L34 415z" id="path_360"/><path fill="#8b9aa3" stroke-width="1" d="M35 415L36 416L35 415z" id="path_361"/><path fill="#aaacb3" stroke-width="1" d="M43 415L44 416L43 415z" id="path_362"/><path fill="#655259" stroke-width="1" d="M42 416L42 418L44 418L44 416L42 416z" id="path_363"/><path fill="#8b9aa3" stroke-width="1" d="M44.3333 416.667L44.6667 417.333L44.3333 416.667z" id="path_364"/><path fill="#aaacb3" stroke-width="1" d="M43 418L44 419L43 418M34 419L35 420L34 419z" id="path_365"/><path fill="#8b9aa3" stroke-width="1" d="M35 419L36 420L35 419z" id="path_366"/><path fill="#d54544" stroke-width="1" d="M26 424C31.0669 424.4 38.7538 426.706 37 419L26 424z" id="path_367"/><path fill="#8b9aa3" stroke-width="1" d="M37 419L38 420L37 419z" id="path_368"/><path fill="#aaacb3" stroke-width="1" d="M30.6667 420.333L31.3333 420.667L30.6667 420.333M24.6667 421.333L25.3333 421.667L24.6667 421.333z" id="path_369"/><path fill="#8b9aa3" stroke-width="1" d="M26 421L27 422L26 421M24 422L26 424L24 422z" id="path_370"/><path fill="#655259" stroke-width="1" d="M25 422L26 423L25 422z" id="path_371"/><path fill="#8b9aa3" stroke-width="1" d="M44 423L42 426L44 423z" id="path_372"/><path fill="#aaacb3" stroke-width="1" d="M28 424L28 425L31 425L28 424z" id="path_373"/><path fill="#8b9aa3" stroke-width="1" d="M37 424L38 425L37 424z" id="path_374"/><path fill="#655259" stroke-width="1" d="M44 424L39 427L39 428L44 424z" id="path_375"/><path fill="#aaacb3" stroke-width="1" d="M44 425L45 426L44 425M69 425L70 426L69 425z" id="path_376"/><path fill="#8b9aa3" stroke-width="1" d="M39.6667 426.333L40.3333 426.667L39.6667 426.333z" id="path_377"/><path fill="#aaacb3" stroke-width="1" d="M43 426L44 427L43 426M51 426L51 427L55 428L55 427L51 426z" id="path_378"/><path fill="#8b9aa3" stroke-width="1" d="M69 426L69 430L70 430L71 426L69 426M41 427L42 428L41 427z" id="path_379"/><path fill="#aaacb3" stroke-width="1" d="M49 427L50 428L49 427z" id="path_380"/><path fill="#d54544" stroke-width="1" d="M38 440C38.6078 444.809 37.8463 453.574 41.1397 457.397C44.3425 461.114 53.8481 458.574 54.929 453.895C56.0468 449.056 51.1141 444.77 50.9514 440.104C50.8293 436.603 58.3746 431.58 53.3966 428.071C50.0168 425.689 42.747 430.44 39 430.801C35.3911 431.149 28.5868 427.819 25.7577 430.643C18.6128 437.774 34.3727 439.998 38 440z" id="path_381"/><path fill="#655259" stroke-width="1" d="M70 427L58 442L74 431L74 430L70 427z" id="path_382"/><path fill="#aaacb3" stroke-width="1" d="M47 428L48 429L47 428M25 429L26 430L25 429z" id="path_383"/><path fill="#8b9aa3" stroke-width="1" d="M29 429L30 430L29 429z" id="path_384"/><path fill="#aaacb3" stroke-width="1" d="M30 429L31 430L30 429M44 429L45 430L44 429M55 429L55 434L56 434L55 429M72.6667 429.333L73.3333 429.667L72.6667 429.333z" id="path_385"/><path fill="#8b9aa3" stroke-width="1" d="M4 430L4 433L6 430L4 430z" id="path_386"/><path fill="#aaacb3" stroke-width="1" d="M33 430L33 431L37 431L33 430M39 430L39 431L42 431L39 430z" id="path_387"/><path fill="#8b9aa3" stroke-width="1" d="M74 430L75 431L74 430z" id="path_388"/><path fill="#aaacb3" stroke-width="1" d="M24 431L25 432L24 431z" id="path_389"/><path fill="#8b9aa3" stroke-width="1" d="M68 431L69 432L68 431z" id="path_390"/><path fill="#aaacb3" stroke-width="1" d="M71.6667 431.333L72.3333 431.667L71.6667 431.333z" id="path_391"/><path fill="#655259" stroke-width="1" d="M5 432L1 435L1 436L19 444L19 443L5 432z" id="path_392"/><path fill="#8b9aa3" stroke-width="1" d="M67 432L68 433L67 432z" id="path_393"/><path fill="#aaacb3" stroke-width="1" d="M69 432L70 433L69 432M4 433L5 434L4 433z" id="path_394"/><path fill="#8b9aa3" stroke-width="1" d="M66 433L67 434L66 433M68 433L69 434L68 433M1.66667 434.333L2.33333 434.667L1.66667 434.333M6 434L7 435L6 434M65 434L66 435L65 434M67 434L68 435L67 434M4 435L5 436L4 435z" id="path_395"/><path fill="#aaacb3" stroke-width="1" d="M5 435L6 436L5 435z" id="path_396"/><path fill="#8b9aa3" stroke-width="1" d="M7 435L8 436L7 435z" id="path_397"/><path fill="#aaacb3" stroke-width="1" d="M24.3333 435.667L24.6667 436.333L24.3333 435.667M54 435L55 436L54 435z" id="path_398"/><path fill="#8b9aa3" stroke-width="1" d="M64 435L65 436L64 435M66 435L67 436L66 435z" id="path_399"/><path fill="#aaacb3" stroke-width="1" d="M6 436L7 437L6 436z" id="path_400"/><path fill="#8b9aa3" stroke-width="1" d="M8 436L9 437L8 436M52 436L53 437L52 436M63 436L64 437L63 436M65 436L66 437L65 436z" id="path_401"/><path fill="#aaacb3" stroke-width="1" d="M7 437L8 438L7 437M10 437L11 438L10 437z" id="path_402"/><path fill="#8b9aa3" stroke-width="1" d="M25 437L26 438L25 437z" id="path_403"/><path fill="#aaacb3" stroke-width="1" d="M50 437L51 438L50 437z" id="path_404"/><path fill="#8b9aa3" stroke-width="1" d="M62 437L63 438L62 437M64 437L65 438L64 437M11 438L12 439L11 438z" id="path_405"/><path fill="#aaacb3" stroke-width="1" d="M26 438L27 439L26 438M60 438L61 439L60 438z" id="path_406"/><path fill="#8b9aa3" stroke-width="1" d="M63 438L64 439L63 438M10 439L11 440L10 439z" id="path_407"/><path fill="#aaacb3" stroke-width="1" d="M28 439L29 440L28 439M50.3333 439.667L50.6667 440.333L50.3333 439.667M59 439L60 440L59 439z" id="path_408"/><path fill="#8b9aa3" stroke-width="1" d="M62 439L63 440L62 439z" id="path_409"/><path fill="#aaacb3" stroke-width="1" d="M11 440L12 441L11 440z" id="path_410"/><path fill="#8b9aa3" stroke-width="1" d="M14 440L15 441L14 440z" id="path_411"/><path fill="#aaacb3" stroke-width="1" d="M32 440L32 441L38 441L32 440z" id="path_412"/><path fill="#8b9aa3" stroke-width="1" d="M58 440L59 441L58 440z" id="path_413"/><path fill="#aaacb3" stroke-width="1" d="M61 440L62 441L61 440z" id="path_414"/><path fill="#8b9aa3" stroke-width="1" d="M13 441L14 442L13 441M16 441L17 442L16 441M59 441L60 442L59 441z" id="path_415"/><path fill="#aaacb3" stroke-width="1" d="M60 441L61 442L60 441z" id="path_416"/><path fill="#8b9aa3" stroke-width="1" d="M15 442L16 443L15 442M18 442L19 443L18 442z" id="path_417"/><path fill="#aaacb3" stroke-width="1" d="M19.3333 442.667L19.6667 443.333L19.3333 442.667M51 442L52 443L51 442M58 442L59 443L58 442z" id="path_418"/><path fill="#8b9aa3" stroke-width="1" d="M17 443L18 444L17 443M38.3333 443.667L38.6667 444.333L38.3333 443.667z" id="path_419"/><path fill="#aaacb3" stroke-width="1" d="M32 444L31 446L32 444M52 444L53 445L52 444z" id="path_420"/><path fill="#655259" stroke-width="1" d="M32 445L32 447L34 447L34 445L32 445z" id="path_421"/><path fill="#aaacb3" stroke-width="1" d="M38 445L38 449L39 449L38 445z" id="path_422"/><path fill="#8b9aa3" stroke-width="1" d="M31 446L32 447L31 446M32 447L33 448L32 447z" id="path_423"/><path fill="#aaacb3" stroke-width="1" d="M53 447L54 448L53 447M54 449L55 450L54 449z" id="path_424"/><path fill="#655259" stroke-width="1" d="M30 452L30 454L32 454L32 452L30 452z" id="path_425"/><path fill="#aaacb3" stroke-width="1" d="M55 452L56 453L55 452z" id="path_426"/><path fill="#8b9aa3" stroke-width="1" d="M32 453L33 454L32 453z" id="path_427"/><path fill="#aaacb3" stroke-width="1" d="M39.3333 453.667L39.6667 454.333L39.3333 453.667z" id="path_428"/><path fill="#8b9aa3" stroke-width="1" d="M30.6667 454.333L31.3333 454.667L30.6667 454.333M55 454L56 455L55 454z" id="path_429"/><path fill="#aaacb3" stroke-width="1" d="M55 455L56 456L55 455M54 456L55 457L54 456z" id="path_430"/><path fill="#8b9aa3" stroke-width="1" d="M40 457L41 458L40 457M52 457L53 458L52 457z" id="path_431"/><path fill="#aaacb3" stroke-width="1" d="M53 457L54 458L53 457M50 458L51 459L50 458z" id="path_432"/><path fill="#8b9aa3" stroke-width="1" d="M31 459L32 460L31 459z" id="path_433"/><path fill="#aaacb3" stroke-width="1" d="M42 459L42 460L47 460L42 459z" id="path_434"/></svg>